if (_typeface_js && _typeface_js.loadFace) _typeface_js.loadFace({"glyphs":{"0":{"ha":833,"x_min":97,"x_max":736,"o":"m 138 641 q 249 809 179 747 q 417 875 325 875 q 584 809 508 875 q 696 641 654 747 q 736 417 736 537 q 696 192 736 297 q 584 24 654 86 q 417 -42 508 -42 q 249 24 325 -42 q 138 192 179 86 q 97 417 97 297 q 138 641 97 537 m 215 610 q 181 417 181 522 q 215 223 181 312 q 305 87 249 135 q 417 42 356 42 q 528 87 477 42 q 618 223 584 135 q 653 417 653 312 q 618 610 653 522 q 528 747 584 698 q 417 792 477 792 q 305 747 356 792 q 215 610 249 698 z "},"1":{"ha":833,"x_min":97,"x_max":736,"o":"m 542 127 q 568 288 542 194 l 603 422 q 417 375 522 375 q 195 444 288 375 q 97 625 97 518 q 195 806 97 732 q 417 875 288 875 q 638 806 546 875 q 736 625 736 732 q 728 566 736 594 l 648 267 q 626 127 626 183 q 642 60 626 81 q 658 47 648 51 q 689 42 667 43 l 689 -42 q 666 -40 673 -41 q 647 -37 658 -40 q 625 -30 636 -35 q 575 10 594 -17 q 542 127 542 53 m 245 739 q 181 625 181 690 q 245 511 181 560 q 417 458 315 458 q 588 511 518 458 q 653 625 653 560 q 588 739 653 690 q 417 792 518 792 q 245 739 315 792 z "},"2":{"ha":833,"x_min":97,"x_max":736,"o":"m 414 875 l 417 875 l 419 875 q 510 868 467 875 q 595 842 552 861 q 668 793 638 823 q 717 716 698 764 q 736 605 736 667 l 736 603 l 736 602 q 718 480 736 535 q 659 378 699 424 q 558 301 619 333 l 551 298 q 613 242 584 272 q 676 155 646 205 q 727 44 706 104 q 735 11 734 26 q 736 0 736 6 l 653 0 q 653 1 653 1 q 649 15 652 7 q 483 244 593 169 q 453 263 469 253 q 410 253 432 257 q 211 236 322 236 q 148 247 173 236 q 110 275 123 256 q 97 319 97 294 l 97 319 l 97 321 q 98 327 97 322 q 99 338 99 333 q 103 350 101 342 q 111 364 106 358 q 123 377 115 370 q 142 389 131 384 q 208 401 168 401 q 293 397 252 401 q 377 381 333 392 q 461 352 422 369 l 462 351 q 509 369 488 360 q 592 430 560 394 q 639 507 624 465 q 653 602 653 549 l 653 603 l 653 605 q 641 682 653 649 q 602 740 628 715 q 529 778 575 765 q 419 792 483 792 l 417 792 l 414 792 q 165 732 238 792 l 113 797 q 414 875 208 875 z "},"3":{"ha":833,"x_min":94,"x_max":738,"o":"m 415 875 l 419 875 q 523 868 476 875 q 602 850 569 861 q 659 822 635 838 q 699 788 684 805 q 722 749 713 770 q 734 711 731 728 q 738 675 738 694 l 738 674 q 722 590 738 628 q 681 524 707 551 q 649 496 667 509 l 660 490 q 715 436 696 468 q 733 366 733 405 l 733 365 q 573 151 733 217 q 710 63 640 113 q 721 47 711 61 q 731 28 731 33 q 733 0 733 17 q 658 0 696 0 l 661 -3 l 662 -4 l 656 0 q 650 0 653 0 q 650 3 650 2 q 518 86 582 51 q 456 117 485 103 q 208 97 351 97 l 205 97 q 143 108 163 100 q 106 137 119 118 q 94 180 94 156 l 94 181 l 94 182 q 94 188 94 183 q 96 199 95 194 q 100 211 97 203 q 107 225 103 219 q 120 238 112 231 q 138 250 128 245 q 205 263 165 263 q 210 263 206 263 q 216 263 215 263 q 304 253 256 263 q 413 224 351 244 q 466 203 438 215 q 650 365 650 246 l 650 366 q 623 414 650 393 q 555 447 596 434 q 533 439 544 443 q 434 417 488 426 q 326 404 381 408 q 211 401 272 401 q 148 411 173 401 q 110 441 123 422 q 97 484 97 460 q 151 558 98 540 q 205 567 174 567 l 206 567 l 213 567 q 348 563 285 567 q 471 551 410 559 q 550 535 514 544 q 654 674 654 582 l 654 675 q 642 723 654 702 q 602 760 629 744 q 529 784 576 776 q 418 792 483 792 l 414 792 q 169 733 241 792 l 116 797 q 415 875 211 875 z "},"4":{"ha":833,"x_min":97,"x_max":736,"o":"m 181 225 q 245 103 181 151 q 417 42 326 42 q 590 104 497 42 q 653 225 653 146 q 588 356 653 308 q 422 409 519 408 q 419 409 420 409 q 417 409 417 409 q 245 356 315 409 q 181 225 181 308 m 549 875 q 557 874 549 875 q 568 873 564 874 q 580 868 572 872 q 598 860 589 865 q 633 835 613 851 q 729 664 729 753 q 631 482 729 551 q 587 455 608 467 q 638 423 614 441 q 736 225 736 349 q 636 35 736 101 q 417 -42 522 -42 q 195 36 299 -42 q 97 225 97 110 q 195 423 97 349 q 245 454 219 441 q 202 483 224 467 q 104 664 104 556 q 200 834 104 753 q 235 860 219 851 q 284 875 261 875 l 285 792 q 277 788 284 792 q 254 772 267 783 q 188 664 188 714 q 252 549 188 598 q 417 492 328 492 l 419 492 l 420 492 q 582 550 500 492 q 646 664 646 594 q 579 771 646 715 q 557 788 565 783 q 549 792 550 792 l 549 875 z "},"5":{"ha":833,"x_min":87,"x_max":736,"o":"m 249 643 q 185 479 249 558 q 414 319 264 319 l 416 319 l 419 319 q 653 433 575 319 l 653 833 l 736 833 l 736 0 l 653 0 l 653 312 q 598 276 627 292 q 419 236 519 236 l 417 236 l 414 236 q 228 295 308 236 q 98 469 148 354 l 87 494 l 106 515 q 166 645 166 578 q 105 809 166 723 l 173 858 q 216 784 199 819 q 240 720 233 749 q 248 676 246 691 q 249 643 249 661 z "},"6":{"ha":833,"x_min":97,"x_max":695,"o":"m 597 992 q 622 891 597 928 q 694 842 645 856 l 694 757 l 486 757 q 261 710 328 757 q 193 576 193 663 q 338 424 193 424 q 342 424 338 424 q 347 424 347 424 l 694 424 l 694 340 l 347 340 q 343 340 347 340 q 339 340 340 340 q 261 328 293 340 q 212 295 228 317 q 188 248 195 274 q 181 191 181 223 l 181 190 l 181 190 q 218 79 181 116 q 347 42 256 42 l 694 42 l 694 -42 l 347 -42 q 160 19 224 -42 q 97 190 97 79 l 97 190 l 97 191 q 113 286 97 244 q 151 353 128 328 q 190 385 169 372 q 164 409 176 396 q 125 477 140 434 q 110 576 110 521 q 115 633 110 606 q 134 691 121 660 q 175 748 148 723 q 242 795 203 774 q 344 828 282 817 q 486 840 407 840 l 556 840 q 514 992 513 899 q 523 1052 514 1024 q 553 1103 533 1080 q 609 1140 573 1126 q 694 1153 645 1153 l 694 1069 q 618 1050 639 1069 q 597 992 597 1031 z "},"7":{"ha":833,"x_min":124,"x_max":736,"o":"m 186 649 q 223 773 186 710 q 432 875 283 875 l 433 875 q 663 763 556 874 q 736 475 736 686 q 736 471 736 474 q 736 467 736 467 q 685 224 736 334 q 534 38 633 115 q 310 -37 437 -37 q 125 -2 224 -37 l 153 77 q 310 47 238 47 q 483 104 408 47 q 653 467 653 235 q 653 472 653 469 q 653 475 653 474 q 603 704 653 653 q 433 792 520 792 l 432 792 q 295 731 331 792 q 269 649 269 687 q 292 579 269 613 l 224 532 q 186 649 186 587 z "},"8":{"ha":833,"x_min":97,"x_max":972,"o":"m 278 653 l 276 653 l 274 653 q 225 658 249 653 q 178 675 202 663 q 137 707 154 688 q 108 759 119 727 q 97 833 97 792 l 97 835 l 97 838 q 102 886 97 863 q 119 933 107 909 q 152 974 132 957 q 204 1003 172 992 q 278 1014 236 1014 l 280 1014 l 282 1014 q 330 1009 307 1014 q 377 992 353 1004 q 419 959 401 979 q 447 907 436 940 q 458 833 458 875 l 458 736 l 972 736 l 972 653 l 458 653 l 458 417 q 480 239 458 313 q 543 123 501 165 q 638 61 584 80 q 764 42 692 42 l 972 42 l 972 -42 l 764 -42 q 695 -38 728 -42 q 622 -22 663 -34 q 548 11 582 -9 q 482 66 515 31 q 426 148 449 101 q 389 264 403 195 q 375 417 375 333 l 375 653 l 278 653 m 375 736 l 375 833 q 355 906 375 881 q 281 931 334 931 l 279 931 l 278 931 q 206 910 231 931 q 181 836 181 890 l 181 835 l 181 833 q 201 761 181 786 q 275 736 222 736 l 276 736 l 278 736 l 375 736 z "},"9":{"ha":833,"x_min":97,"x_max":973,"o":"m 875 868 l 875 867 l 875 865 q 973 739 875 781 l 972 653 l 458 653 l 458 417 q 480 239 458 313 q 543 123 501 165 q 638 61 584 80 q 764 42 692 42 l 972 42 l 972 -42 l 764 -42 q 695 -38 728 -42 q 622 -22 663 -34 q 548 11 582 -9 q 482 66 515 31 q 426 148 449 101 q 389 264 403 195 q 375 417 375 333 l 375 653 l 278 653 l 276 653 l 274 653 q 225 658 249 653 q 178 675 202 663 q 137 707 154 688 q 108 759 119 727 q 97 833 97 792 l 97 835 l 97 838 q 102 886 97 863 q 119 933 107 909 q 152 974 132 957 q 204 1003 172 992 q 278 1014 236 1014 l 280 1014 l 282 1014 q 330 1009 307 1014 q 377 992 353 1004 q 419 959 401 979 q 447 907 436 940 q 458 833 458 875 l 458 736 l 837 736 q 792 864 792 791 l 792 866 l 792 868 q 804 931 792 903 q 835 973 815 955 q 895 1005 862 997 q 972 1014 928 1013 l 972 931 q 959 930 967 930 q 942 929 952 930 q 924 926 933 928 q 906 920 915 924 q 890 910 897 916 q 880 897 883 905 q 875 868 875 885 m 375 736 l 375 833 q 355 906 375 881 q 281 931 334 931 l 279 931 l 278 931 q 206 910 231 931 q 181 836 181 890 l 181 835 l 181 833 q 201 761 181 786 q 275 736 222 736 l 276 736 l 278 736 l 375 736 z "},"\u0000":{"ha":0,"x_min":0,"x_max":0,"o":""},"\f":{"ha":711,"x_min":0,"x_max":0,"o":""}," ":{"ha":833,"x_min":0,"x_max":0,"o":""},"!":{"ha":833,"x_min":0,"x_max":903,"o":"m 92 278 q 183 480 93 400 q 410 588 265 551 l 410 792 l 0 792 l 0 875 l 903 875 l 903 792 l 493 792 l 493 588 q 581 560 540 576 q 670 515 635 538 q 732 464 706 492 q 772 413 758 436 q 794 363 786 389 q 805 319 803 336 q 807 286 807 303 q 807 282 807 285 q 807 278 807 278 q 799 173 807 220 q 779 93 792 126 q 749 36 767 60 q 712 -3 731 11 q 671 -27 693 -18 q 630 -39 649 -35 q 590 -42 611 -42 l 590 42 q 645 54 622 42 q 687 93 669 66 q 714 166 705 119 q 724 278 724 213 q 724 281 724 278 q 724 284 724 283 q 655 424 724 365 q 451 513 585 483 q 243 422 311 481 q 175 277 176 363 q 184 165 174 212 q 213 92 194 119 q 256 53 231 65 q 313 42 281 42 l 313 -42 q 272 -39 292 -42 q 230 -26 253 -35 q 188 -3 207 -17 q 150 36 168 11 q 119 93 131 61 q 99 173 106 126 q 92 278 91 221 m 486 -597 l 451 -597 q 449 -597 451 -597 q 447 -597 448 -597 q 184 -520 292 -597 l 233 -452 q 448 -514 318 -514 q 449 -514 448 -514 q 451 -514 451 -514 l 486 -514 q 705 -452 619 -514 l 753 -520 q 486 -597 646 -597 m 486 -319 l 451 -319 q 449 -319 451 -319 q 447 -319 448 -319 q 184 -242 292 -319 l 233 -174 q 448 -236 318 -236 q 449 -236 448 -236 q 451 -236 451 -236 l 486 -236 q 705 -174 619 -236 l 753 -242 q 486 -319 646 -319 m 271 1133 q 271 1137 271 1134 q 271 1163 270 1153 q 275 1192 272 1173 q 284 1225 278 1212 q 304 1255 291 1238 q 336 1281 317 1272 q 384 1298 354 1291 q 450 1305 413 1305 q 530 1294 496 1305 q 583 1266 565 1283 q 613 1228 602 1250 q 628 1188 624 1206 q 631 1151 631 1170 q 610 1042 631 1104 l 531 1068 q 548 1151 548 1117 q 527 1204 548 1186 q 450 1222 506 1222 q 415 1219 430 1222 q 389 1214 399 1217 q 372 1203 379 1210 q 361 1191 365 1197 q 356 1176 358 1185 q 354 1159 354 1166 q 353 1140 353 1152 q 370 1068 353 1117 l 291 1042 q 277 1092 284 1063 q 271 1133 271 1120 z "},"\"":{"ha":833,"x_min":236,"x_max":597,"o":"m 319 694 l 319 653 l 236 653 l 236 694 l 236 972 l 236 1014 l 319 1014 l 319 972 l 319 694 m 597 694 l 597 653 l 514 653 l 514 694 l 514 972 l 514 1014 l 597 1014 l 597 972 l 597 694 z "},"#":{"ha":833,"x_min":97,"x_max":736,"o":"m 597 0 l 597 -42 l 514 -42 l 514 0 l 514 236 l 319 236 l 319 0 l 319 -42 l 236 -42 l 236 0 l 236 236 l 139 236 l 97 236 l 97 319 l 139 319 l 236 319 l 236 514 l 139 514 l 97 514 l 97 597 l 139 597 l 236 597 l 236 833 l 236 875 l 319 875 l 319 833 l 319 597 l 514 597 l 514 833 l 514 875 l 597 875 l 597 833 l 597 597 l 694 597 l 736 597 l 736 514 l 694 514 l 597 514 l 597 319 l 694 319 l 736 319 l 736 236 l 694 236 l 597 236 l 597 0 m 514 319 l 514 514 l 319 514 l 319 319 l 514 319 z "},"$":{"ha":833,"x_min":97,"x_max":736,"o":"m 181 414 q 206 340 181 360 q 278 319 231 319 l 375 319 l 375 514 l 278 514 l 276 514 l 274 514 q 272 514 273 514 q 270 514 271 514 q 226 518 248 514 q 180 535 204 523 q 139 567 156 547 q 109 619 121 586 q 97 694 97 652 l 97 697 l 97 699 q 102 747 97 724 q 119 794 107 770 q 152 835 132 818 q 204 864 172 853 q 278 875 236 875 l 375 875 l 375 1111 l 375 1153 l 458 1153 l 458 1111 l 458 875 l 556 875 l 558 875 l 560 875 q 608 870 585 875 q 655 853 631 865 q 697 820 679 840 q 725 768 714 801 q 736 694 736 736 l 736 653 l 653 653 l 653 694 q 632 767 653 742 q 558 792 612 792 l 557 792 l 556 792 l 458 792 l 458 597 l 556 597 q 630 586 597 597 q 682 558 662 575 q 714 516 701 540 q 731 469 726 492 q 736 421 736 446 l 736 419 l 736 417 q 725 343 736 375 q 697 291 714 310 q 655 258 679 271 q 608 241 631 246 q 560 236 585 236 l 558 236 l 556 236 l 458 236 l 458 0 l 458 -42 l 375 -42 l 375 0 l 375 236 l 278 236 q 204 247 236 236 q 152 276 172 258 q 119 317 132 293 q 102 364 107 341 q 97 413 97 388 l 97 415 l 97 417 l 97 458 l 181 458 l 181 417 l 181 415 l 181 414 m 458 514 l 458 319 l 556 319 l 557 319 l 558 319 q 632 344 612 319 q 653 417 653 369 l 653 418 l 653 419 q 628 493 653 473 q 556 514 603 514 l 458 514 m 375 597 l 375 792 l 278 792 q 206 771 231 792 q 181 697 181 751 l 181 696 l 181 694 q 201 623 181 648 q 272 597 221 597 q 273 597 272 597 q 275 597 274 597 l 276 597 l 278 597 l 375 597 z "},"%":{"ha":833,"x_min":97,"x_max":737,"o":"m 736 764 q 585 526 735 677 l 307 249 q 213 139 245 186 q 181 73 181 92 q 181 71 181 72 q 181 69 181 69 l 181 0 l 181 -42 l 97 -42 l 97 0 l 97 69 q 98 75 97 71 q 98 81 98 80 q 136 174 98 115 q 249 307 174 233 l 526 585 q 625 700 597 656 q 653 764 653 744 l 653 833 l 653 875 l 737 875 l 736 833 l 736 764 m 98 697 q 151 822 98 769 q 278 875 203 875 q 406 822 353 875 q 458 694 458 769 q 406 567 458 619 q 278 514 353 514 q 151 567 203 514 q 98 692 98 619 q 98 693 98 692 q 97 694 97 694 q 98 696 97 694 q 98 697 98 697 m 181 695 q 181 695 181 695 q 181 694 181 694 q 181 694 181 694 q 181 693 181 693 q 210 626 181 654 q 278 597 238 597 q 347 626 318 597 q 375 694 375 654 q 347 763 375 735 q 278 792 318 792 q 210 763 238 792 q 181 696 181 735 q 181 695 181 696 m 375 139 q 375 176 375 139 q 428 267 375 214 q 556 319 481 319 q 683 267 631 319 q 736 139 736 214 q 683 11 736 64 q 556 -42 631 -42 q 428 11 481 -42 q 375 139 375 64 m 487 208 q 473 193 487 208 q 458 139 458 179 q 487 70 458 99 q 556 42 515 42 q 624 70 596 42 q 653 139 653 99 q 624 208 653 179 q 556 236 596 236 q 487 208 515 236 z "},"&":{"ha":833,"x_min":0,"x_max":903,"o":"m 806 556 l 806 514 l 764 514 l 278 514 l 276 514 l 275 514 q 273 514 274 514 q 272 514 272 514 q 201 489 221 514 q 181 417 181 463 q 181 392 181 403 q 182 374 181 381 q 183 366 183 368 q 185 323 183 345 q 198 268 188 301 q 224 205 208 235 q 272 145 241 176 q 343 92 302 115 q 375 78 358 84 q 368 139 368 105 q 383 214 368 181 q 419 266 397 247 q 471 297 442 285 q 526 314 500 310 q 578 319 552 319 q 584 319 579 319 q 599 319 589 319 q 608 319 603 319 q 614 319 612 319 q 617 319 617 319 q 657 315 636 319 q 706 300 678 312 q 754 269 733 288 q 790 217 775 251 q 806 140 805 183 q 801 93 806 115 q 782 45 797 70 q 744 1 768 19 q 680 -30 721 -17 q 584 -42 639 -42 l 583 -42 q 433 -27 502 -42 q 315 13 364 -12 q 228 72 267 38 q 166 142 190 106 q 127 218 142 178 q 105 292 111 258 q 99 360 99 327 q 99 369 99 362 q 98 389 99 376 q 97 417 97 401 q 108 491 97 458 q 137 543 119 524 q 178 575 155 563 q 224 592 202 588 q 270 597 247 597 q 272 597 271 597 q 274 597 273 597 l 276 597 l 278 597 l 722 597 l 722 792 l 0 792 l 0 875 l 903 875 l 903 792 l 806 792 l 806 556 m 488 49 q 583 42 533 42 l 585 42 q 653 49 625 42 q 696 69 681 56 q 716 99 710 83 q 722 138 722 116 q 712 187 722 167 q 685 217 702 207 q 651 232 669 227 q 613 236 634 236 q 606 236 608 236 q 599 236 605 236 q 586 236 590 236 q 581 236 583 236 q 535 231 556 235 q 494 217 514 227 q 463 186 474 206 q 451 139 451 167 q 490 53 451 73 l 488 49 m 129 83 q 178 63 158 83 q 199 14 199 42 q 178 -36 199 -15 q 129 -56 158 -56 l 129 -56 q 80 -36 101 -56 q 60 14 60 -15 q 80 63 60 42 q 129 83 101 83 l 129 83 z "},"'":{"ha":833,"x_min":236,"x_max":319,"o":"m 319 694 l 319 653 l 236 653 l 236 694 l 236 972 l 236 1014 l 319 1014 l 319 972 l 319 694 z "},"(":{"ha":833,"x_min":375,"x_max":615,"o":"m 458 486 l 458 347 q 458 343 458 347 q 458 338 458 339 q 460 260 458 298 q 470 167 463 222 q 491 66 478 112 q 528 -28 503 19 q 585 -110 552 -76 l 615 -139 l 556 -198 l 526 -168 q 375 338 375 -17 q 375 343 375 339 q 375 347 375 347 l 375 486 q 527 1003 375 858 l 557 1031 l 615 971 l 584 942 q 458 486 458 822 z "},")":{"ha":833,"x_min":219,"x_max":458,"o":"m 458 486 l 458 347 q 458 343 458 347 q 458 338 458 339 q 307 -168 458 -17 l 278 -198 l 219 -139 l 249 -110 q 306 -28 281 -76 q 343 66 330 19 q 363 167 356 112 q 373 260 371 222 q 375 338 375 298 q 375 343 375 339 q 375 347 375 347 l 375 486 q 249 942 375 822 l 219 971 l 276 1031 l 306 1003 q 458 486 458 858 z "},"*":{"ha":833,"x_min":97,"x_max":736,"o":"m 208 319 l 209 319 q 274 349 230 319 q 357 417 308 371 q 274 485 308 463 q 209 514 230 514 l 208 514 l 139 514 l 97 514 l 97 597 l 139 597 l 208 597 l 210 597 l 211 597 q 375 513 275 597 l 375 694 l 375 736 l 458 736 l 458 694 l 458 513 q 524 561 494 544 q 619 597 578 594 q 625 597 622 597 l 694 597 l 736 597 l 736 514 l 694 514 l 625 514 l 608 514 q 620 514 609 514 l 623 514 q 476 417 576 511 q 555 352 519 376 q 622 319 601 319 q 623 319 622 319 q 625 319 624 319 l 694 319 l 736 319 l 736 236 l 694 236 l 625 236 q 619 236 624 236 q 613 237 615 237 q 520 275 579 237 q 458 321 491 293 l 458 139 l 458 97 l 375 97 l 375 139 l 375 322 q 211 236 274 236 l 210 236 l 208 236 l 139 236 l 97 236 l 97 319 l 139 319 l 208 319 z "},"+":{"ha":0,"x_min":-597,"x_max":-235,"o":"m -596 1046 q -596 1049 -596 1047 q -596 1075 -597 1065 q -592 1105 -595 1085 q -582 1138 -589 1124 q -562 1167 -576 1151 q -531 1194 -549 1184 q -483 1210 -512 1203 q -417 1217 -453 1217 q -336 1206 -371 1217 q -283 1179 -302 1195 q -253 1140 -265 1163 q -239 1100 -242 1118 q -235 1064 -235 1083 q -256 954 -235 1017 l -335 981 q -319 1064 -319 1030 q -340 1116 -319 1099 q -417 1134 -360 1134 q -452 1132 -437 1134 q -477 1126 -467 1129 q -494 1116 -487 1123 q -505 1103 -501 1109 q -511 1088 -509 1098 q -513 1072 -512 1078 q -513 1052 -513 1065 q -497 981 -513 1029 l -576 954 q -589 1004 -583 976 q -596 1046 -596 1033 z "},",":{"ha":833,"x_min":56,"x_max":222,"o":"m 80 -59 q 56 0 56 -35 l 56 1 q 80 59 56 35 q 139 83 104 83 q 198 59 174 83 q 222 0 222 35 l 222 -39 q 164 -169 222 -126 l 131 -194 l 81 -128 l 114 -103 q 130 -83 124 -95 q 80 -59 101 -81 z "},"-":{"ha":0,"x_min":-650,"x_max":-79,"o":"m -347 -319 l -382 -319 q -384 -319 -383 -319 q -386 -319 -385 -319 q -649 -242 -542 -319 l -601 -174 q -385 -236 -515 -236 q -384 -236 -385 -236 q -382 -236 -383 -236 l -347 -236 q -128 -174 -214 -236 l -80 -242 q -347 -319 -187 -319 z "},".":{"ha":833,"x_min":-70,"x_max":70,"o":"m 0 -69 q 49 -89 28 -69 q 69 -139 69 -110 q 49 -188 69 -167 q 0 -208 28 -208 l 0 -208 q -49 -188 -28 -208 q -69 -139 -69 -167 q -49 -89 -69 -110 q 0 -69 -28 -69 l 0 -69 z "},"/":{"ha":833,"x_min":97,"x_max":737,"o":"m 736 764 q 585 526 735 677 l 307 249 q 213 139 245 186 q 181 73 181 92 q 181 71 181 72 q 181 69 181 69 l 181 0 l 181 -42 l 97 -42 l 97 0 l 97 69 q 98 75 97 71 q 98 81 98 80 q 136 174 98 115 q 249 307 174 233 l 526 585 q 625 700 597 656 q 653 764 653 744 l 653 833 l 653 875 l 737 875 l 736 833 l 736 764 z "},":":{"ha":833,"x_min":349,"x_max":489,"o":"m 419 -83 q 468 -104 447 -83 q 488 -153 488 -124 q 468 -202 488 -182 q 419 -223 447 -223 l 419 -223 q 370 -202 390 -223 q 349 -153 349 -182 q 370 -104 349 -124 q 419 -83 390 -83 l 419 -83 m 419 328 q 468 307 447 328 q 488 258 488 287 q 468 209 488 230 q 419 188 447 188 l 419 188 q 370 209 390 188 q 349 258 349 229 q 370 307 349 287 q 419 328 390 328 l 419 328 z "},";":{"ha":833,"x_min":349,"x_max":572,"o":"m 430 -59 q 406 0 406 -35 l 406 1 q 430 59 406 35 q 489 83 454 83 q 548 59 524 83 q 572 0 572 35 l 572 -39 q 514 -169 572 -126 l 481 -194 l 431 -128 l 464 -103 q 480 -83 474 -95 q 430 -59 451 -81 m 419 328 q 468 307 447 328 q 488 258 488 287 q 468 209 488 230 q 419 188 447 188 l 419 188 q 370 209 390 188 q 349 258 349 229 q 370 307 349 287 q 419 328 390 328 l 419 328 z "},"<":{"ha":2500,"x_min":192,"x_max":2318,"o":"m 2310 1176 q 2312 1151 2310 1176 q 2317 1059 2315 1125 q 2313 918 2319 994 q 2296 878 2313 900 q 2258 845 2280 857 q 2222 837 2236 833 q 2208 859 2207 841 q 2094 1392 2233 1253 q 2022 1439 2063 1422 q 1941 1458 1981 1455 q 1853 1455 1901 1462 q 1766 1437 1805 1448 q 1683 1409 1728 1426 q 1614 1380 1639 1392 l 1560 1353 q 1463 1282 1507 1326 q 1250 863 1333 1152 q 1211 810 1242 834 q 1160 792 1181 786 q 947 794 1033 828 q 851 738 881 769 q 832 713 839 727 q 824 695 828 705 q 801 589 807 647 q 1172 588 867 588 q 1275 558 1245 588 q 1249 367 1329 504 q 1217 327 1235 344 q 1192 306 1203 314 l 1185 301 q 1199 288 1192 294 q 1244 212 1230 256 q 1255 110 1262 155 q 1188 -16 1246 42 q 1166 -36 1174 -29 q 1154 -45 1160 -40 q 1139 -55 1148 -49 q 1122 -65 1131 -60 q 1100 -74 1113 -69 q 1074 -83 1088 -79 q 922 -69 1006 -99 q 826 -8 867 -50 q 715 231 747 71 q 713 236 714 233 q 713 242 713 239 q 693 503 685 387 q 693 505 693 503 q 694 515 693 510 q 724 663 701 595 q 742 704 732 685 q 803 785 765 747 q 974 892 870 852 q 1175 910 1065 928 q 1415 1329 1266 1179 q 1572 1444 1488 1402 q 1726 1512 1653 1485 q 1855 1551 1799 1539 q 1959 1564 1910 1563 q 2043 1559 2008 1565 q 2107 1540 2077 1553 q 2155 1514 2137 1527 q 2188 1486 2172 1501 q 2218 1452 2204 1470 q 2247 1406 2231 1433 q 2273 1347 2263 1379 q 2295 1271 2284 1315 q 2310 1176 2306 1227 m 560 427 q 559 440 560 435 q 549 489 556 477 q 522 526 538 510 q 413 571 480 567 q 340 561 371 574 q 310 542 324 555 q 304 535 308 540 q 298 516 300 531 q 312 446 295 488 q 332 416 319 429 q 403 381 357 392 q 515 392 467 366 q 549 413 536 403 q 556 419 552 415 q 560 427 558 419 m 715 -26 q 731 -45 731 -28 q 716 -84 731 -62 q 680 -119 701 -106 q 642 -131 658 -133 q 633 -128 638 -130 q 613 -115 622 -124 q 560 292 552 -57 q 561 336 561 315 q 506 302 537 319 q 328 276 419 256 q 238 322 269 290 q 210 363 219 340 q 193 461 188 417 q 241 565 199 515 q 263 589 254 581 q 367 659 315 639 q 479 676 420 680 q 615 620 565 672 q 649 575 635 601 q 666 353 670 538 q 707 -21 658 28 q 714 -26 710 -24 l 715 -26 m 1181 464 q 1109 483 1162 483 q 797 483 897 483 q 815 327 800 411 l 1053 341 q 1101 350 1078 345 q 1167 373 1148 360 q 1181 464 1205 440 m 1151 57 q 1141 132 1155 88 q 1104 194 1129 169 q 1023 238 1074 224 l 999 236 q 841 222 927 224 q 919 86 870 135 q 1003 33 956 50 q 1117 20 1071 9 q 1140 30 1131 24 q 1141 32 1140 31 q 1151 57 1148 38 z "},"=":{"ha":0,"x_min":-650,"x_max":-79,"o":"m -347 -597 l -382 -597 q -384 -597 -383 -597 q -386 -597 -385 -597 q -649 -520 -542 -597 l -601 -452 q -385 -514 -515 -514 q -384 -514 -385 -514 q -382 -514 -383 -514 l -347 -514 q -128 -452 -214 -514 l -80 -520 q -347 -597 -187 -597 m -347 -319 l -382 -319 q -384 -319 -383 -319 q -386 -319 -385 -319 q -649 -242 -542 -319 l -601 -174 q -385 -236 -515 -236 q -384 -236 -385 -236 q -382 -236 -383 -236 l -347 -236 q -128 -174 -214 -236 l -80 -242 q -347 -319 -187 -319 z "},">":{"ha":2500,"x_min":192,"x_max":2318,"o":"m 2310 1176 q 2312 1151 2310 1176 q 2317 1059 2315 1125 q 2313 918 2319 994 q 2296 878 2313 900 q 2258 845 2280 857 q 2222 837 2236 833 q 2208 859 2207 841 q 2094 1392 2233 1253 q 2022 1439 2063 1422 q 1941 1458 1981 1455 q 1853 1455 1901 1462 q 1766 1437 1805 1448 q 1683 1409 1728 1426 q 1614 1380 1639 1392 l 1560 1353 q 1463 1282 1507 1326 q 1250 863 1333 1152 q 1211 810 1242 834 q 1160 792 1181 786 q 947 794 1033 828 q 851 738 881 769 q 832 713 839 727 q 824 695 828 705 q 801 589 807 647 q 1172 588 867 588 q 1275 558 1245 588 q 1249 367 1329 504 q 1217 327 1235 344 q 1192 306 1203 314 l 1185 301 q 1199 288 1192 294 q 1244 212 1230 256 q 1255 110 1262 155 q 1188 -16 1246 42 q 1166 -36 1174 -29 q 1154 -45 1160 -40 q 1139 -55 1148 -49 q 1122 -65 1131 -60 q 1100 -74 1113 -69 q 1074 -83 1088 -79 q 922 -69 1006 -99 q 826 -8 867 -50 q 715 231 747 71 q 713 236 714 233 q 713 242 713 239 q 693 503 685 387 q 693 505 693 503 q 694 515 693 510 q 724 663 701 595 q 742 704 732 685 q 803 785 765 747 q 974 892 870 852 q 1175 910 1065 928 q 1415 1329 1266 1179 q 1572 1444 1488 1402 q 1726 1512 1653 1485 q 1855 1551 1799 1539 q 1959 1564 1910 1563 q 2043 1559 2008 1565 q 2107 1540 2077 1553 q 2155 1514 2137 1527 q 2188 1486 2172 1501 q 2218 1452 2204 1470 q 2247 1406 2231 1433 q 2273 1347 2263 1379 q 2295 1271 2284 1315 q 2310 1176 2306 1227 m 560 427 q 559 440 560 435 q 549 489 556 477 q 522 526 538 510 q 413 571 480 567 q 340 561 371 574 q 310 542 324 555 q 304 535 308 540 q 298 516 300 531 q 312 446 295 488 q 332 416 319 429 q 403 381 357 392 q 515 392 467 366 q 549 413 536 403 q 556 419 552 415 q 560 427 558 419 m 715 -26 q 731 -45 731 -28 q 716 -84 731 -62 q 680 -119 701 -106 q 642 -131 658 -133 q 633 -128 638 -130 q 613 -115 622 -124 q 560 292 552 -57 q 561 336 561 315 q 506 302 537 319 q 328 276 419 256 q 238 322 269 290 q 210 363 219 340 q 193 461 188 417 q 241 565 199 515 q 263 589 254 581 q 367 659 315 639 q 479 676 420 680 q 615 620 565 672 q 649 575 635 601 q 666 353 670 538 q 707 -21 658 28 q 714 -26 710 -24 l 715 -26 m 1181 464 q 1109 483 1162 483 q 797 483 897 483 q 815 327 800 411 l 1053 341 q 1101 350 1078 345 q 1167 373 1148 360 q 1181 464 1205 440 m 1151 57 q 1141 132 1155 88 q 1104 194 1129 169 q 1023 238 1074 224 l 999 236 q 841 222 927 224 q 919 86 870 135 q 1003 33 956 50 q 1117 20 1071 9 q 1140 30 1131 24 q 1141 32 1140 31 q 1151 57 1148 38 z "},"?":{"ha":833,"x_min":97,"x_max":737,"o":"m 416 77 q 465 57 444 77 q 485 7 485 36 q 465 -42 485 -22 q 416 -62 444 -62 l 416 -62 q 367 -42 388 -62 q 347 7 347 -22 q 367 57 347 36 q 416 77 388 77 l 416 77 m 97 700 q 106 789 97 747 q 136 874 114 831 q 193 946 158 916 q 284 995 227 976 q 413 1014 340 1014 q 417 1014 414 1014 q 421 1014 420 1014 q 508 1006 467 1014 q 591 976 549 998 q 664 919 633 953 q 715 827 695 885 q 736 694 735 769 q 736 692 736 694 q 736 690 736 690 q 733 647 736 669 q 719 598 729 626 q 691 545 708 571 q 645 493 674 520 q 577 442 616 465 q 458 236 458 372 l 458 139 l 375 139 l 375 236 q 415 394 375 324 q 534 514 455 465 q 552 525 547 522 q 572 540 557 528 q 595 559 587 551 q 616 583 604 568 q 635 614 628 599 q 648 649 642 628 q 653 691 653 669 q 653 693 653 692 q 653 694 653 694 q 646 766 652 733 q 624 830 640 799 q 582 883 608 862 q 516 917 557 904 q 420 931 474 931 q 417 931 419 931 q 413 931 414 931 q 340 924 373 931 q 277 902 308 918 q 226 861 247 886 q 193 794 206 835 q 181 699 181 753 q 181 697 181 699 q 181 694 181 695 l 97 694 q 97 697 97 695 q 97 700 97 699 z "},"@":{"ha":0,"x_min":-417,"x_max":30,"o":"m -399 -236 q -396 -236 -399 -236 q -392 -236 -393 -236 q -242 -249 -313 -236 q -98 -298 -172 -262 q 29 -387 -25 -333 l -29 -446 q -392 -319 -156 -319 q -396 -319 -393 -319 q -399 -319 -399 -319 l -417 -319 l -417 -236 l -399 -236 z "},"A":{"ha":972,"x_min":-1,"x_max":972,"o":"m 839 833 l 839 875 l 881 875 l 972 875 l 972 792 l 922 792 l 922 0 l 839 0 l 839 413 l 697 413 q 599 403 637 413 q 599 370 599 387 q 600 266 599 323 q 600 177 600 208 q 523 156 563 166 q 473 255 490 210 q 456 329 456 301 q 456 336 456 331 q 456 343 456 342 q 461 383 456 364 q 482 424 466 401 q 516 456 496 442 l 516 458 q 479 582 516 543 q 376 622 442 622 q 372 622 375 622 l 367 622 l 364 622 l 361 622 q 276 614 309 622 q 275 385 276 499 l 198 364 q 131 550 131 474 q 135 590 131 571 q 155 631 140 609 q 193 667 169 652 q 185 716 192 695 q 161 756 178 738 q 112 783 143 774 q 0 792 81 792 l 0 875 q 132 863 90 875 q 200 832 174 851 q 244 785 227 813 q 269 727 262 757 q 274 697 273 713 q 361 705 313 705 q 369 705 363 705 q 374 705 369 705 q 379 704 378 704 q 412 702 395 704 q 451 693 429 700 q 493 676 474 687 q 533 645 513 665 q 567 601 553 626 q 590 540 581 576 q 599 488 597 515 q 697 497 642 497 l 839 497 l 839 833 z "},"B":{"ha":833,"x_min":0,"x_max":833,"o":"m 833 875 l 833 792 l 736 792 l 736 783 q 682 453 736 565 q 736 255 736 368 l 736 253 l 736 250 q 733 197 736 223 q 719 141 729 172 q 692 86 708 111 q 646 37 675 61 q 580 -5 617 13 q 486 -32 542 -22 q 365 -42 431 -42 q 116 35 231 -42 l 162 104 q 365 42 256 42 q 501 56 444 42 q 591 99 558 71 q 638 165 624 128 q 653 250 653 201 l 653 252 l 653 254 q 627 378 653 324 q 353 235 481 235 l 349 235 q 337 235 341 235 q 331 235 333 235 q 270 240 300 235 q 208 259 240 245 q 152 294 176 273 q 113 349 128 315 q 97 428 97 384 q 98 441 97 437 q 98 447 98 445 q 100 472 98 459 q 109 504 102 485 q 126 540 115 523 q 156 574 136 557 q 200 604 175 592 q 264 624 226 617 q 347 632 301 632 l 351 632 q 622 524 506 632 q 653 783 653 615 l 653 792 l 0 792 l 0 875 l 833 875 m 580 449 l 572 456 q 351 549 478 549 l 347 549 q 275 542 306 549 q 226 524 244 535 q 198 498 209 513 q 184 469 188 483 q 181 441 181 456 q 181 438 181 440 q 181 428 181 435 q 194 375 181 397 q 230 340 207 352 q 278 324 253 328 q 333 319 303 319 q 338 318 335 319 q 349 318 342 318 l 353 318 q 578 447 451 318 l 580 449 z "},"C":{"ha":833,"x_min":0,"x_max":833,"o":"m 375 139 l 375 140 l 375 142 q 375 143 375 142 q 375 144 375 144 q 350 216 375 196 q 278 236 324 236 l 276 236 l 276 236 l 275 236 q 201 211 222 236 q 181 139 181 186 l 181 138 l 181 136 q 206 62 181 83 q 278 42 231 42 l 375 42 l 375 139 m 833 875 l 833 792 l 736 792 l 736 556 l 736 514 l 694 514 l 278 514 q 206 493 231 514 q 181 419 181 473 l 181 418 l 181 417 q 201 344 181 369 q 274 319 222 319 l 275 319 l 276 319 l 276 319 l 278 319 l 556 319 q 630 308 597 319 q 682 280 663 297 q 714 238 701 262 q 731 192 726 215 q 736 147 736 170 q 736 145 736 146 q 736 143 736 144 l 736 141 l 736 139 q 688 4 736 49 q 556 -42 640 -42 l 278 -42 q 204 -31 236 -42 q 152 -2 172 -19 q 119 39 132 15 q 102 86 107 63 q 97 135 97 110 l 97 137 l 97 139 q 108 213 97 181 q 137 265 119 245 q 150 278 143 272 q 137 290 143 284 q 108 343 119 310 q 97 417 97 375 l 97 419 l 97 421 q 102 469 97 446 q 119 516 107 492 q 152 558 132 540 q 204 586 172 575 q 278 597 236 597 l 653 597 l 653 792 l 0 792 l 0 875 l 833 875 m 438 236 q 453 192 449 214 q 458 147 458 170 q 458 145 458 146 q 458 143 458 144 l 458 141 l 458 139 l 458 42 l 556 42 q 631 65 609 42 q 653 139 653 88 l 653 140 l 653 142 q 653 143 653 142 q 653 144 653 144 q 627 216 653 196 q 556 236 602 236 l 438 236 z "},"D":{"ha":833,"x_min":0,"x_max":833,"o":"m 653 171 q 601 138 628 152 q 422 97 522 97 l 419 97 l 417 97 q 231 156 310 97 q 101 331 151 215 l 92 351 l 104 371 q 167 573 167 464 q 113 792 167 674 l 0 792 l 0 875 l 139 875 l 165 875 l 653 875 l 694 875 l 833 875 l 833 792 l 736 792 l 736 -42 l 653 -42 l 653 171 m 653 290 l 653 792 l 203 792 q 251 573 251 677 q 186 344 251 450 q 417 181 265 181 l 419 181 l 422 181 q 653 290 575 181 z "},"E":{"ha":1042,"x_min":-1,"x_max":1042,"o":"m 1042 875 l 1042 792 l 955 792 q 967 730 967 764 q 953 642 967 690 q 902 518 933 571 q 835 435 872 465 q 805 413 820 423 q 846 304 846 373 q 832 215 846 265 q 788 109 815 155 q 732 35 762 63 q 665 -11 701 7 q 595 -35 628 -28 q 524 -42 561 -42 q 97 692 149 -42 q 94 772 94 733 q 94 788 94 783 q 94 791 94 790 l 0 791 l 0 874 l 99 874 q 101 893 100 884 q 124 992 108 941 q 167 1085 141 1042 q 233 1167 192 1128 q 325 1233 273 1206 q 448 1276 376 1260 q 604 1292 519 1292 q 815 1279 741 1292 q 922 1240 889 1267 q 951 1181 951 1215 l 868 1181 l 869 1175 q 604 1208 829 1208 q 473 1196 533 1208 q 370 1163 414 1184 q 293 1110 327 1141 q 238 1043 260 1078 q 203 965 217 1008 q 183 881 189 922 l 183 874 l 799 875 q 806 875 804 875 l 807 875 l 1042 875 m 178 791 q 178 786 178 790 q 178 772 178 781 q 181 697 178 736 q 210 458 190 565 l 667 458 l 668 458 q 669 458 669 458 q 673 458 672 458 q 794 511 744 458 q 873 664 845 563 q 883 728 883 701 q 876 763 883 749 q 863 778 872 772 q 806 792 846 789 l 178 791 m 228 375 q 524 42 312 42 q 668 90 612 42 q 751 237 724 139 q 763 304 763 276 q 743 357 763 339 q 667 375 723 375 l 228 375 z "},"F":{"ha":1076,"x_min":0,"x_max":1076,"o":"m 979 486 l 979 451 l 945 445 q 762 444 940 444 q 390 444 522 444 q 404 313 392 372 q 449 185 420 236 q 501 117 470 146 q 500 139 500 128 q 515 213 500 181 q 552 265 530 246 q 605 297 575 285 q 662 314 635 310 q 716 319 689 319 q 723 319 717 319 q 738 319 728 319 q 748 319 743 319 q 756 319 753 319 q 760 319 759 319 q 812 315 785 319 q 869 298 839 310 q 924 266 900 285 q 963 214 947 247 q 979 140 978 181 q 977 106 979 122 q 967 72 974 90 q 948 38 960 53 q 917 7 937 22 q 870 -19 897 -8 q 806 -35 844 -29 q 722 -42 768 -42 q 647 -37 683 -42 q 567 -17 610 -32 q 488 20 524 -3 q 417 85 452 44 q 359 180 383 126 q 320 312 335 233 q 306 444 309 373 q 243 444 262 444 q 187 452 212 444 q 105 534 124 472 q 97 590 97 562 q 105 647 98 625 q 187 728 124 709 q 243 736 215 737 q 299 728 278 735 q 381 647 362 709 q 389 590 389 622 l 389 528 q 762 528 527 528 q 896 527 851 528 l 896 792 l 0 792 l 0 875 l 1076 875 l 1076 792 l 979 792 l 979 486 m 306 528 l 306 590 q 301 622 306 609 q 274 649 295 642 q 243 653 263 652 q 212 649 226 653 q 185 622 191 642 q 181 590 181 610 q 185 559 180 573 q 212 532 191 538 q 243 528 224 528 q 306 528 268 528 m 622 53 q 722 42 667 42 q 857 67 817 42 q 896 138 897 92 q 882 187 896 167 q 847 217 869 208 q 803 231 825 227 q 756 235 781 235 q 747 236 749 235 q 738 236 745 236 q 725 236 729 236 q 719 235 721 235 q 672 231 693 235 q 628 217 649 227 q 595 186 608 206 q 583 139 583 167 q 622 53 583 73 z "},"G":{"ha":1111,"x_min":0,"x_max":1110,"o":"m 139 875 l 165 875 l 176 852 q 251 573 251 704 q 183 339 251 447 q 247 220 202 259 q 369 181 292 181 l 371 181 l 374 181 q 442 188 414 181 q 486 209 471 195 q 508 240 501 224 q 514 277 514 256 l 514 278 q 515 522 515 383 q 514 875 515 660 l 597 875 q 598 522 598 702 q 597 278 598 383 l 597 277 q 635 206 597 231 q 764 181 673 181 l 767 181 l 769 181 q 851 189 817 181 q 901 211 885 197 q 924 242 918 226 q 931 275 931 257 l 931 276 l 931 277 l 931 833 l 931 875 l 972 875 l 1110 875 l 1110 792 l 1014 792 l 1014 278 l 1014 276 l 1014 274 l 1014 -42 l 931 -42 l 931 131 q 906 120 919 125 q 840 102 874 107 q 770 97 807 97 l 767 97 l 764 97 q 682 103 719 97 q 620 120 645 110 q 575 145 594 131 q 557 161 565 153 q 548 151 553 156 q 496 119 526 132 q 436 102 466 107 q 374 97 407 97 l 372 97 l 369 97 q 191 158 260 97 q 98 340 122 219 l 94 356 l 104 371 q 167 573 167 464 q 113 792 167 674 l 0 792 l 0 875 l 139 875 z "},"H":{"ha":0,"x_min":-458,"x_max":-97,"o":"m -97 -417 q -97 -417 -97 -417 q -97 -418 -97 -418 q -126 -498 -97 -468 q -207 -528 -155 -528 q -379 -451 -287 -527 q -458 -281 -458 -387 q -458 -279 -458 -281 q -458 -278 -458 -278 q -458 -277 -458 -278 q -458 -276 -458 -276 q -453 -240 -458 -257 q -436 -205 -448 -222 q -402 -177 -425 -187 q -347 -167 -378 -167 l -347 -250 q -369 -255 -364 -250 q -375 -276 -375 -260 q -375 -277 -375 -276 q -375 -278 -375 -278 q -375 -279 -375 -278 q -375 -280 -375 -280 q -326 -387 -375 -347 q -207 -444 -257 -444 q -186 -439 -191 -444 q -181 -417 -181 -434 l -181 -417 l -181 -69 l -97 -69 l -97 -417 z "},"I":{"ha":278,"x_min":-319,"x_max":278,"o":"m 0 792 l 0 875 l 97 875 l 97 1042 q 97 1044 97 1042 q 97 1046 97 1046 q 48 1159 97 1110 q -69 1208 -1 1208 q -187 1159 -138 1208 q -236 1042 -236 1110 l -236 972 l -319 972 l -319 1042 q -246 1218 -319 1145 q -69 1292 -173 1292 q 107 1218 34 1292 q 149 1164 133 1193 q 172 1110 166 1135 q 179 1072 178 1084 q 181 1048 181 1059 q 181 1045 181 1047 q 181 1042 181 1042 l 181 875 l 278 875 l 278 792 l 181 792 l 181 -42 l 97 -42 l 97 792 l 0 792 z "},"J":{"ha":833,"x_min":0,"x_max":833,"o":"m 475 597 q 479 597 476 597 q 483 597 482 597 q 526 594 505 597 q 574 582 548 591 q 622 560 600 574 q 666 523 644 547 q 703 469 688 499 q 727 394 718 438 q 736 296 736 349 q 736 279 736 285 q 735 273 735 274 q 733 230 735 252 q 720 175 730 208 q 694 115 710 143 q 678 90 688 103 q 752 -20 715 41 l 681 -63 q 618 31 649 -12 q 579 6 600 17 q 480 -28 540 -15 q 347 -42 420 -42 l 329 -42 q 236 -31 278 -42 q 170 -4 195 -20 q 128 34 145 13 q 106 74 112 55 q 99 110 99 92 q 98 124 99 122 q 97 139 97 127 q 97 147 97 142 q 114 219 99 188 q 152 270 130 251 q 206 300 175 288 q 264 315 237 311 q 320 319 291 319 q 325 319 321 319 q 329 319 328 319 q 623 158 478 319 q 638 189 631 173 q 649 234 646 213 q 652 277 652 255 q 652 282 652 277 q 653 296 653 287 q 481 514 653 514 q 478 514 481 514 q 475 514 476 514 q 386 536 433 514 q 360 550 373 542 q 340 543 349 547 q 261 524 301 531 q 197 516 222 517 q 147 514 172 514 q 142 514 145 514 q 138 514 138 514 l 138 597 q 141 597 138 597 q 145 597 144 597 q 192 599 169 597 q 250 607 215 601 q 277 613 264 610 q 201 691 238 648 q 118 792 161 735 l 0 792 l 0 875 l 833 875 l 833 792 l 713 792 q 624 704 669 744 q 524 629 570 659 q 469 597 497 612 q 475 597 472 597 m 567 97 q 329 236 444 236 q 325 236 328 236 q 322 236 322 236 q 181 144 183 236 q 181 139 181 141 q 181 129 181 131 q 182 121 182 127 q 188 95 182 108 q 210 70 194 83 q 256 49 225 57 q 329 42 286 42 l 347 42 q 446 50 401 42 q 522 72 491 58 q 567 97 547 83 m 224 792 q 274 733 250 760 q 359 652 322 681 l 371 643 l 398 656 q 483 702 442 676 q 572 770 524 729 l 596 792 l 224 792 z "},"K":{"ha":833,"x_min":0,"x_max":833,"o":"m 139 875 l 165 875 l 176 852 q 250 597 244 718 l 653 597 l 653 833 l 653 875 l 694 875 l 833 875 l 833 792 l 736 792 l 736 -42 l 653 -42 l 653 171 q 601 138 628 152 q 422 97 522 97 l 419 97 l 417 97 q 231 156 310 97 q 101 331 151 215 l 92 351 l 104 371 q 167 573 167 464 q 113 792 167 674 l 0 792 l 0 875 l 139 875 m 653 290 l 653 514 l 247 514 q 186 344 235 424 q 417 181 265 181 l 419 181 l 422 181 q 653 290 575 181 z "},"L":{"ha":1111,"x_min":0,"x_max":1111,"o":"m 1111 875 l 1111 792 l 836 792 q 772 585 822 676 q 943 477 882 547 q 1014 278 1017 392 q 1014 264 1014 272 q 1010 207 1014 235 q 997 149 1006 180 q 971 91 987 117 q 931 39 956 64 q 873 -3 906 15 q 795 -31 841 -21 q 694 -42 749 -42 l 694 42 q 931 266 931 42 q 931 269 931 267 q 931 271 931 271 q 876 427 932 367 q 725 513 826 482 q 578 381 645 424 l 556 367 l 533 381 q 386 513 445 437 q 231 426 283 483 q 175 277 176 368 q 234 98 174 153 q 417 42 295 42 l 417 -42 q 267 -18 331 -42 q 165 49 203 6 q 109 150 126 93 q 92 278 91 208 q 165 477 93 397 q 339 585 227 547 q 275 792 290 676 l 0 792 l 0 875 l 1111 875 m 359 792 q 556 467 390 582 q 752 792 722 582 l 359 792 m 123 33 q 172 13 151 33 q 192 -36 192 -8 q 172 -86 192 -65 q 123 -106 151 -106 l 123 -106 q 74 -86 94 -106 q 53 -36 53 -65 q 74 13 53 -8 q 123 33 94 33 l 123 33 z "},"M":{"ha":0,"x_min":-597,"x_max":-235,"o":"m -596 1046 q -596 1049 -596 1047 q -596 1075 -597 1065 q -592 1105 -595 1085 q -582 1138 -589 1124 q -562 1167 -576 1151 q -531 1194 -549 1184 q -483 1210 -512 1203 q -417 1217 -453 1217 q -336 1206 -371 1217 q -283 1179 -302 1195 q -253 1140 -265 1163 q -239 1100 -242 1118 q -235 1064 -235 1083 q -256 954 -235 1017 l -335 981 q -319 1064 -319 1030 q -340 1116 -319 1099 q -417 1134 -360 1134 q -452 1132 -437 1134 q -477 1126 -467 1129 q -494 1116 -487 1123 q -505 1103 -501 1109 q -511 1088 -509 1098 q -513 1072 -512 1078 q -513 1052 -513 1065 q -497 981 -513 1029 l -576 954 q -589 1004 -583 976 q -596 1046 -596 1033 z "},"N":{"ha":0,"x_min":-70,"x_max":70,"o":"m 0 1042 q 49 1021 28 1042 q 69 972 69 1001 q 49 923 69 944 q 0 903 28 903 l 0 903 q -49 923 -28 903 q -69 972 -69 944 q -49 1021 -69 1001 q 0 1042 -28 1042 l 0 1042 z "},"O":{"ha":0,"x_min":-736,"x_max":-99,"o":"m -182 1047 q -182 1065 -182 1059 q -184 1082 -183 1071 q -189 1098 -186 1092 q -199 1111 -192 1103 q -216 1123 -206 1119 q -242 1129 -226 1126 q -278 1132 -258 1132 q -330 1126 -309 1132 q -359 1109 -350 1120 q -372 1085 -369 1097 q -375 1056 -375 1074 q -360 978 -375 1026 l -439 952 q -458 1053 -458 1013 q -448 1119 -458 1090 q -443 1132 -446 1126 l -486 1132 l -489 1132 l -492 1132 q -560 1136 -528 1132 q -626 1154 -593 1141 q -683 1186 -659 1167 q -721 1238 -706 1206 q -736 1313 -736 1271 l -653 1313 q -646 1276 -653 1292 q -623 1246 -640 1260 q -573 1223 -606 1231 q -491 1215 -540 1215 l -489 1215 l -486 1215 l -278 1215 q -202 1206 -234 1215 q -150 1181 -169 1196 q -119 1142 -131 1165 q -103 1095 -107 1119 q -99 1042 -99 1072 q -117 953 -99 1010 l -196 977 q -182 1047 -182 1024 z "},"P":{"ha":903,"x_min":0,"x_max":903,"o":"m 806 556 l 806 514 l 764 514 l 278 514 l 276 514 l 275 514 q 273 514 274 514 q 272 514 272 514 q 201 489 221 514 q 181 417 181 463 q 181 392 181 403 q 182 374 181 381 q 183 366 183 368 q 185 323 183 345 q 198 268 188 301 q 224 205 208 235 q 272 145 241 176 q 343 92 302 115 q 375 78 358 84 q 368 139 368 105 q 383 214 368 181 q 419 266 397 247 q 471 297 442 285 q 526 314 500 310 q 578 319 552 319 q 584 319 579 319 q 599 319 589 319 q 608 319 603 319 q 614 319 612 319 q 617 319 617 319 q 657 315 636 319 q 706 300 678 312 q 754 269 733 288 q 790 217 775 251 q 806 140 805 183 q 801 93 806 115 q 782 45 797 70 q 744 1 768 19 q 680 -30 721 -17 q 584 -42 639 -42 l 583 -42 q 433 -27 502 -42 q 315 13 364 -12 q 228 72 267 38 q 166 142 190 106 q 127 218 142 178 q 105 292 111 258 q 99 360 99 327 q 99 369 99 362 q 98 389 99 376 q 97 417 97 401 q 108 491 97 458 q 137 543 119 524 q 178 575 155 563 q 224 592 202 588 q 270 597 247 597 q 272 597 271 597 q 274 597 273 597 l 276 597 l 278 597 l 722 597 l 722 792 l 0 792 l 0 875 l 903 875 l 903 792 l 806 792 l 806 556 m 488 49 q 583 42 533 42 l 585 42 q 653 49 625 42 q 696 69 681 56 q 716 99 710 83 q 722 138 722 116 q 712 187 722 167 q 685 217 702 207 q 651 232 669 227 q 613 236 634 236 q 606 236 608 236 q 599 236 605 236 q 586 236 590 236 q 581 236 583 236 q 535 231 556 235 q 494 217 514 227 q 463 186 474 206 q 451 139 451 167 q 490 53 451 73 l 488 49 z "},"Q":{"ha":833,"x_min":0,"x_max":833,"o":"m 653 171 q 601 138 628 152 q 422 97 522 97 l 419 97 l 417 97 q 231 156 310 97 q 101 331 151 215 l 92 351 l 104 371 q 167 573 167 464 q 113 792 167 674 l 0 792 l 0 875 l 139 875 l 165 875 l 653 875 l 694 875 l 833 875 l 833 792 l 736 792 l 736 -42 l 653 -42 l 653 171 m 653 290 l 653 514 l 247 514 q 186 344 235 424 q 417 181 265 181 l 419 181 l 422 181 q 653 290 575 181 m 203 792 q 250 597 245 690 l 653 597 l 653 792 l 203 792 z "},"R":{"ha":0,"x_min":-278,"x_max":38,"o":"m -97 -139 l -97 -141 l -97 -143 q -102 -191 -97 -168 q -119 -238 -107 -215 q -125 -249 -122 -244 q -110 -254 -117 -251 q -57 -282 -82 -265 q -7 -329 -33 -299 q 38 -398 18 -359 l -37 -435 q -205 -319 -95 -319 l -207 -319 l -208 -319 l -278 -319 l -278 -236 q -206 -216 -231 -236 q -181 -142 -181 -195 l -181 -140 l -181 -139 l -181 -69 l -97 -69 l -97 -139 z "},"S":{"ha":972,"x_min":0,"x_max":972,"o":"m 306 375 q 215 338 247 373 q 181 208 181 301 q 192 135 181 160 q 204 118 197 124 q 216 112 211 112 q 224 111 221 112 l 226 111 q 239 113 233 111 q 251 119 246 115 q 306 332 302 153 q 306 347 306 338 l 306 375 m 306 458 l 306 792 l 0 792 l 0 875 l 347 875 l 389 875 l 797 875 l 839 875 l 972 875 l 972 792 l 881 792 l 881 -42 l 797 -42 l 797 375 l 389 375 l 389 347 q 389 331 389 335 q 384 250 388 285 q 372 174 381 215 q 345 100 363 132 q 299 50 326 69 q 260 32 281 38 q 226 28 244 28 q 222 28 223 28 q 209 29 217 29 q 188 33 201 28 q 163 45 175 38 q 137 67 150 51 q 115 103 124 82 q 97 208 97 144 q 113 319 97 272 q 150 392 128 367 q 204 434 173 418 q 260 454 235 449 q 306 458 281 458 m 389 458 l 797 458 l 797 792 l 389 792 l 389 458 m 569 126 q 618 106 597 126 q 638 57 638 85 q 618 7 638 28 q 569 -13 597 -13 l 569 -13 q 520 7 540 -13 q 499 57 499 28 q 520 106 499 85 q 569 126 540 126 l 569 126 z "},"T":{"ha":903,"x_min":0,"x_max":903,"o":"m 724 278 q 724 281 724 278 q 724 284 724 283 q 655 424 724 365 q 451 513 585 483 q 244 423 312 481 q 175 277 177 364 q 175 272 175 276 q 175 267 175 267 q 382 42 175 42 l 556 42 q 625 53 595 42 q 677 92 654 65 q 712 165 700 118 q 724 278 724 212 m 556 -42 l 382 -42 q 263 -23 315 -42 q 180 27 211 -3 q 127 99 148 57 q 99 181 107 140 q 92 265 92 221 q 92 271 92 265 q 92 278 92 277 q 185 480 94 400 q 410 588 265 551 l 410 792 l 0 792 l 0 875 l 903 875 l 903 792 l 493 792 l 493 588 q 581 560 540 576 q 670 515 635 538 q 732 464 706 492 q 772 413 758 436 q 794 363 786 389 q 805 319 803 336 q 807 286 807 303 q 807 282 807 285 q 807 278 807 278 q 798 174 807 221 q 775 94 790 126 q 740 36 760 61 q 697 -3 719 11 q 649 -26 675 -17 q 601 -39 624 -35 q 556 -42 579 -42 z "},"U":{"ha":0,"x_min":-650,"x_max":-79,"o":"m -347 -597 l -382 -597 q -384 -597 -383 -597 q -386 -597 -385 -597 q -649 -520 -542 -597 l -601 -452 q -385 -514 -515 -514 q -384 -514 -385 -514 q -382 -514 -383 -514 l -347 -514 q -128 -452 -214 -514 l -80 -520 q -347 -597 -187 -597 m -347 -319 l -382 -319 q -384 -319 -383 -319 q -386 -319 -385 -319 q -649 -242 -542 -319 l -601 -174 q -385 -236 -515 -236 q -384 -236 -385 -236 q -382 -236 -383 -236 l -347 -236 q -128 -174 -214 -236 l -80 -242 q -347 -319 -187 -319 z "},"V":{"ha":833,"x_min":0,"x_max":833,"o":"m 735 303 q 735 299 735 302 q 736 290 735 295 q 736 278 736 284 q 730 204 736 239 q 701 129 723 169 q 643 60 678 89 q 613 41 630 50 l 666 -81 l 590 -114 l 536 10 q 394 -7 474 -7 l 392 -7 q 298 4 341 -7 q 283 8 290 6 l 322 -81 l 245 -114 l 160 83 q 128 124 141 103 q 101 177 113 149 l 177 209 q 259 109 206 141 q 392 76 312 76 l 394 76 q 594 128 535 76 q 653 278 653 181 q 652 287 653 285 q 652 297 652 289 q 647 334 652 316 q 626 374 642 353 q 586 409 611 394 q 517 434 561 424 q 417 444 474 444 l 278 444 l 278 528 l 417 528 q 514 542 472 528 q 588 587 556 556 q 636 671 619 618 q 653 792 652 722 l 0 792 l 0 875 l 833 875 l 833 792 l 736 792 q 728 696 736 741 q 697 602 719 649 q 640 521 674 555 q 604 493 624 506 q 650 466 629 481 q 691 427 676 447 q 717 385 707 408 q 731 342 727 363 q 735 303 735 322 z "},"W":{"ha":417,"x_min":0,"x_max":417,"o":"m 417 875 l 417 792 l 250 792 l 250 347 l 167 347 l 167 792 l 0 792 l 0 875 l 417 875 m 204 1132 q 254 1111 233 1132 q 274 1063 274 1091 q 254 1014 274 1034 q 205 993 233 993 l 205 993 q 155 1014 176 993 q 135 1063 135 1034 q 155 1111 135 1091 q 204 1132 176 1132 l 204 1132 z "},"X":{"ha":972,"x_min":0,"x_max":972,"o":"m 792 444 l 563 444 l 563 139 l 563 97 l 521 97 q 101 331 203 97 l 92 351 l 104 371 q 167 573 167 464 q 113 792 167 674 l 0 792 l 0 875 l 139 875 l 165 875 l 792 875 l 833 875 l 972 875 l 972 792 l 875 792 l 875 -42 l 792 -42 l 792 444 m 792 528 l 792 792 l 203 792 q 251 573 251 677 q 186 344 251 451 q 479 182 265 194 l 479 486 l 479 528 l 521 528 l 792 528 z "},"Y":{"ha":0,"x_min":-736,"x_max":-97,"o":"m -736 1364 q -735 1377 -735 1369 q -730 1397 -735 1385 q -717 1419 -724 1408 q -693 1442 -710 1431 q -652 1460 -676 1453 q -556 1472 -614 1472 q -403 1455 -472 1472 q -276 1398 -333 1437 q -180 1299 -219 1358 q -119 1153 -140 1239 q -97 958 -97 1067 l -181 958 q -202 1039 -181 1004 q -257 1096 -223 1074 q -337 1131 -290 1117 q -431 1150 -384 1145 q -530 1156 -478 1156 q -534 1156 -531 1156 q -543 1156 -538 1156 q -556 1156 -547 1156 q -629 1147 -603 1155 q -653 1128 -653 1140 l -736 1128 q -714 1189 -736 1163 q -653 1227 -692 1215 q -556 1239 -617 1238 q -542 1239 -547 1239 q -533 1239 -537 1239 q -528 1239 -529 1239 q -208 1164 -322 1239 q -261 1269 -228 1225 q -339 1339 -294 1313 q -437 1377 -384 1365 q -556 1389 -491 1389 q -628 1381 -601 1389 q -643 1375 -637 1378 q -650 1369 -649 1372 q -652 1365 -651 1367 q -653 1362 -653 1363 q -653 1361 -653 1362 l -736 1361 q -736 1364 -736 1364 z "},"Z":{"ha":972,"x_min":0,"x_max":972,"o":"m 875 -42 l 792 -42 l 792 792 l 562 792 l 562 69 q 562 65 562 66 q 561 61 562 65 q 561 52 561 56 q 559 42 560 49 q 555 29 557 35 q 549 16 553 24 q 540 2 545 8 q 528 -11 535 -4 q 512 -23 521 -17 q 491 -32 503 -28 q 464 -39 478 -36 q 426 -42 447 -42 q 364 -27 396 -42 q 301 14 332 -12 q 242 72 269 41 q 183 142 214 102 q 96 417 96 256 q 98 450 96 434 q 108 484 101 465 q 127 518 115 503 q 158 549 138 534 q 202 574 177 564 q 265 591 228 585 q 346 597 301 597 l 478 597 l 478 792 l 0 792 l 0 875 l 972 875 l 972 792 l 875 792 l 875 -42 m 478 514 l 346 514 q 217 489 255 514 q 179 417 179 464 l 179 416 q 250 192 179 285 q 357 75 313 108 q 426 42 401 42 q 451 44 440 42 q 467 48 460 45 q 475 54 473 51 q 477 61 476 57 q 478 68 478 65 q 478 69 478 68 l 478 514 m 129 85 q 178 65 158 85 q 199 16 199 44 q 178 -34 199 -13 q 129 -54 158 -54 l 129 -54 q 80 -34 101 -54 q 60 16 60 -13 q 80 65 60 44 q 129 85 101 85 l 129 85 z "},"[":{"ha":833,"x_min":235,"x_max":320,"o":"m 319 0 l 319 -42 l 236 -42 l 236 0 l 236 833 l 237 875 l 320 875 l 319 833 l 319 0 z "},"\\":{"ha":833,"x_min":0,"x_max":833,"o":"m 736 590 l 736 549 l 694 549 l 278 549 q 194 526 213 547 q 188 517 190 522 q 181 492 181 505 q 181 487 181 490 q 181 483 181 484 q 192 422 181 449 q 222 380 204 395 q 264 355 240 365 q 309 341 288 344 q 351 338 330 338 q 362 337 353 338 q 386 336 372 336 l 416 336 l 694 336 l 694 253 l 417 253 q 341 234 363 251 q 319 183 319 216 l 319 182 l 319 181 q 364 77 319 113 q 517 42 408 42 l 694 42 l 694 -42 l 517 -42 q 395 -27 447 -42 q 313 10 342 -12 q 266 64 284 33 q 242 123 247 96 q 236 181 236 150 l 236 183 l 236 184 q 240 223 236 204 q 257 263 244 242 q 260 268 258 265 q 228 279 244 272 q 181 306 205 288 q 138 347 156 324 q 109 406 120 370 q 97 483 97 441 q 98 490 97 485 q 98 497 98 496 q 115 558 98 527 q 134 583 123 572 q 194 620 160 610 q 278 632 229 631 l 309 632 q 241 792 264 694 l 0 792 l 0 875 l 833 875 l 833 792 l 736 792 l 736 590 m 653 792 l 327 792 q 428 632 359 674 l 653 632 l 653 792 z "},"]":{"ha":833,"x_min":235,"x_max":593,"o":"m 592 2 l 592 -40 l 509 -40 l 509 2 l 510 835 l 510 877 l 593 877 l 593 835 l 592 2 m 319 0 l 319 -42 l 236 -42 l 236 0 l 236 833 l 237 875 l 320 875 l 319 833 l 319 0 z "},"^":{"ha":833,"x_min":0,"x_max":833,"o":"m 139 875 l 165 875 l 176 852 q 250 597 244 718 l 653 597 l 653 833 l 653 875 l 694 875 l 833 875 l 833 792 l 736 792 l 736 -42 l 653 -42 l 653 171 q 601 138 628 152 q 422 97 522 97 l 419 97 l 417 97 q 231 156 310 97 q 101 331 151 215 l 92 351 l 104 371 q 167 573 167 464 q 113 792 167 674 l 0 792 l 0 875 l 139 875 m 653 290 l 653 514 l 247 514 q 186 344 235 424 q 417 181 265 181 l 419 181 l 422 181 q 653 290 575 181 m 129 125 q 178 105 158 125 q 199 55 199 84 q 178 6 199 26 q 129 -15 158 -15 l 129 -15 q 80 6 101 -15 q 60 55 60 26 q 80 105 60 84 q 129 125 101 125 l 129 125 z "},"_":{"ha":278,"x_min":0,"x_max":278,"o":"m 278 875 l 278 792 l 0 792 l 0 875 l 278 875 z "},"`":{"ha":694,"x_min":236,"x_max":319,"o":"m 319 694 l 319 653 l 236 653 l 236 694 l 236 972 l 236 1014 l 319 1014 l 319 972 l 319 694 z "},"a":{"ha":1111,"x_min":0,"x_max":1111,"o":"m 1001 703 q 990 624 1001 667 q 897 438 963 501 q 862 411 880 423 q 901 300 901 370 q 886 201 901 257 q 782 20 853 81 q 604 -42 710 -42 q 271 145 393 -42 q 111 690 149 331 q 104 792 106 743 l 0 792 l 0 875 l 105 875 q 118 993 107 938 q 157 1122 132 1067 q 218 1217 182 1176 q 295 1286 254 1259 q 386 1330 337 1313 q 484 1354 435 1347 q 588 1361 533 1361 q 603 1361 598 1361 q 610 1360 609 1360 q 677 1356 644 1360 q 752 1336 710 1351 q 829 1298 793 1322 q 899 1233 865 1274 q 959 1139 934 1192 q 999 1007 983 1085 q 1013 875 1010 946 l 1111 875 l 1111 792 l 978 792 l 981 788 q 997 743 993 763 q 1001 703 1001 724 m 729 458 q 843 503 799 458 q 910 642 888 549 q 917 702 917 676 q 891 769 917 746 q 799 792 865 792 l 188 792 q 194 699 189 747 q 226 490 206 585 l 233 458 l 729 458 m 729 375 l 256 375 q 272 328 263 351 q 328 210 297 262 q 392 127 360 159 q 461 76 424 96 q 533 49 499 56 q 604 42 567 42 q 731 86 682 42 q 806 224 781 131 q 818 300 818 268 q 799 357 818 338 q 729 375 780 375 m 799 875 l 930 875 q 919 978 928 931 q 889 1090 908 1044 q 844 1169 871 1135 q 789 1224 817 1203 q 728 1256 761 1244 q 666 1273 694 1269 q 608 1277 638 1277 q 601 1277 606 1277 q 588 1278 597 1278 q 453 1264 513 1278 q 343 1217 393 1249 q 258 1133 292 1184 q 206 1006 224 1082 q 188 875 191 947 l 799 875 z "},"b":{"ha":833,"x_min":0,"x_max":833,"o":"m 344 444 q 185 345 247 444 q 417 181 265 181 l 419 181 l 422 181 q 653 290 575 181 l 653 444 q 347 444 526 444 l 346 444 l 344 444 m 224 497 q 103 792 141 580 l 0 792 l 0 875 l 139 875 l 175 875 l 653 875 l 694 875 l 833 875 l 833 792 l 736 792 l 736 -42 l 653 -42 l 653 171 q 601 138 628 152 q 422 97 522 97 l 419 97 l 417 97 q 231 156 310 97 q 101 331 151 215 l 92 349 l 102 367 q 149 435 123 406 q 200 482 175 465 q 224 497 212 490 m 347 528 q 653 528 526 528 l 653 792 l 188 792 q 196 753 192 772 q 219 671 205 714 q 251 597 234 628 q 294 547 269 567 q 347 528 318 528 l 347 528 z "},"c":{"ha":972,"x_min":0,"x_max":972,"o":"m 972 875 l 972 792 l 875 792 l 875 139 l 875 137 l 875 135 q 870 86 875 110 q 853 39 865 63 q 820 -2 840 15 q 768 -31 801 -19 q 694 -42 736 -42 q 626 -38 659 -42 q 553 -22 593 -34 q 479 11 513 -9 q 412 66 445 31 q 356 148 379 101 q 319 264 333 195 q 306 375 309 315 l 243 375 q 187 383 212 375 q 105 465 124 402 q 97 521 98 486 q 105 577 97 549 q 187 659 124 640 q 243 667 208 666 q 299 659 272 667 q 381 577 362 640 q 389 521 387 558 l 389 458 l 792 458 l 792 792 l 0 792 l 0 875 l 972 875 m 792 375 l 390 375 q 403 269 392 317 q 443 162 417 205 q 508 92 469 119 q 592 53 547 65 q 694 42 638 42 q 767 62 742 42 q 792 136 792 83 l 792 138 l 792 139 l 792 375 m 306 458 l 306 521 q 301 552 304 543 q 274 579 295 573 q 243 583 260 584 q 212 579 224 583 q 185 552 191 573 q 181 521 180 538 q 185 490 181 501 q 212 463 191 469 q 243 458 224 458 l 306 458 z "},"d":{"ha":972,"x_min":0,"x_max":972,"o":"m 972 875 l 972 792 l 875 792 l 875 417 l 875 375 l 833 375 l 390 375 q 395 297 390 333 q 418 198 401 247 q 460 116 434 150 q 528 62 486 83 q 625 42 570 42 q 810 104 717 42 l 856 35 q 625 -42 742 -42 q 527 -28 572 -42 q 450 10 482 -14 q 392 68 417 33 q 351 140 367 102 q 324 224 335 178 q 310 314 314 270 q 306 375 307 344 l 243 375 q 187 383 212 375 q 105 465 124 402 q 97 521 97 492 q 105 577 98 556 q 187 659 124 640 q 243 667 215 667 q 299 659 278 666 q 381 577 362 640 q 389 521 389 552 l 389 458 l 792 458 l 792 792 l 0 792 l 0 875 l 972 875 m 306 458 l 306 521 q 301 552 306 540 q 274 579 295 573 q 243 583 263 583 q 212 579 226 584 q 185 552 191 573 q 181 521 181 540 q 185 490 180 503 q 212 463 191 469 q 243 458 221 460 l 306 458 z "},"e":{"ha":833,"x_min":0,"x_max":833,"o":"m 736 556 l 736 514 l 694 514 l 458 514 q 456 514 458 514 q 453 514 453 514 q 182 274 265 514 q 261 99 203 156 q 417 42 318 42 q 665 99 606 42 l 724 40 q 417 -42 639 -42 q 319 -28 364 -42 q 244 5 275 -15 q 189 55 214 25 q 149 112 163 85 q 123 172 134 139 q 106 226 111 206 q 98 271 101 247 l 96 281 l 99 291 q 166 432 126 372 q 251 528 205 492 l 252 529 q 169 792 182 647 l 0 792 l 0 875 l 833 875 l 833 792 l 736 792 l 736 556 m 324 572 q 347 581 335 576 q 451 597 397 597 q 455 597 452 597 q 458 597 458 597 l 653 597 l 653 792 l 253 792 q 324 572 265 671 z "},"f":{"ha":903,"x_min":0,"x_max":903,"o":"m 903 875 l 903 792 l 806 792 q 802 751 805 771 q 789 696 799 726 q 763 641 779 666 q 719 592 747 616 q 661 553 694 569 q 731 501 701 532 q 785 409 764 466 q 806 278 806 351 q 806 271 806 276 q 806 265 806 266 q 801 209 806 236 q 784 150 797 181 q 751 93 771 119 q 698 41 731 66 q 623 -2 665 15 q 518 -31 580 -20 q 383 -42 457 -42 l 381 -42 q 257 -28 310 -42 q 175 6 204 -15 q 127 54 145 26 q 103 107 108 82 q 97 158 97 131 q 112 224 97 195 q 151 271 127 253 q 208 300 175 288 q 273 315 241 311 q 341 319 306 319 q 347 319 342 319 q 351 319 351 319 q 439 305 398 319 q 519 261 481 291 q 592 178 558 231 q 635 97 615 142 q 644 104 640 100 q 703 175 684 134 q 722 267 722 215 q 722 272 722 268 q 722 278 722 276 q 708 375 722 333 q 664 449 694 417 q 582 497 634 481 q 459 514 531 514 q 456 514 458 514 q 453 514 453 514 q 451 514 452 514 l 208 514 l 208 597 l 451 597 l 455 597 q 660 651 599 598 q 722 792 718 701 l 0 792 l 0 875 l 903 875 m 558 63 q 477 188 524 147 q 351 236 422 236 q 347 236 351 236 q 342 236 343 236 q 181 158 181 236 q 226 72 181 102 q 381 42 272 42 l 383 42 q 539 58 473 42 q 558 63 549 60 z "},"g":{"ha":972,"x_min":0,"x_max":972,"o":"m 875 -42 l 792 -42 l 792 792 l 562 792 l 562 69 q 562 65 562 66 q 561 61 562 65 q 561 52 561 56 q 559 42 560 49 q 555 29 557 35 q 549 16 553 24 q 540 2 545 8 q 528 -11 535 -4 q 512 -23 521 -17 q 491 -32 503 -28 q 464 -39 478 -36 q 426 -42 447 -42 q 364 -27 396 -42 q 301 14 332 -12 q 242 72 269 41 q 183 142 214 102 q 96 417 96 256 q 98 450 96 434 q 108 484 101 465 q 127 518 115 503 q 158 549 138 534 q 202 574 177 564 q 265 591 228 585 q 346 597 301 597 l 478 597 l 478 792 l 0 792 l 0 875 l 972 875 l 972 792 l 875 792 l 875 -42 m 478 514 l 346 514 q 217 489 255 514 q 179 417 179 464 l 179 416 q 250 192 179 285 q 357 75 313 108 q 426 42 401 42 q 451 44 440 42 q 467 48 460 45 q 475 54 473 51 q 477 61 476 57 q 478 68 478 65 q 478 69 478 68 l 478 514 z "},"h":{"ha":833,"x_min":0,"x_max":833,"o":"m 736 69 q 736 65 736 66 q 736 61 736 65 q 735 52 735 56 q 733 42 735 49 q 730 29 732 35 q 724 16 728 24 q 715 2 720 8 q 703 -11 710 -4 q 686 -23 695 -17 q 665 -32 678 -28 q 639 -39 653 -36 q 600 -42 621 -42 q 167 145 282 -42 q 97 417 97 259 l 97 419 l 97 421 q 102 469 97 446 q 119 516 107 492 q 152 558 132 540 q 204 586 172 575 q 278 597 236 597 l 278 514 q 206 493 231 514 q 181 419 181 473 l 181 418 l 181 417 q 238 188 181 283 q 600 42 328 42 q 625 44 615 42 q 641 48 635 45 q 649 54 647 51 q 652 61 651 57 q 653 68 653 65 q 653 69 653 68 l 653 792 l 0 792 l 0 875 l 833 875 l 833 792 l 736 792 l 736 69 z "},"i":{"ha":278,"x_min":0,"x_max":597,"o":"m 278 875 l 278 792 l 181 792 l 181 -42 l 97 -42 l 97 792 l 0 792 l 0 875 l 97 875 l 97 1042 q 170 1218 97 1145 q 347 1292 244 1292 q 524 1218 451 1292 q 597 1042 597 1145 l 597 972 l 514 972 l 514 1042 q 465 1159 514 1110 q 347 1208 416 1208 q 230 1159 278 1208 q 181 1042 181 1110 l 181 875 l 278 875 z "},"j":{"ha":972,"x_min":0,"x_max":972,"o":"m 972 875 l 972 792 l 879 792 l 879 -42 l 796 -42 l 796 375 l 389 375 l 389 -42 l 306 -42 l 306 375 l 243 375 q 187 383 212 376 q 105 465 124 403 q 97 521 98 487 q 105 576 97 549 q 185 658 124 638 q 240 667 204 665 l 243 667 l 244 667 l 246 667 q 301 658 276 667 q 381 576 363 638 q 389 521 387 558 l 389 458 l 796 458 l 796 792 l 0 792 l 0 875 l 972 875 m 306 458 l 306 521 q 301 552 304 543 q 275 579 295 572 q 245 583 263 583 l 244 583 l 243 583 l 241 583 q 211 579 220 582 q 185 552 191 572 q 181 521 180 538 q 185 490 181 501 q 212 463 191 469 q 243 458 224 459 l 306 458 z "},"k":{"ha":833,"x_min":0,"x_max":833,"o":"m 736 763 l 736 756 l 736 749 q 670 352 736 477 q 736 74 736 233 l 736 72 l 736 69 l 736 -42 l 653 -42 l 653 69 l 653 72 l 653 74 q 613 279 653 190 q 347 129 459 129 l 333 129 l 332 129 l 330 129 q 158 192 227 129 q 97 347 97 248 q 165 531 97 463 q 333 597 231 597 l 347 597 q 614 434 483 597 q 631 492 623 460 q 653 749 653 592 l 653 756 l 653 763 l 653 792 l 0 792 l 0 875 l 833 875 l 833 792 l 736 792 l 736 763 m 570 354 l 569 356 q 347 514 452 514 l 333 514 q 224 472 265 514 q 181 347 181 428 q 215 253 181 285 q 331 213 259 213 l 332 213 l 333 213 l 347 213 q 570 354 430 213 z "},"l":{"ha":1111,"x_min":0,"x_max":1111,"o":"m 1111 875 l 1111 792 l 836 792 q 772 585 822 676 q 943 477 882 547 q 1014 278 1017 392 q 1014 264 1014 272 q 1010 207 1014 235 q 997 149 1006 180 q 971 91 987 117 q 931 39 956 64 q 873 -3 906 15 q 795 -31 841 -21 q 694 -42 749 -42 l 694 42 q 931 266 931 42 q 931 269 931 267 q 931 271 931 271 q 876 427 932 367 q 725 513 826 482 q 578 381 645 424 l 556 367 l 533 381 q 386 513 445 437 q 231 426 283 483 q 175 277 176 368 q 234 98 174 153 q 417 42 295 42 l 417 -42 q 267 -18 331 -42 q 165 49 203 6 q 109 150 126 93 q 92 278 91 208 q 165 477 93 397 q 339 585 227 547 q 275 792 290 676 l 0 792 l 0 875 l 1111 875 m 359 792 q 556 467 390 582 q 752 792 722 582 l 359 792 z "},"m":{"ha":972,"x_min":0,"x_max":972,"o":"m 347 875 l 389 875 l 389 833 l 389 458 l 792 458 l 792 833 l 792 875 l 833 875 l 972 875 l 972 792 l 875 792 l 875 -42 l 792 -42 l 792 375 l 389 375 l 389 347 q 389 331 389 335 q 384 250 388 285 q 372 174 381 215 q 345 100 363 132 q 299 50 326 69 q 260 32 281 38 q 226 28 244 28 q 222 28 223 28 q 209 29 217 29 q 188 33 201 28 q 163 45 175 38 q 137 67 150 51 q 115 103 124 82 q 97 208 97 144 q 113 319 97 272 q 150 392 128 367 q 204 434 173 418 q 260 454 235 449 q 306 458 281 458 l 306 792 l 0 792 l 0 875 l 347 875 m 306 375 q 215 338 247 373 q 181 208 181 301 q 192 135 181 160 q 204 118 197 124 q 216 112 211 112 q 224 111 221 112 l 226 111 q 239 113 233 111 q 251 119 246 115 q 306 332 302 153 q 306 347 306 338 l 306 375 z "},"n":{"ha":903,"x_min":0,"x_max":903,"o":"m 92 278 q 183 480 93 400 q 410 588 265 551 l 410 792 l 0 792 l 0 875 l 903 875 l 903 792 l 493 792 l 493 588 q 581 560 540 576 q 670 515 635 538 q 732 464 706 492 q 772 413 758 436 q 794 363 786 389 q 805 319 803 336 q 807 286 807 303 q 807 282 807 285 q 807 278 807 278 q 799 173 807 220 q 779 93 792 126 q 749 36 767 60 q 712 -3 731 11 q 671 -27 693 -18 q 630 -39 649 -35 q 590 -42 611 -42 l 590 42 q 645 54 622 42 q 687 93 669 66 q 714 166 705 119 q 724 278 724 213 q 724 281 724 278 q 724 284 724 283 q 655 424 724 365 q 451 513 585 483 q 243 422 311 481 q 175 277 176 363 q 184 165 174 212 q 213 92 194 119 q 256 53 231 65 q 313 42 281 42 l 313 -42 q 272 -39 292 -42 q 230 -26 253 -35 q 188 -3 207 -17 q 150 36 168 11 q 119 93 131 61 q 99 173 106 126 q 92 278 91 221 z "},"o":{"ha":0,"x_min":-736,"x_max":-97,"o":"m -347 1125 l -486 1125 q -489 1125 -487 1125 q -492 1125 -492 1125 q -561 1130 -528 1125 q -626 1147 -593 1135 q -683 1180 -659 1160 q -721 1232 -706 1199 q -736 1306 -736 1264 l -653 1306 q -646 1270 -653 1285 q -623 1239 -640 1254 q -573 1216 -606 1224 q -491 1208 -540 1208 q -489 1208 -491 1208 q -486 1208 -487 1208 l -347 1208 q -233 1190 -282 1208 q -155 1138 -184 1172 q -111 1059 -126 1103 q -97 958 -97 1014 l -181 958 q -219 1083 -181 1042 q -347 1125 -258 1125 z "},"p":{"ha":833,"x_min":0,"x_max":833,"o":"m 139 875 l 165 875 l 176 852 q 251 573 251 704 q 186 344 251 450 q 417 181 265 181 l 419 181 l 422 181 q 653 290 575 181 l 653 833 l 653 875 l 694 875 l 833 875 l 833 792 l 736 792 l 736 -42 l 653 -42 l 653 171 q 601 138 628 152 q 422 97 522 97 l 419 97 l 417 97 q 231 156 310 97 q 101 331 151 215 l 92 351 l 104 371 q 167 573 167 464 q 113 792 167 674 l 0 792 l 0 875 l 139 875 z "},"q":{"ha":972,"x_min":0,"x_max":972,"o":"m 972 875 l 972 792 l 875 792 q 777 538 872 626 q 715 492 749 511 q 776 460 749 478 q 875 260 875 392 q 875 257 875 260 q 875 253 875 254 q 871 200 875 226 q 855 143 867 174 q 824 88 843 113 q 773 38 805 62 q 699 -4 741 13 q 597 -31 657 -21 q 464 -42 537 -42 l 461 -42 q 101 142 178 -42 l 177 174 q 461 42 233 42 l 464 42 q 792 255 792 42 q 792 258 792 256 q 792 260 792 260 q 776 336 792 303 q 725 394 760 369 q 631 432 690 419 q 490 444 572 444 l 486 444 l 278 444 l 278 528 l 486 528 l 490 528 q 631 547 572 528 q 726 604 692 567 q 776 690 760 642 q 792 792 790 735 l 0 792 l 0 875 l 972 875 z "},"r":{"ha":764,"x_min":0,"x_max":764,"o":"m 667 69 q 667 65 667 66 q 666 61 667 65 q 666 52 666 56 q 664 42 665 49 q 660 29 663 35 q 655 16 658 24 q 646 2 651 8 q 633 -11 641 -4 q 617 -23 626 -17 q 596 -32 608 -28 q 569 -39 583 -36 q 531 -42 551 -42 q 171 144 294 -42 q 114 271 132 203 q 96 401 96 340 q 96 417 96 403 q 96 419 96 417 q 96 422 96 422 q 101 469 96 447 q 118 516 106 492 q 151 558 131 540 q 203 586 170 575 q 278 597 236 597 l 583 597 l 583 792 l 0 792 l 0 875 l 764 875 l 764 792 l 667 792 l 667 69 m 583 514 l 278 514 q 205 493 230 514 q 179 421 179 473 l 179 419 l 179 417 q 179 402 179 406 q 194 295 179 351 q 240 190 208 238 q 531 42 338 42 q 556 44 545 42 q 572 48 566 45 q 580 54 578 51 q 583 61 582 57 q 583 68 584 65 q 583 69 583 68 l 583 514 z "},"s":{"ha":972,"x_min":0,"x_max":972,"o":"m 306 375 q 215 338 247 373 q 181 208 181 301 q 192 135 181 160 q 204 118 197 124 q 216 112 211 112 q 224 111 221 112 l 226 111 q 239 113 233 111 q 251 119 246 115 q 306 332 302 153 q 306 347 306 338 l 306 375 m 306 458 l 306 792 l 0 792 l 0 875 l 347 875 l 389 875 l 797 875 l 839 875 l 972 875 l 972 792 l 881 792 l 881 -42 l 797 -42 l 797 375 l 389 375 l 389 347 q 389 331 389 335 q 384 250 388 285 q 372 174 381 215 q 345 100 363 132 q 299 50 326 69 q 260 32 281 38 q 226 28 244 28 q 222 28 223 28 q 209 29 217 29 q 188 33 201 28 q 163 45 175 38 q 137 67 150 51 q 115 103 124 82 q 97 208 97 144 q 113 319 97 272 q 150 392 128 367 q 204 434 173 418 q 260 454 235 449 q 306 458 281 458 m 389 458 l 797 458 l 797 792 l 389 792 l 389 458 z "},"t":{"ha":903,"x_min":0,"x_max":903,"o":"m 804 529 l 804 465 l 745 491 l 715 505 q 522 552 612 552 q 188 341 333 552 q 488 42 294 42 q 726 156 676 42 l 802 122 q 488 -42 730 -42 q 102 334 228 -42 l 96 353 l 107 370 q 522 635 281 635 q 721 593 617 635 l 722 792 l 0 792 l 0 875 l 903 875 l 903 792 l 806 792 l 804 529 z "},"u":{"ha":0,"x_min":-650,"x_max":-79,"o":"m -347 -319 l -382 -319 q -384 -319 -383 -319 q -386 -319 -385 -319 q -649 -242 -542 -319 l -601 -174 q -385 -236 -515 -236 q -384 -236 -385 -236 q -382 -236 -383 -236 l -347 -236 q -128 -174 -214 -236 l -80 -242 q -347 -319 -187 -319 z "},"v":{"ha":833,"x_min":0,"x_max":833,"o":"m 736 590 l 736 549 l 694 549 l 278 549 q 194 526 213 547 q 188 517 190 522 q 181 492 181 505 q 181 487 181 490 q 181 483 181 484 q 192 422 181 449 q 222 380 204 395 q 264 355 240 365 q 309 341 288 344 q 351 338 330 338 q 362 337 353 338 q 386 336 372 336 l 416 336 l 694 336 l 694 253 l 417 253 q 341 234 363 251 q 319 183 319 216 l 319 182 l 319 181 q 364 77 319 113 q 517 42 408 42 l 694 42 l 694 -42 l 517 -42 q 395 -27 447 -42 q 313 10 342 -12 q 266 64 284 33 q 242 123 247 96 q 236 181 236 150 l 236 183 l 236 184 q 240 223 236 204 q 257 263 244 242 q 260 268 258 265 q 228 279 244 272 q 181 306 205 288 q 138 347 156 324 q 109 406 120 370 q 97 483 97 441 q 98 490 97 485 q 98 497 98 496 q 115 558 98 527 q 134 583 123 572 q 194 620 160 610 q 278 632 229 631 l 653 632 l 653 792 l 0 792 l 0 875 l 833 875 l 833 792 l 736 792 l 736 590 z "},"w":{"ha":417,"x_min":0,"x_max":417,"o":"m 417 875 l 417 792 l 250 792 l 250 347 l 167 347 l 167 792 l 0 792 l 0 875 l 417 875 z "},"x":{"ha":1042,"x_min":0,"x_max":1042,"o":"m 1042 875 l 1042 792 l 609 792 q 642 753 628 773 q 681 688 663 724 q 903 667 767 667 l 903 583 q 715 597 797 583 q 726 547 722 572 q 734 491 732 513 q 735 451 735 469 q 736 445 735 449 q 736 433 736 441 q 736 417 736 426 l 656 403 q 597 484 636 455 q 486 514 557 514 q 483 514 485 514 q 479 514 480 514 q 392 504 433 514 q 324 478 352 494 q 272 441 296 463 q 234 398 249 418 q 208 352 220 377 q 192 311 197 326 q 182 278 187 296 q 288 101 214 160 q 486 42 363 42 q 760 59 669 42 q 874 99 851 76 l 932 40 q 785 -21 892 -1 q 486 -42 678 -42 q 236 36 335 -42 q 99 267 138 113 l 96 278 l 99 288 q 144 408 115 355 q 209 495 173 460 q 290 554 245 531 q 381 587 334 577 q 478 597 427 597 q 482 597 479 597 q 486 597 485 597 q 640 556 578 597 q 633 581 637 569 q 620 619 628 599 q 446 792 468 670 l 0 792 l 0 875 l 1042 875 z "},"y":{"ha":0,"x_min":-736,"x_max":-97,"o":"m -548 1160 q -556 1160 -556 1160 q -629 1151 -606 1158 q -653 1132 -653 1144 l -736 1132 q -714 1193 -736 1167 q -653 1231 -692 1219 q -556 1243 -619 1242 q -548 1243 -556 1243 q -400 1233 -467 1243 q -287 1207 -333 1223 q -206 1167 -241 1190 q -151 1118 -171 1143 q -118 1064 -131 1094 q -101 1010 -106 1035 q -97 958 -97 985 l -181 958 q -548 1160 -181 1160 z "},"z":{"ha":972,"x_min":-70,"x_max":972,"o":"m 972 875 l 972 792 l 879 792 l 879 -42 l 796 -42 l 796 375 l 389 375 l 389 -42 l 306 -42 l 306 375 l 243 375 q 187 383 212 376 q 105 465 124 403 q 97 521 98 487 q 105 576 97 549 q 185 658 124 638 q 240 667 204 665 l 243 667 l 244 667 l 246 667 q 301 658 276 667 q 381 576 363 638 q 389 521 387 558 l 389 458 l 796 458 l 796 792 l 0 792 l 0 875 l 972 875 m 306 458 l 306 521 q 301 552 304 543 q 275 579 295 572 q 245 583 263 583 l 244 583 l 243 583 l 241 583 q 211 579 220 582 q 185 552 191 572 q 181 521 180 538 q 185 490 181 501 q 212 463 191 469 q 243 458 224 459 l 306 458 m 0 -69 q 49 -89 28 -69 q 69 -139 69 -110 q 49 -188 69 -167 q 0 -208 28 -208 l 0 -208 q -49 -188 -28 -208 q -69 -139 -69 -167 q -49 -89 -69 -110 q 0 -69 -28 -69 l 0 -69 z "},"{":{"ha":833,"x_min":295,"x_max":573,"o":"m 570 931 q 496 906 517 931 q 476 833 476 881 l 476 556 l 476 553 l 476 551 q 471 503 476 526 q 453 456 466 480 q 422 415 441 433 q 433 406 428 411 q 463 353 451 386 q 476 278 474 321 l 476 0 l 476 -1 l 476 -3 q 476 -5 476 -3 q 476 -6 476 -6 q 501 -77 476 -57 q 573 -97 526 -97 l 573 -181 q 499 -169 531 -181 q 447 -141 466 -158 q 415 -99 427 -123 q 397 -53 402 -76 q 392 -8 392 -31 q 392 -6 392 -7 q 392 -4 392 -5 l 392 -2 l 392 0 l 392 277 q 371 349 391 324 q 298 375 351 375 q 298 375 298 375 q 297 375 298 375 q 297 375 297 375 l 295 375 l 295 458 l 297 458 q 367 479 343 459 q 392 553 392 499 l 392 554 l 392 556 l 392 833 q 403 907 392 875 q 432 959 415 940 q 473 992 449 979 q 520 1009 497 1004 q 569 1014 544 1014 l 571 1014 l 573 1014 l 573 931 l 572 931 l 570 931 z "},"|":{"ha":833,"x_min":0,"x_max":833,"o":"m 181 597 l 350 597 q 642 532 549 597 q 736 349 736 466 l 736 307 l 736 305 l 736 303 q 730 255 736 281 q 709 196 724 230 q 662 121 694 162 l 650 106 l 773 -12 l 716 -72 l 592 47 l 583 38 q 329 -42 494 -42 l 304 -42 q 144 15 202 -42 q 97 139 97 62 l 97 140 l 97 141 q 144 260 97 213 q 303 319 200 316 l 334 319 l 335 319 l 336 319 q 508 244 388 319 q 509 243 508 244 q 511 242 510 242 q 529 224 512 242 l 566 188 q 585 169 585 169 l 590 164 q 653 305 653 239 l 653 306 l 653 307 l 653 349 q 582 471 653 428 q 350 514 512 514 l 139 514 l 97 514 l 97 556 l 97 792 l 0 792 l 0 875 l 833 875 l 833 792 l 181 792 l 181 597 m 463 174 q 376 222 407 208 q 334 236 344 236 q 319 236 333 236 q 305 236 306 236 q 203 201 236 234 q 181 140 181 179 l 181 140 l 181 139 q 203 75 181 97 q 304 42 236 42 l 329 42 q 528 101 462 42 l 532 104 l 526 109 l 489 146 q 469 167 474 162 l 463 173 l 463 174 m 463 174 q 461 175 462 175 q 463 174 461 175 z "},"}":{"ha":833,"x_min":278,"x_max":556,"o":"m 282 1014 q 330 1009 307 1014 q 377 992 353 1004 q 419 959 401 979 q 447 907 436 940 q 458 833 458 875 l 458 556 l 458 554 l 458 553 q 483 479 458 499 q 553 458 508 459 q 556 458 555 458 l 556 375 l 554 375 q 553 375 554 375 q 553 375 553 375 q 553 375 553 375 q 480 349 500 375 q 458 277 460 324 l 458 0 l 458 -2 l 458 -4 q 458 -6 458 -5 q 458 -8 458 -7 q 454 -52 458 -30 q 437 -98 449 -74 q 406 -139 425 -122 q 353 -169 386 -157 q 278 -181 320 -181 l 278 -97 q 350 -77 324 -97 q 375 -6 375 -57 q 375 -5 375 -6 q 375 -3 375 -3 l 375 -1 l 375 0 l 375 278 q 388 353 376 321 q 418 406 400 386 q 428 415 423 411 q 397 456 410 433 q 380 503 385 480 q 375 551 375 526 l 375 553 l 375 556 l 375 833 q 355 906 375 881 q 281 931 334 931 l 279 931 l 278 931 l 278 1014 l 280 1014 l 282 1014 z "},"~":{"ha":556,"x_min":0,"x_max":556,"o":"m 556 875 l 556 792 l 0 792 l 0 875 l 556 875 m 456 1087 q 278 1022 382 1022 l 278 1022 l 277 1022 q 99 1087 174 1022 q 22 1250 22 1154 l 106 1250 q 153 1150 106 1192 q 278 1106 204 1106 l 278 1106 q 402 1150 351 1106 q 450 1250 450 1192 l 533 1250 q 456 1087 533 1154 z "},"":{"ha":694,"x_min":139,"x_max":558,"o":"m 542 792 q 538 792 541 792 q 534 792 535 792 q 446 781 483 792 q 379 742 408 769 q 335 669 350 715 q 322 597 325 638 l 417 597 l 417 514 l 319 514 l 319 319 l 417 319 l 417 236 l 319 236 q 276 42 315 113 l 556 42 l 556 -42 l 139 -42 l 139 42 q 236 236 229 42 l 139 236 l 139 319 l 236 319 l 236 514 l 139 514 l 139 597 l 238 597 q 314 795 247 726 q 534 876 391 876 q 539 876 535 876 q 543 876 542 876 q 558 875 548 876 l 554 792 q 542 792 545 792 z "},"":{"ha":833,"x_min":94,"x_max":739,"o":"m 248 583 q 178 417 178 515 q 248 250 178 319 q 417 181 318 181 q 585 250 515 181 q 656 417 656 319 q 585 583 656 515 q 417 653 515 653 q 248 583 318 653 m 162 221 q 94 417 94 305 q 162 613 94 528 l 109 665 l 169 724 l 221 671 q 417 736 306 736 q 613 671 528 736 l 665 723 l 724 665 l 672 612 q 739 417 739 528 q 672 221 739 305 l 724 168 l 665 110 l 613 163 q 417 97 528 97 q 222 163 306 97 l 168 109 l 110 169 l 162 221 z "},"":{"ha":0,"x_min":-458,"x_max":-97,"o":"m -97 -139 l -97 -181 l -139 -181 l -347 -181 q -370 -185 -365 -181 q -375 -201 -375 -189 l -375 -203 q -369 -230 -375 -224 q -347 -236 -362 -236 l -97 -236 l -97 -319 l -231 -319 q -216 -349 -226 -337 q -144 -375 -196 -375 q -143 -375 -144 -375 q -142 -375 -142 -375 l -140 -375 l -97 -375 l -97 -458 l -141 -458 l -143 -458 q -145 -458 -144 -458 q -147 -458 -146 -458 q -191 -454 -169 -458 q -236 -437 -212 -449 q -278 -406 -260 -425 q -308 -353 -296 -386 q -316 -319 -313 -337 l -347 -319 q -430 -287 -401 -319 q -458 -203 -458 -255 l -458 -201 q -428 -124 -458 -151 q -347 -97 -397 -97 l -181 -97 l -181 -69 l -97 -69 l -97 -139 z "},"":{"ha":833,"x_min":235,"x_max":320,"o":"m 319 0 l 319 -42 l 236 -42 l 236 0 l 236 833 l 237 875 l 320 875 l 319 833 l 319 0 z "},"":{"ha":833,"x_min":235,"x_max":593,"o":"m 592 2 l 592 -40 l 509 -40 l 509 2 l 510 835 l 510 877 l 593 877 l 593 835 l 592 2 m 319 0 l 319 -42 l 236 -42 l 236 0 l 236 833 l 237 875 l 320 875 l 319 833 l 319 0 z "},"":{"ha":0,"x_min":-319,"x_max":319,"o":"m -1 1319 q 48 1299 28 1319 q 69 1250 69 1278 q 48 1201 69 1222 q -1 1181 28 1181 l -1 1181 q -50 1201 -30 1181 q -71 1250 -71 1222 q -50 1299 -71 1278 q -1 1319 -30 1319 l -1 1319 m 224 1076 q 0 994 131 994 q -224 1076 -131 994 q -319 1278 -319 1159 l -236 1278 q -169 1138 -236 1197 q 0 1078 -100 1078 q 169 1138 100 1078 q 236 1278 236 1197 l 319 1278 q 224 1076 319 1159 z "},"":{"ha":0,"x_min":-70,"x_max":70,"o":"m 0 1042 q 49 1021 28 1042 q 69 972 69 1001 q 49 923 69 944 q 0 903 28 903 l 0 903 q -49 923 -28 903 q -69 972 -69 944 q -49 1021 -69 1001 q 0 1042 -28 1042 l 0 1042 z "},"":{"ha":833,"x_min":236,"x_max":597,"o":"m 236 139 q 236 176 236 139 q 289 266 236 213 q 417 319 342 319 q 544 266 492 319 q 597 139 597 213 q 544 11 597 64 q 417 -42 492 -42 q 289 11 342 -42 q 236 139 236 64 m 348 208 q 334 193 348 208 q 319 139 319 179 q 348 70 319 98 q 417 42 376 42 q 485 70 457 42 q 514 139 514 98 q 485 208 514 179 q 417 236 457 236 q 348 208 376 236 m 236 694 q 236 732 236 694 q 289 822 236 769 q 417 875 342 875 q 544 822 492 875 q 597 694 597 769 q 544 567 597 619 q 417 514 492 514 q 289 567 342 514 q 236 694 236 619 m 348 763 q 334 749 348 763 q 319 694 319 735 q 348 626 319 654 q 417 597 376 597 q 485 626 457 597 q 514 694 514 654 q 485 763 514 735 q 417 792 457 792 q 348 763 376 792 z "},"":{"ha":972,"x_min":-1,"x_max":972,"o":"m 839 833 l 839 875 l 881 875 l 972 875 l 972 792 l 922 792 l 922 0 l 839 0 l 839 413 l 697 413 q 599 403 637 413 q 599 370 599 387 q 600 266 599 323 q 600 177 600 208 q 523 156 563 166 q 473 255 490 210 q 456 329 456 301 q 456 336 456 331 q 456 343 456 342 q 461 383 456 364 q 482 424 466 401 q 516 456 496 442 l 516 458 q 479 582 516 543 q 376 622 442 622 q 372 622 375 622 l 367 622 l 364 622 l 361 622 q 276 614 309 622 q 275 385 276 499 l 198 364 q 131 550 131 474 q 135 590 131 571 q 155 631 140 609 q 193 667 169 652 q 185 716 192 695 q 161 756 178 738 q 112 783 143 774 q 0 792 81 792 l 0 875 q 132 863 90 875 q 200 832 174 851 q 244 785 227 813 q 269 727 262 757 q 274 697 273 713 q 361 705 313 705 q 369 705 363 705 q 374 705 369 705 q 379 704 378 704 q 412 702 395 704 q 451 693 429 700 q 493 676 474 687 q 533 645 513 665 q 567 601 553 626 q 590 540 581 576 q 599 488 597 515 q 697 497 642 497 l 839 497 l 839 833 z "},"":{"ha":1389,"x_min":-1,"x_max":1389,"o":"m 1389 875 l 1389 792 l 1222 792 l 1222 347 l 1139 347 l 1139 792 l 972 792 l 972 875 l 1389 875 m 839 833 l 839 875 l 881 875 l 972 875 l 972 792 l 922 792 l 922 0 l 839 0 l 839 413 l 697 413 q 599 403 637 413 q 599 370 599 387 q 600 266 599 323 q 600 177 600 208 q 523 156 563 166 q 473 255 490 210 q 456 329 456 301 q 456 336 456 331 q 456 343 456 342 q 461 383 456 364 q 482 424 466 401 q 516 456 496 442 l 516 458 q 479 582 516 543 q 376 622 442 622 q 372 622 375 622 l 367 622 l 364 622 l 361 622 q 276 614 309 622 q 275 385 276 499 l 198 364 q 131 550 131 474 q 135 590 131 571 q 155 631 140 609 q 193 667 169 652 q 185 716 192 695 q 161 756 178 738 q 112 783 143 774 q 0 792 81 792 l 0 875 q 132 863 90 875 q 200 832 174 851 q 244 785 227 813 q 269 727 262 757 q 274 697 273 713 q 361 705 313 705 q 369 705 363 705 q 374 705 369 705 q 379 704 378 704 q 412 702 395 704 q 451 693 429 700 q 493 676 474 687 q 533 645 513 665 q 567 601 553 626 q 590 540 581 576 q 599 488 597 515 q 697 497 642 497 l 839 497 l 839 833 z "},"":{"ha":1111,"x_min":0,"x_max":1111,"o":"m 278 875 l 278 792 l 181 792 l 181 -42 l 97 -42 l 97 792 l 0 792 l 0 875 l 97 875 l 97 1042 q 170 1218 97 1145 q 347 1292 244 1292 q 524 1218 451 1292 q 597 1042 597 1145 l 597 972 l 514 972 l 514 1042 q 465 1159 514 1110 q 347 1208 416 1208 q 230 1159 278 1208 q 181 1042 181 1110 l 181 875 l 278 875 m 1014 556 l 1014 514 l 972 514 l 736 514 q 733 514 735 514 q 731 514 731 514 q 460 274 543 514 q 539 99 481 156 q 694 42 596 42 q 943 99 883 42 l 1001 40 q 694 -42 917 -42 q 597 -28 642 -42 q 522 5 553 -15 q 466 55 492 25 q 426 112 441 85 q 400 172 412 139 q 384 226 389 206 q 376 271 379 247 l 374 281 l 377 291 q 443 432 404 372 q 528 528 483 492 l 530 529 q 447 792 460 647 l 278 792 l 278 875 l 1111 875 l 1111 792 l 1014 792 l 1014 556 m 602 572 q 625 581 613 576 q 729 597 675 597 q 733 597 730 597 q 736 597 735 597 l 931 597 l 931 792 l 531 792 q 602 572 543 671 z "},"":{"ha":1111,"x_min":0,"x_max":1111,"o":"m 736 556 l 736 514 l 694 514 l 458 514 q 456 514 458 514 q 453 514 453 514 q 182 274 265 514 q 261 99 203 156 q 417 42 318 42 q 665 99 606 42 l 724 40 q 417 -42 639 -42 q 319 -28 364 -42 q 244 5 275 -15 q 189 55 214 25 q 149 112 163 85 q 123 172 134 139 q 106 226 111 206 q 98 271 101 247 l 96 281 l 99 291 q 166 432 126 372 q 251 528 205 492 l 252 529 q 169 792 182 647 l 0 792 l 0 875 l 833 875 l 833 792 l 736 792 l 736 556 m 324 572 q 347 581 335 576 q 451 597 397 597 q 455 597 452 597 q 458 597 458 597 l 653 597 l 653 792 l 253 792 q 324 572 265 671 m 833 792 l 833 875 l 931 875 l 931 1042 q 931 1044 931 1042 q 931 1046 931 1046 q 882 1159 931 1110 q 764 1208 833 1208 q 646 1159 695 1208 q 597 1042 597 1110 l 597 972 l 514 972 l 514 1042 q 587 1218 514 1145 q 764 1292 660 1292 q 940 1218 867 1292 q 983 1164 966 1193 q 1005 1110 999 1135 q 1013 1072 1011 1084 q 1014 1048 1014 1059 q 1014 1045 1014 1047 q 1014 1042 1014 1042 l 1014 875 l 1111 875 l 1111 792 l 1014 792 l 1014 -42 l 931 -42 l 931 792 l 833 792 z "},"":{"ha":1111,"x_min":0,"x_max":1111,"o":"m 608 -214 l 574 -214 q 572 -214 573 -214 q 569 -214 570 -214 q 306 -137 414 -214 l 355 -69 q 570 -131 440 -131 q 572 -131 570 -131 q 574 -131 573 -131 l 608 -131 q 827 -69 742 -131 l 876 -137 q 608 -214 768 -214 m 1001 703 q 990 624 1001 667 q 897 438 963 501 q 862 411 880 423 q 901 300 901 370 q 886 201 901 257 q 782 20 853 81 q 604 -42 710 -42 q 271 145 393 -42 q 111 690 149 331 q 104 792 106 743 l 0 792 l 0 875 l 105 875 q 118 993 107 938 q 157 1122 132 1067 q 218 1217 182 1176 q 295 1286 254 1259 q 386 1330 337 1313 q 484 1354 435 1347 q 588 1361 533 1361 q 603 1361 598 1361 q 610 1360 609 1360 q 677 1356 644 1360 q 752 1336 710 1351 q 829 1298 793 1322 q 899 1233 865 1274 q 959 1139 934 1192 q 999 1007 983 1085 q 1013 875 1010 946 l 1111 875 l 1111 792 l 978 792 l 981 788 q 997 743 993 763 q 1001 703 1001 724 m 729 458 q 843 503 799 458 q 910 642 888 549 q 917 702 917 676 q 891 769 917 746 q 799 792 865 792 l 188 792 q 194 699 189 747 q 226 490 206 585 l 233 458 l 729 458 m 729 375 l 256 375 q 272 328 263 351 q 328 210 297 262 q 392 127 360 159 q 461 76 424 96 q 533 49 499 56 q 604 42 567 42 q 731 86 682 42 q 806 224 781 131 q 818 300 818 268 q 799 357 818 338 q 729 375 780 375 m 799 875 l 930 875 q 919 978 928 931 q 889 1090 908 1044 q 844 1169 871 1135 q 789 1224 817 1203 q 728 1256 761 1244 q 666 1273 694 1269 q 608 1277 638 1277 q 601 1277 606 1277 q 588 1278 597 1278 q 453 1264 513 1278 q 343 1217 393 1249 q 258 1133 292 1184 q 206 1006 224 1082 q 188 875 191 947 l 799 875 z "},"":{"ha":1111,"x_min":0,"x_max":1111,"o":"m 608 -492 l 574 -492 q 572 -492 573 -492 q 569 -492 570 -492 q 306 -415 414 -492 l 355 -347 q 570 -408 440 -408 q 572 -408 570 -408 q 574 -408 573 -408 l 608 -408 q 827 -347 742 -408 l 876 -415 q 608 -492 768 -492 m 608 -214 l 574 -214 q 572 -214 573 -214 q 569 -214 570 -214 q 306 -137 414 -214 l 355 -69 q 570 -131 440 -131 q 572 -131 570 -131 q 574 -131 573 -131 l 608 -131 q 827 -69 742 -131 l 876 -137 q 608 -214 768 -214 m 1001 703 q 990 624 1001 667 q 897 438 963 501 q 862 411 880 423 q 901 300 901 370 q 886 201 901 257 q 782 20 853 81 q 604 -42 710 -42 q 271 145 393 -42 q 111 690 149 331 q 104 792 106 743 l 0 792 l 0 875 l 105 875 q 118 993 107 938 q 157 1122 132 1067 q 218 1217 182 1176 q 295 1286 254 1259 q 386 1330 337 1313 q 484 1354 435 1347 q 588 1361 533 1361 q 603 1361 598 1361 q 610 1360 609 1360 q 677 1356 644 1360 q 752 1336 710 1351 q 829 1298 793 1322 q 899 1233 865 1274 q 959 1139 934 1192 q 999 1007 983 1085 q 1013 875 1010 946 l 1111 875 l 1111 792 l 978 792 l 981 788 q 997 743 993 763 q 1001 703 1001 724 m 729 458 q 843 503 799 458 q 910 642 888 549 q 917 702 917 676 q 891 769 917 746 q 799 792 865 792 l 188 792 q 194 699 189 747 q 226 490 206 585 l 233 458 l 729 458 m 729 375 l 256 375 q 272 328 263 351 q 328 210 297 262 q 392 127 360 159 q 461 76 424 96 q 533 49 499 56 q 604 42 567 42 q 731 86 682 42 q 806 224 781 131 q 818 300 818 268 q 799 357 818 338 q 729 375 780 375 m 799 875 l 930 875 q 919 978 928 931 q 889 1090 908 1044 q 844 1169 871 1135 q 789 1224 817 1203 q 728 1256 761 1244 q 666 1273 694 1269 q 608 1277 638 1277 q 601 1277 606 1277 q 588 1278 597 1278 q 453 1264 513 1278 q 343 1217 393 1249 q 258 1133 292 1184 q 206 1006 224 1082 q 188 875 191 947 l 799 875 z "},"":{"ha":1389,"x_min":0,"x_max":0,"o":""},"":{"ha":1389,"x_min":0,"x_max":0,"o":""},"":{"ha":1389,"x_min":0,"x_max":0,"o":""},"":{"ha":1389,"x_min":0,"x_max":0,"o":""},"":{"ha":833,"x_min":0,"x_max":833,"o":"m 736 556 l 736 514 l 694 514 l 458 514 q 456 514 458 514 q 453 514 453 514 q 182 274 265 514 q 261 99 203 156 q 417 42 318 42 q 665 99 606 42 l 724 40 q 417 -42 639 -42 q 319 -28 364 -42 q 244 5 275 -15 q 189 55 214 25 q 149 112 163 85 q 123 172 134 139 q 106 226 111 206 q 98 271 101 247 l 96 281 l 99 291 q 166 432 126 372 q 251 528 205 492 l 252 529 q 169 792 182 647 l 0 792 l 0 875 l 833 875 l 833 792 l 736 792 l 736 556 m 324 572 q 347 581 335 576 q 451 597 397 597 q 455 597 452 597 q 458 597 458 597 l 653 597 l 653 792 l 253 792 q 324 572 265 671 m 285 1160 q 278 1160 278 1160 q 204 1151 228 1158 q 181 1132 181 1144 l 97 1132 q 119 1193 97 1167 q 180 1231 141 1219 q 278 1243 214 1242 q 285 1243 278 1243 q 434 1233 367 1243 q 547 1207 501 1223 q 627 1167 592 1190 q 683 1118 663 1143 q 715 1064 703 1094 q 732 1010 728 1035 q 736 958 736 985 l 653 958 q 285 1160 653 1160 z "},"":{"ha":972,"x_min":-1,"x_max":972,"o":"m 839 833 l 839 875 l 881 875 l 972 875 l 972 792 l 922 792 l 922 0 l 839 0 l 839 413 l 697 413 q 599 403 637 413 q 599 370 599 387 q 600 266 599 323 q 600 177 600 208 q 523 156 563 166 q 473 255 490 210 q 456 329 456 301 q 456 336 456 331 q 456 343 456 342 q 461 383 456 364 q 482 424 466 401 q 516 456 496 442 l 516 458 q 479 582 516 543 q 376 622 442 622 q 372 622 375 622 l 367 622 l 364 622 l 361 622 q 276 614 309 622 q 275 385 276 499 l 198 364 q 131 550 131 474 q 135 590 131 571 q 155 631 140 609 q 193 667 169 652 q 185 716 192 695 q 161 756 178 738 q 112 783 143 774 q 0 792 81 792 l 0 875 q 132 863 90 875 q 200 832 174 851 q 244 785 227 813 q 269 727 262 757 q 274 697 273 713 q 361 705 313 705 q 369 705 363 705 q 374 705 369 705 q 379 704 378 704 q 412 702 395 704 q 451 693 429 700 q 493 676 474 687 q 533 645 513 665 q 567 601 553 626 q 590 540 581 576 q 599 488 597 515 q 697 497 642 497 l 839 497 l 839 833 m 283 1364 q 285 1377 285 1369 q 290 1397 285 1385 q 302 1419 295 1408 q 327 1442 310 1431 q 367 1460 344 1453 q 464 1472 406 1472 q 617 1455 547 1472 q 743 1398 686 1437 q 840 1299 801 1358 q 901 1153 879 1239 q 922 958 922 1067 l 839 958 q 818 1039 839 1004 q 763 1096 797 1074 q 682 1131 729 1117 q 589 1150 635 1145 q 490 1156 542 1156 q 485 1156 489 1156 q 477 1156 481 1156 q 464 1156 472 1156 q 390 1147 416 1155 q 367 1128 367 1140 l 283 1128 q 305 1189 283 1163 q 366 1227 327 1215 q 464 1239 402 1238 q 477 1239 473 1239 q 486 1239 482 1239 q 491 1239 490 1239 q 811 1164 697 1239 q 759 1269 792 1225 q 681 1339 726 1313 q 582 1377 635 1365 q 464 1389 528 1389 q 391 1381 418 1389 q 376 1375 382 1378 q 369 1369 371 1372 q 367 1365 368 1367 q 367 1362 366 1363 q 367 1361 367 1362 l 283 1361 q 283 1364 283 1364 z "},"":{"ha":1042,"x_min":-1,"x_max":1042,"o":"m 1042 875 l 1042 792 l 955 792 q 967 730 967 764 q 953 642 967 690 q 902 518 933 571 q 835 435 872 465 q 805 413 820 423 q 846 304 846 373 q 832 215 846 265 q 788 109 815 155 q 732 35 762 63 q 665 -11 701 7 q 595 -35 628 -28 q 524 -42 561 -42 q 97 692 149 -42 q 94 772 94 733 q 94 788 94 783 q 94 791 94 790 l 0 791 l 0 874 l 99 874 q 101 893 100 884 q 124 992 108 941 q 167 1085 141 1042 q 233 1167 192 1128 q 325 1233 273 1206 q 448 1276 376 1260 q 604 1292 519 1292 q 815 1279 741 1292 q 922 1240 889 1267 q 951 1181 951 1215 l 868 1181 l 869 1175 q 604 1208 829 1208 q 473 1196 533 1208 q 370 1163 414 1184 q 293 1110 327 1141 q 238 1043 260 1078 q 203 965 217 1008 q 183 881 189 922 l 183 874 l 799 875 q 806 875 804 875 l 807 875 l 1042 875 m 178 791 q 178 786 178 790 q 178 772 178 781 q 181 697 178 736 q 210 458 190 565 l 667 458 l 668 458 q 669 458 669 458 q 673 458 672 458 q 794 511 744 458 q 873 664 845 563 q 883 728 883 701 q 876 763 883 749 q 863 778 872 772 q 806 792 846 789 l 178 791 m 228 375 q 524 42 312 42 q 668 90 612 42 q 751 237 724 139 q 763 304 763 276 q 743 357 763 339 q 667 375 723 375 l 228 375 z "},"":{"ha":972,"x_min":-1,"x_max":972,"o":"m 651 1047 q 651 1065 651 1059 q 649 1082 651 1071 q 644 1098 647 1092 q 634 1111 641 1103 q 617 1123 627 1119 q 591 1129 607 1126 q 556 1132 576 1132 q 504 1126 524 1132 q 474 1109 483 1120 q 461 1085 465 1097 q 458 1056 458 1074 q 474 978 458 1026 l 394 952 q 375 1053 375 1013 q 385 1119 375 1090 q 390 1132 388 1126 l 347 1132 l 344 1132 l 342 1132 q 273 1136 306 1132 q 207 1154 240 1141 q 151 1186 174 1167 q 112 1238 127 1206 q 97 1313 97 1271 l 181 1313 q 187 1276 181 1292 q 210 1246 194 1260 q 260 1223 227 1231 q 342 1215 294 1215 l 344 1215 l 347 1215 l 556 1215 q 632 1206 599 1215 q 683 1181 664 1196 q 715 1142 703 1165 q 731 1095 726 1119 q 735 1042 735 1072 q 717 953 735 1010 l 638 977 q 651 1047 651 1024 m 839 833 l 839 875 l 881 875 l 972 875 l 972 792 l 922 792 l 922 0 l 839 0 l 839 413 l 697 413 q 599 403 637 413 q 599 370 599 387 q 600 266 599 323 q 600 177 600 208 q 523 156 563 166 q 473 255 490 210 q 456 329 456 301 q 456 336 456 331 q 456 343 456 342 q 461 383 456 364 q 482 424 466 401 q 516 456 496 442 l 516 458 q 479 582 516 543 q 376 622 442 622 q 372 622 375 622 l 367 622 l 364 622 l 361 622 q 276 614 309 622 q 275 385 276 499 l 198 364 q 131 550 131 474 q 135 590 131 571 q 155 631 140 609 q 193 667 169 652 q 185 716 192 695 q 161 756 178 738 q 112 783 143 774 q 0 792 81 792 l 0 875 q 132 863 90 875 q 200 832 174 851 q 244 785 227 813 q 269 727 262 757 q 274 697 273 713 q 361 705 313 705 q 369 705 363 705 q 374 705 369 705 q 379 704 378 704 q 412 702 395 704 q 451 693 429 700 q 493 676 474 687 q 533 645 513 665 q 567 601 553 626 q 590 540 581 576 q 599 488 597 515 q 697 497 642 497 l 839 497 l 839 833 z "},"":{"ha":833,"x_min":-1,"x_max":833,"o":"m 736 763 l 736 756 l 736 749 q 670 352 736 477 q 736 74 736 233 l 736 72 l 736 69 l 736 -42 l 653 -42 l 653 69 l 653 72 l 653 74 q 613 279 653 190 q 347 129 459 129 l 333 129 l 332 129 l 330 129 q 158 192 227 129 q 97 347 97 248 q 165 531 97 463 q 333 597 231 597 l 347 597 q 614 434 483 597 q 631 492 623 460 q 653 749 653 592 l 653 756 l 653 763 l 653 792 l 0 792 l 0 875 l 833 875 l 833 792 l 736 792 l 736 763 m 570 354 l 569 356 q 347 514 452 514 l 333 514 q 224 472 265 514 q 181 347 181 428 q 215 253 181 285 q 331 213 259 213 l 332 213 l 333 213 l 347 213 q 570 354 430 213 z "},"":{"ha":833,"x_min":-1,"x_max":833,"o":"m 139 875 l 165 875 l 176 852 q 250 597 244 718 l 653 597 l 653 833 l 653 875 l 694 875 l 833 875 l 833 792 l 736 792 l 736 -42 l 653 -42 l 653 171 q 601 138 628 152 q 422 97 522 97 l 419 97 l 417 97 q 231 156 310 97 q 101 331 151 215 l 92 351 l 104 371 q 167 573 167 464 q 113 792 167 674 l 0 792 l 0 875 l 139 875 m 653 290 l 653 514 l 247 514 q 186 344 235 424 q 417 181 265 181 l 419 181 l 422 181 q 653 290 575 181 z "},"":{"ha":972,"x_min":-1,"x_max":972,"o":"m 875 -42 l 792 -42 l 792 792 l 562 792 l 562 69 q 562 65 562 66 q 561 61 562 65 q 561 52 561 56 q 559 42 560 49 q 555 29 557 35 q 549 16 553 24 q 540 2 545 8 q 528 -11 535 -4 q 512 -23 521 -17 q 491 -32 503 -28 q 464 -39 478 -36 q 426 -42 447 -42 q 364 -27 396 -42 q 301 14 332 -12 q 242 72 269 41 q 183 142 214 102 q 96 417 96 256 q 98 450 96 434 q 108 484 101 465 q 127 518 115 503 q 158 549 138 534 q 202 574 177 564 q 265 591 228 585 q 346 597 301 597 l 478 597 l 478 792 l 0 792 l 0 875 l 972 875 l 972 792 l 875 792 l 875 -42 m 478 514 l 346 514 q 217 489 255 514 q 179 417 179 464 l 179 416 q 250 192 179 285 q 357 75 313 108 q 426 42 401 42 q 451 44 440 42 q 467 48 460 45 q 475 54 473 51 q 477 61 476 57 q 478 68 478 65 q 478 69 478 68 l 478 514 z "},"":{"ha":1110,"x_min":-1,"x_max":1110,"o":"m 139 875 l 165 875 l 176 852 q 251 573 251 704 q 183 339 251 447 q 247 220 202 259 q 369 181 292 181 l 371 181 l 374 181 q 442 188 414 181 q 486 209 471 195 q 508 240 501 224 q 514 277 514 256 l 514 278 q 515 522 515 383 q 514 875 515 660 l 597 875 q 598 522 598 702 q 597 278 598 383 l 597 277 q 635 206 597 231 q 764 181 673 181 l 767 181 l 769 181 q 851 189 817 181 q 901 211 885 197 q 924 242 918 226 q 931 275 931 257 l 931 276 l 931 277 l 931 833 l 931 875 l 972 875 l 1110 875 l 1110 792 l 1014 792 l 1014 278 l 1014 276 l 1014 274 l 1014 -42 l 931 -42 l 931 131 q 906 120 919 125 q 840 102 874 107 q 770 97 807 97 l 767 97 l 764 97 q 682 103 719 97 q 620 120 645 110 q 575 145 594 131 q 557 161 565 153 q 548 151 553 156 q 496 119 526 132 q 436 102 466 107 q 374 97 407 97 l 372 97 l 369 97 q 191 158 260 97 q 98 340 122 219 l 94 356 l 104 371 q 167 573 167 464 q 113 792 167 674 l 0 792 l 0 875 l 139 875 z "},"":{"ha":833,"x_min":-1,"x_max":833,"o":"m 181 597 l 350 597 q 642 532 549 597 q 736 349 736 466 l 736 307 l 736 305 l 736 303 q 730 255 736 281 q 709 196 724 230 q 662 121 694 162 l 650 106 l 773 -12 l 716 -72 l 592 47 l 583 38 q 329 -42 494 -42 l 304 -42 q 144 15 202 -42 q 97 139 97 62 l 97 140 l 97 141 q 144 260 97 213 q 303 319 200 316 l 334 319 l 335 319 l 336 319 q 508 244 388 319 q 509 243 508 244 q 511 242 510 242 q 529 224 512 242 l 566 188 q 585 169 585 169 l 590 164 q 653 305 653 239 l 653 306 l 653 307 l 653 349 q 582 471 653 428 q 350 514 512 514 l 139 514 l 97 514 l 97 556 l 97 792 l 0 792 l 0 875 l 833 875 l 833 792 l 181 792 l 181 597 m 463 174 q 376 222 407 208 q 334 236 344 236 q 319 236 333 236 q 305 236 306 236 q 203 201 236 234 q 181 140 181 179 l 181 140 l 181 139 q 203 75 181 97 q 304 42 236 42 l 329 42 q 528 101 462 42 l 532 104 l 526 109 l 489 146 q 469 167 474 162 l 463 173 l 463 174 m 463 174 q 461 175 462 175 q 463 174 461 175 z "},"":{"ha":972,"x_min":-1,"x_max":972,"o":"m 972 875 l 972 792 l 875 792 l 875 139 l 875 137 l 875 135 q 870 86 875 110 q 853 39 865 63 q 820 -2 840 15 q 768 -31 801 -19 q 694 -42 736 -42 q 626 -38 659 -42 q 553 -22 593 -34 q 479 11 513 -9 q 412 66 445 31 q 356 148 379 101 q 319 264 333 195 q 306 375 309 315 l 243 375 q 187 383 212 375 q 105 465 124 402 q 97 521 98 486 q 105 577 97 549 q 187 659 124 640 q 243 667 208 666 q 299 659 272 667 q 381 577 362 640 q 389 521 387 558 l 389 458 l 792 458 l 792 792 l 0 792 l 0 875 l 972 875 m 792 375 l 390 375 q 403 269 392 317 q 443 162 417 205 q 508 92 469 119 q 592 53 547 65 q 694 42 638 42 q 767 62 742 42 q 792 136 792 83 l 792 138 l 792 139 l 792 375 m 306 458 l 306 521 q 301 552 304 543 q 274 579 295 573 q 243 583 260 584 q 212 579 224 583 q 185 552 191 573 q 181 521 180 538 q 185 490 181 501 q 212 463 191 469 q 243 458 224 458 l 306 458 z "},"":{"ha":833,"x_min":0,"x_max":833,"o":"m 375 139 l 375 140 l 375 142 q 375 143 375 142 q 375 144 375 144 q 350 216 375 196 q 278 236 324 236 l 276 236 l 276 236 l 275 236 q 201 211 222 236 q 181 139 181 186 l 181 138 l 181 136 q 206 62 181 83 q 278 42 231 42 l 375 42 l 375 139 m 833 875 l 833 792 l 736 792 l 736 556 l 736 514 l 694 514 l 278 514 q 206 493 231 514 q 181 419 181 473 l 181 418 l 181 417 q 201 344 181 369 q 274 319 222 319 l 275 319 l 276 319 l 276 319 l 278 319 l 556 319 q 630 308 597 319 q 682 280 663 297 q 714 238 701 262 q 731 192 726 215 q 736 147 736 170 q 736 145 736 146 q 736 143 736 144 l 736 141 l 736 139 q 688 4 736 49 q 556 -42 640 -42 l 278 -42 q 204 -31 236 -42 q 152 -2 172 -19 q 119 39 132 15 q 102 86 107 63 q 97 135 97 110 l 97 137 l 97 139 q 108 213 97 181 q 137 265 119 245 q 150 278 143 272 q 137 290 143 284 q 108 343 119 310 q 97 417 97 375 l 97 419 l 97 421 q 102 469 97 446 q 119 516 107 492 q 152 558 132 540 q 204 586 172 575 q 278 597 236 597 l 653 597 l 653 792 l 0 792 l 0 875 l 833 875 m 438 236 q 453 192 449 214 q 458 147 458 170 q 458 145 458 146 q 458 143 458 144 l 458 141 l 458 139 l 458 42 l 556 42 q 631 65 609 42 q 653 139 653 88 l 653 140 l 653 142 q 653 143 653 142 q 653 144 653 144 q 627 216 653 196 q 556 236 602 236 l 438 236 z "},"":{"ha":972,"x_min":-1,"x_max":972,"o":"m 972 875 l 972 792 l 879 792 l 879 -42 l 796 -42 l 796 375 l 389 375 l 389 -42 l 306 -42 l 306 375 l 243 375 q 187 383 212 376 q 105 465 124 403 q 97 521 98 487 q 105 576 97 549 q 185 658 124 638 q 240 667 204 665 l 243 667 l 244 667 l 246 667 q 301 658 276 667 q 381 576 363 638 q 389 521 387 558 l 389 458 l 796 458 l 796 792 l 0 792 l 0 875 l 972 875 m 306 458 l 306 521 q 301 552 304 543 q 275 579 295 572 q 245 583 263 583 l 244 583 l 243 583 l 241 583 q 211 579 220 582 q 185 552 191 572 q 181 521 180 538 q 185 490 181 501 q 212 463 191 469 q 243 458 224 459 l 306 458 z "},"":{"ha":833,"x_min":-1,"x_max":833,"o":"m 475 597 q 479 597 476 597 q 483 597 482 597 q 526 594 505 597 q 574 582 548 591 q 622 560 600 574 q 666 523 644 547 q 703 469 688 499 q 727 394 718 438 q 736 296 736 349 q 736 279 736 285 q 735 273 735 274 q 733 230 735 252 q 720 175 730 208 q 694 115 710 143 q 678 90 688 103 q 752 -20 715 41 l 681 -63 q 618 31 649 -12 q 579 6 600 17 q 480 -28 540 -15 q 347 -42 420 -42 l 329 -42 q 236 -31 278 -42 q 170 -4 195 -20 q 128 34 145 13 q 106 74 112 55 q 99 110 99 92 q 98 124 99 122 q 97 139 97 127 q 97 147 97 142 q 114 219 99 188 q 152 270 130 251 q 206 300 175 288 q 264 315 237 311 q 320 319 291 319 q 325 319 321 319 q 329 319 328 319 q 623 158 478 319 q 638 189 631 173 q 649 234 646 213 q 652 277 652 255 q 652 282 652 277 q 653 296 653 287 q 481 514 653 514 q 478 514 481 514 q 475 514 476 514 q 386 536 433 514 q 360 550 373 542 q 340 543 349 547 q 261 524 301 531 q 197 516 222 517 q 147 514 172 514 q 142 514 145 514 q 138 514 138 514 l 138 597 q 141 597 138 597 q 145 597 144 597 q 192 599 169 597 q 250 607 215 601 q 277 613 264 610 q 201 691 238 648 q 118 792 161 735 l 0 792 l 0 875 l 833 875 l 833 792 l 713 792 q 624 704 669 744 q 524 629 570 659 q 469 597 497 612 q 475 597 472 597 m 567 97 q 329 236 444 236 q 325 236 328 236 q 322 236 322 236 q 181 144 183 236 q 181 139 181 141 q 181 129 181 131 q 182 121 182 127 q 188 95 182 108 q 210 70 194 83 q 256 49 225 57 q 329 42 286 42 l 347 42 q 446 50 401 42 q 522 72 491 58 q 567 97 547 83 m 224 792 q 274 733 250 760 q 359 652 322 681 l 371 643 l 398 656 q 483 702 442 676 q 572 770 524 729 l 596 792 l 224 792 z "},"":{"ha":833,"x_min":-1,"x_max":833,"o":"m 736 590 l 736 549 l 694 549 l 278 549 q 194 526 213 547 q 188 517 190 522 q 181 492 181 505 q 181 487 181 490 q 181 483 181 484 q 192 422 181 449 q 222 380 204 395 q 264 355 240 365 q 309 341 288 344 q 351 338 330 338 q 362 337 353 338 q 386 336 372 336 l 416 336 l 694 336 l 694 253 l 417 253 q 341 234 363 251 q 319 183 319 216 l 319 182 l 319 181 q 364 77 319 113 q 517 42 408 42 l 694 42 l 694 -42 l 517 -42 q 395 -27 447 -42 q 313 10 342 -12 q 266 64 284 33 q 242 123 247 96 q 236 181 236 150 l 236 183 l 236 184 q 240 223 236 204 q 257 263 244 242 q 260 268 258 265 q 228 279 244 272 q 181 306 205 288 q 138 347 156 324 q 109 406 120 370 q 97 483 97 441 q 98 490 97 485 q 98 497 98 496 q 115 558 98 527 q 134 583 123 572 q 194 620 160 610 q 278 632 229 631 l 309 632 q 241 792 264 694 l 0 792 l 0 875 l 833 875 l 833 792 l 736 792 l 736 590 m 653 792 l 327 792 q 428 632 359 674 l 653 632 l 653 792 z "},"":{"ha":903,"x_min":-1,"x_max":903,"o":"m 804 529 l 804 465 l 745 491 l 715 505 q 522 552 612 552 q 188 341 333 552 q 488 42 294 42 q 726 156 676 42 l 802 122 q 488 -42 730 -42 q 102 334 228 -42 l 96 353 l 107 370 q 522 635 281 635 q 721 593 617 635 l 722 792 l 0 792 l 0 875 l 903 875 l 903 792 l 806 792 l 804 529 z "},"":{"ha":903,"x_min":-1,"x_max":903,"o":"m 724 278 q 724 281 724 278 q 724 284 724 283 q 655 424 724 365 q 451 513 585 483 q 244 423 312 481 q 175 277 177 364 q 175 272 175 276 q 175 267 175 267 q 382 42 175 42 l 556 42 q 625 53 595 42 q 677 92 654 65 q 712 165 700 118 q 724 278 724 212 m 556 -42 l 382 -42 q 263 -23 315 -42 q 180 27 211 -3 q 127 99 148 57 q 99 181 107 140 q 92 265 92 221 q 92 271 92 265 q 92 278 92 277 q 185 480 94 400 q 410 588 265 551 l 410 792 l 0 792 l 0 875 l 903 875 l 903 792 l 493 792 l 493 588 q 581 560 540 576 q 670 515 635 538 q 732 464 706 492 q 772 413 758 436 q 794 363 786 389 q 805 319 803 336 q 807 286 807 303 q 807 282 807 285 q 807 278 807 278 q 798 174 807 221 q 775 94 790 126 q 740 36 760 61 q 697 -3 719 11 q 649 -26 675 -17 q 601 -39 624 -35 q 556 -42 579 -42 z "},"":{"ha":903,"x_min":-1,"x_max":903,"o":"m 903 875 l 903 792 l 806 792 q 802 751 805 771 q 789 696 799 726 q 763 641 779 666 q 719 592 747 616 q 661 553 694 569 q 731 501 701 532 q 785 409 764 466 q 806 278 806 351 q 806 271 806 276 q 806 265 806 266 q 801 209 806 236 q 784 150 797 181 q 751 93 771 119 q 698 41 731 66 q 623 -2 665 15 q 518 -31 580 -20 q 383 -42 457 -42 l 381 -42 q 257 -28 310 -42 q 175 6 204 -15 q 127 54 145 26 q 103 107 108 82 q 97 158 97 131 q 112 224 97 195 q 151 271 127 253 q 208 300 175 288 q 273 315 241 311 q 341 319 306 319 q 347 319 342 319 q 351 319 351 319 q 439 305 398 319 q 519 261 481 291 q 592 178 558 231 q 635 97 615 142 q 644 104 640 100 q 703 175 684 134 q 722 267 722 215 q 722 272 722 268 q 722 278 722 276 q 708 375 722 333 q 664 449 694 417 q 582 497 634 481 q 459 514 531 514 q 456 514 458 514 q 453 514 453 514 q 451 514 452 514 l 208 514 l 208 597 l 451 597 l 455 597 q 660 651 599 598 q 722 792 718 701 l 0 792 l 0 875 l 903 875 m 558 63 q 477 188 524 147 q 351 236 422 236 q 347 236 351 236 q 342 236 343 236 q 181 158 181 236 q 226 72 181 102 q 381 42 272 42 l 383 42 q 539 58 473 42 q 558 63 549 60 z "},"":{"ha":1076,"x_min":-1,"x_max":1076,"o":"m 979 486 l 979 451 l 945 445 q 762 444 940 444 q 390 444 522 444 q 404 313 392 372 q 449 185 420 236 q 501 117 470 146 q 500 139 500 128 q 515 213 500 181 q 552 265 530 246 q 605 297 575 285 q 662 314 635 310 q 716 319 689 319 q 723 319 717 319 q 738 319 728 319 q 748 319 743 319 q 756 319 753 319 q 760 319 759 319 q 812 315 785 319 q 869 298 839 310 q 924 266 900 285 q 963 214 947 247 q 979 140 978 181 q 977 106 979 122 q 967 72 974 90 q 948 38 960 53 q 917 7 937 22 q 870 -19 897 -8 q 806 -35 844 -29 q 722 -42 768 -42 q 647 -37 683 -42 q 567 -17 610 -32 q 488 20 524 -3 q 417 85 452 44 q 359 180 383 126 q 320 312 335 233 q 306 444 309 373 q 243 444 262 444 q 187 452 212 444 q 105 534 124 472 q 97 590 97 562 q 105 647 98 625 q 187 728 124 709 q 243 736 215 737 q 299 728 278 735 q 381 647 362 709 q 389 590 389 622 l 389 528 q 762 528 527 528 q 896 527 851 528 l 896 792 l 0 792 l 0 875 l 1076 875 l 1076 792 l 979 792 l 979 486 m 306 528 l 306 590 q 301 622 306 609 q 274 649 295 642 q 243 653 263 652 q 212 649 226 653 q 185 622 191 642 q 181 590 181 610 q 185 559 180 573 q 212 532 191 538 q 243 528 224 528 q 306 528 268 528 m 622 53 q 722 42 667 42 q 857 67 817 42 q 896 138 897 92 q 882 187 896 167 q 847 217 869 208 q 803 231 825 227 q 756 235 781 235 q 747 236 749 235 q 738 236 745 236 q 725 236 729 236 q 719 235 721 235 q 672 231 693 235 q 628 217 649 227 q 595 186 608 206 q 583 139 583 167 q 622 53 583 73 z "},"":{"ha":1042,"x_min":-1,"x_max":1042,"o":"m 1042 875 l 1042 792 l 609 792 q 642 753 628 773 q 681 688 663 724 q 903 667 767 667 l 903 583 q 715 597 797 583 q 726 547 722 572 q 734 491 732 513 q 735 451 735 469 q 736 445 735 449 q 736 433 736 441 q 736 417 736 426 l 656 403 q 597 484 636 455 q 486 514 557 514 q 483 514 485 514 q 479 514 480 514 q 392 504 433 514 q 324 478 352 494 q 272 441 296 463 q 234 398 249 418 q 208 352 220 377 q 192 311 197 326 q 182 278 187 296 q 288 101 214 160 q 486 42 363 42 q 760 59 669 42 q 874 99 851 76 l 932 40 q 785 -21 892 -1 q 486 -42 678 -42 q 236 36 335 -42 q 99 267 138 113 l 96 278 l 99 288 q 144 408 115 355 q 209 495 173 460 q 290 554 245 531 q 381 587 334 577 q 478 597 427 597 q 482 597 479 597 q 486 597 485 597 q 640 556 578 597 q 633 581 637 569 q 620 619 628 599 q 446 792 468 670 l 0 792 l 0 875 l 1042 875 z "},"":{"ha":972,"x_min":-1,"x_max":972,"o":"m 972 875 l 972 792 l 875 792 q 777 538 872 626 q 715 492 749 511 q 776 460 749 478 q 875 260 875 392 q 875 257 875 260 q 875 253 875 254 q 871 200 875 226 q 855 143 867 174 q 824 88 843 113 q 773 38 805 62 q 699 -4 741 13 q 597 -31 657 -21 q 464 -42 537 -42 l 461 -42 q 101 142 178 -42 l 177 174 q 461 42 233 42 l 464 42 q 792 255 792 42 q 792 258 792 256 q 792 260 792 260 q 776 336 792 303 q 725 394 760 369 q 631 432 690 419 q 490 444 572 444 l 486 444 l 278 444 l 278 528 l 486 528 l 490 528 q 631 547 572 528 q 726 604 692 567 q 776 690 760 642 q 792 792 790 735 l 0 792 l 0 875 l 972 875 z "},"":{"ha":833,"x_min":-1,"x_max":833,"o":"m 653 171 q 601 138 628 152 q 422 97 522 97 l 419 97 l 417 97 q 231 156 310 97 q 101 331 151 215 l 92 351 l 104 371 q 167 573 167 464 q 113 792 167 674 l 0 792 l 0 875 l 139 875 l 165 875 l 653 875 l 694 875 l 833 875 l 833 792 l 736 792 l 736 -42 l 653 -42 l 653 171 m 653 290 l 653 514 l 247 514 q 186 344 235 424 q 417 181 265 181 l 419 181 l 422 181 q 653 290 575 181 m 203 792 q 250 597 245 690 l 653 597 l 653 792 l 203 792 z "},"":{"ha":972,"x_min":-1,"x_max":972,"o":"m 972 875 l 972 792 l 875 792 l 875 417 l 875 375 l 833 375 l 390 375 q 395 297 390 333 q 418 198 401 247 q 460 116 434 150 q 528 62 486 83 q 625 42 570 42 q 810 104 717 42 l 856 35 q 625 -42 742 -42 q 527 -28 572 -42 q 450 10 482 -14 q 392 68 417 33 q 351 140 367 102 q 324 224 335 178 q 310 314 314 270 q 306 375 307 344 l 243 375 q 187 383 212 375 q 105 465 124 402 q 97 521 97 492 q 105 577 98 556 q 187 659 124 640 q 243 667 215 667 q 299 659 278 666 q 381 577 362 640 q 389 521 389 552 l 389 458 l 792 458 l 792 792 l 0 792 l 0 875 l 972 875 m 306 458 l 306 521 q 301 552 306 540 q 274 579 295 573 q 243 583 263 583 q 212 579 226 584 q 185 552 191 573 q 181 521 181 540 q 185 490 180 503 q 212 463 191 469 q 243 458 221 460 l 306 458 z "},"":{"ha":833,"x_min":-1,"x_max":833,"o":"m 653 171 q 601 138 628 152 q 422 97 522 97 l 419 97 l 417 97 q 231 156 310 97 q 101 331 151 215 l 92 351 l 104 371 q 167 573 167 464 q 113 792 167 674 l 0 792 l 0 875 l 139 875 l 165 875 l 653 875 l 694 875 l 833 875 l 833 792 l 736 792 l 736 -42 l 653 -42 l 653 171 m 653 290 l 653 792 l 203 792 q 251 573 251 677 q 186 344 251 450 q 417 181 265 181 l 419 181 l 422 181 q 653 290 575 181 z "},"":{"ha":903,"x_min":-1,"x_max":903,"o":"m 92 278 q 183 480 93 400 q 410 588 265 551 l 410 792 l 0 792 l 0 875 l 903 875 l 903 792 l 493 792 l 493 588 q 581 560 540 576 q 670 515 635 538 q 732 464 706 492 q 772 413 758 436 q 794 363 786 389 q 805 319 803 336 q 807 286 807 303 q 807 282 807 285 q 807 278 807 278 q 799 173 807 220 q 779 93 792 126 q 749 36 767 60 q 712 -3 731 11 q 671 -27 693 -18 q 630 -39 649 -35 q 590 -42 611 -42 l 590 42 q 645 54 622 42 q 687 93 669 66 q 714 166 705 119 q 724 278 724 213 q 724 281 724 278 q 724 284 724 283 q 655 424 724 365 q 451 513 585 483 q 243 422 311 481 q 175 277 176 363 q 184 165 174 212 q 213 92 194 119 q 256 53 231 65 q 313 42 281 42 l 313 -42 q 272 -39 292 -42 q 230 -26 253 -35 q 188 -3 207 -17 q 150 36 168 11 q 119 93 131 61 q 99 173 106 126 q 92 278 91 221 z "},"":{"ha":833,"x_min":-1,"x_max":833,"o":"m 139 875 l 165 875 l 176 852 q 251 573 251 704 q 186 344 251 450 q 417 181 265 181 l 419 181 l 422 181 q 653 290 575 181 l 653 833 l 653 875 l 694 875 l 833 875 l 833 792 l 736 792 l 736 -42 l 653 -42 l 653 171 q 601 138 628 152 q 422 97 522 97 l 419 97 l 417 97 q 231 156 310 97 q 101 331 151 215 l 92 351 l 104 371 q 167 573 167 464 q 113 792 167 674 l 0 792 l 0 875 l 139 875 z "},"":{"ha":903,"x_min":-1,"x_max":903,"o":"m 806 556 l 806 514 l 764 514 l 278 514 l 276 514 l 275 514 q 273 514 274 514 q 272 514 272 514 q 201 489 221 514 q 181 417 181 463 q 181 392 181 403 q 182 374 181 381 q 183 366 183 368 q 185 323 183 345 q 198 268 188 301 q 224 205 208 235 q 272 145 241 176 q 343 92 302 115 q 375 78 358 84 q 368 139 368 105 q 383 214 368 181 q 419 266 397 247 q 471 297 442 285 q 526 314 500 310 q 578 319 552 319 q 584 319 579 319 q 599 319 589 319 q 608 319 603 319 q 614 319 612 319 q 617 319 617 319 q 657 315 636 319 q 706 300 678 312 q 754 269 733 288 q 790 217 775 251 q 806 140 805 183 q 801 93 806 115 q 782 45 797 70 q 744 1 768 19 q 680 -30 721 -17 q 584 -42 639 -42 l 583 -42 q 433 -27 502 -42 q 315 13 364 -12 q 228 72 267 38 q 166 142 190 106 q 127 218 142 178 q 105 292 111 258 q 99 360 99 327 q 99 369 99 362 q 98 389 99 376 q 97 417 97 401 q 108 491 97 458 q 137 543 119 524 q 178 575 155 563 q 224 592 202 588 q 270 597 247 597 q 272 597 271 597 q 274 597 273 597 l 276 597 l 278 597 l 722 597 l 722 792 l 0 792 l 0 875 l 903 875 l 903 792 l 806 792 l 806 556 m 488 49 q 583 42 533 42 l 585 42 q 653 49 625 42 q 696 69 681 56 q 716 99 710 83 q 722 138 722 116 q 712 187 722 167 q 685 217 702 207 q 651 232 669 227 q 613 236 634 236 q 606 236 608 236 q 599 236 605 236 q 586 236 590 236 q 581 236 583 236 q 535 231 556 235 q 494 217 514 227 q 463 186 474 206 q 451 139 451 167 q 490 53 451 73 l 488 49 z "},"":{"ha":833,"x_min":-1,"x_max":833,"o":"m 344 444 q 185 345 247 444 q 417 181 265 181 l 419 181 l 422 181 q 653 290 575 181 l 653 444 q 347 444 526 444 l 346 444 l 344 444 m 224 497 q 103 792 141 580 l 0 792 l 0 875 l 139 875 l 175 875 l 653 875 l 694 875 l 833 875 l 833 792 l 736 792 l 736 -42 l 653 -42 l 653 171 q 601 138 628 152 q 422 97 522 97 l 419 97 l 417 97 q 231 156 310 97 q 101 331 151 215 l 92 349 l 102 367 q 149 435 123 406 q 200 482 175 465 q 224 497 212 490 m 347 528 q 653 528 526 528 l 653 792 l 188 792 q 196 753 192 772 q 219 671 205 714 q 251 597 234 628 q 294 547 269 567 q 347 528 318 528 l 347 528 z "},"":{"ha":833,"x_min":-1,"x_max":833,"o":"m 833 875 l 833 792 l 736 792 l 736 783 q 682 453 736 565 q 736 255 736 368 l 736 253 l 736 250 q 733 197 736 223 q 719 141 729 172 q 692 86 708 111 q 646 37 675 61 q 580 -5 617 13 q 486 -32 542 -22 q 365 -42 431 -42 q 116 35 231 -42 l 162 104 q 365 42 256 42 q 501 56 444 42 q 591 99 558 71 q 638 165 624 128 q 653 250 653 201 l 653 252 l 653 254 q 627 378 653 324 q 353 235 481 235 l 349 235 q 337 235 341 235 q 331 235 333 235 q 270 240 300 235 q 208 259 240 245 q 152 294 176 273 q 113 349 128 315 q 97 428 97 384 q 98 441 97 437 q 98 447 98 445 q 100 472 98 459 q 109 504 102 485 q 126 540 115 523 q 156 574 136 557 q 200 604 175 592 q 264 624 226 617 q 347 632 301 632 l 351 632 q 622 524 506 632 q 653 783 653 615 l 653 792 l 0 792 l 0 875 l 833 875 m 580 449 l 572 456 q 351 549 478 549 l 347 549 q 275 542 306 549 q 226 524 244 535 q 198 498 209 513 q 184 469 188 483 q 181 441 181 456 q 181 438 181 440 q 181 428 181 435 q 194 375 181 397 q 230 340 207 352 q 278 324 253 328 q 333 319 303 319 q 338 318 335 319 q 349 318 342 318 l 353 318 q 578 447 451 318 l 580 449 z "},"":{"ha":972,"x_min":-1,"x_max":972,"o":"m 347 875 l 389 875 l 389 833 l 389 458 l 792 458 l 792 833 l 792 875 l 833 875 l 972 875 l 972 792 l 875 792 l 875 -42 l 792 -42 l 792 375 l 389 375 l 389 347 q 389 331 389 335 q 384 250 388 285 q 372 174 381 215 q 345 100 363 132 q 299 50 326 69 q 260 32 281 38 q 226 28 244 28 q 222 28 223 28 q 209 29 217 29 q 188 33 201 28 q 163 45 175 38 q 137 67 150 51 q 115 103 124 82 q 97 208 97 144 q 113 319 97 272 q 150 392 128 367 q 204 434 173 418 q 260 454 235 449 q 306 458 281 458 l 306 792 l 0 792 l 0 875 l 347 875 m 306 375 q 215 338 247 373 q 181 208 181 301 q 192 135 181 160 q 204 118 197 124 q 216 112 211 112 q 224 111 221 112 l 226 111 q 239 113 233 111 q 251 119 246 115 q 306 332 302 153 q 306 347 306 338 l 306 375 z "},"":{"ha":972,"x_min":-1,"x_max":972,"o":"m 792 444 l 563 444 l 563 139 l 563 97 l 521 97 q 101 331 203 97 l 92 351 l 104 371 q 167 573 167 464 q 113 792 167 674 l 0 792 l 0 875 l 139 875 l 165 875 l 792 875 l 833 875 l 972 875 l 972 792 l 875 792 l 875 -42 l 792 -42 l 792 444 m 792 528 l 792 792 l 203 792 q 251 573 251 677 q 186 344 251 451 q 479 182 265 194 l 479 486 l 479 528 l 521 528 l 792 528 z "},"":{"ha":764,"x_min":-1,"x_max":764,"o":"m 667 69 q 667 65 667 66 q 666 61 667 65 q 666 52 666 56 q 664 42 665 49 q 660 29 663 35 q 655 16 658 24 q 646 2 651 8 q 633 -11 641 -4 q 617 -23 626 -17 q 596 -32 608 -28 q 569 -39 583 -36 q 531 -42 551 -42 q 171 144 294 -42 q 114 271 132 203 q 96 401 96 340 q 96 417 96 403 q 96 419 96 417 q 96 422 96 422 q 101 469 96 447 q 118 516 106 492 q 151 558 131 540 q 203 586 170 575 q 278 597 236 597 l 583 597 l 583 792 l 0 792 l 0 875 l 764 875 l 764 792 l 667 792 l 667 69 m 583 514 l 278 514 q 205 493 230 514 q 179 421 179 473 l 179 419 l 179 417 q 179 402 179 406 q 194 295 179 351 q 240 190 208 238 q 531 42 338 42 q 556 44 545 42 q 572 48 566 45 q 580 54 578 51 q 583 61 582 57 q 583 68 584 65 q 583 69 583 68 l 583 514 z "},"":{"ha":1111,"x_min":-1,"x_max":1111,"o":"m 1111 875 l 1111 792 l 836 792 q 772 585 822 676 q 943 477 882 547 q 1014 278 1017 392 q 1014 264 1014 272 q 1010 207 1014 235 q 997 149 1006 180 q 971 91 987 117 q 931 39 956 64 q 873 -3 906 15 q 795 -31 841 -21 q 694 -42 749 -42 l 694 42 q 931 266 931 42 q 931 269 931 267 q 931 271 931 271 q 876 427 932 367 q 725 513 826 482 q 578 381 645 424 l 556 367 l 533 381 q 386 513 445 437 q 231 426 283 483 q 175 277 176 368 q 234 98 174 153 q 417 42 295 42 l 417 -42 q 267 -18 331 -42 q 165 49 203 6 q 109 150 126 93 q 92 278 91 208 q 165 477 93 397 q 339 585 227 547 q 275 792 290 676 l 0 792 l 0 875 l 1111 875 m 359 792 q 556 467 390 582 q 752 792 722 582 l 359 792 z "},"":{"ha":1111,"x_min":0,"x_max":1111,"o":"m 1111 875 l 1111 792 l 836 792 q 772 585 822 676 q 943 477 882 547 q 1014 278 1017 392 q 1014 264 1014 272 q 1010 207 1014 235 q 997 149 1006 180 q 971 91 987 117 q 931 39 956 64 q 873 -3 906 15 q 795 -31 841 -21 q 694 -42 749 -42 l 694 42 q 931 266 931 42 q 931 269 931 267 q 931 271 931 271 q 876 427 932 367 q 725 513 826 482 q 578 381 645 424 l 556 367 l 533 381 q 386 513 445 437 q 231 426 283 483 q 175 277 176 368 q 234 98 174 153 q 417 42 295 42 l 417 -42 q 267 -18 331 -42 q 165 49 203 6 q 109 150 126 93 q 92 278 91 208 q 165 477 93 397 q 339 585 227 547 q 275 792 290 676 l 0 792 l 0 875 l 1111 875 m 359 792 q 556 467 390 582 q 752 792 722 582 l 359 792 m 123 33 q 172 13 151 33 q 192 -36 192 -8 q 172 -86 192 -65 q 123 -106 151 -106 l 123 -106 q 74 -86 94 -106 q 53 -36 53 -65 q 74 13 53 -8 q 123 33 94 33 l 123 33 z "},"":{"ha":833,"x_min":-1,"x_max":833,"o":"m 736 590 l 736 549 l 694 549 l 278 549 q 194 526 213 547 q 188 517 190 522 q 181 492 181 505 q 181 487 181 490 q 181 483 181 484 q 192 422 181 449 q 222 380 204 395 q 264 355 240 365 q 309 341 288 344 q 351 338 330 338 q 362 337 353 338 q 386 336 372 336 l 416 336 l 694 336 l 694 253 l 417 253 q 341 234 363 251 q 319 183 319 216 l 319 182 l 319 181 q 364 77 319 113 q 517 42 408 42 l 694 42 l 694 -42 l 517 -42 q 395 -27 447 -42 q 313 10 342 -12 q 266 64 284 33 q 242 123 247 96 q 236 181 236 150 l 236 183 l 236 184 q 240 223 236 204 q 257 263 244 242 q 260 268 258 265 q 228 279 244 272 q 181 306 205 288 q 138 347 156 324 q 109 406 120 370 q 97 483 97 441 q 98 490 97 485 q 98 497 98 496 q 115 558 98 527 q 134 583 123 572 q 194 620 160 610 q 278 632 229 631 l 653 632 l 653 792 l 0 792 l 0 875 l 833 875 l 833 792 l 736 792 l 736 590 z "},"":{"ha":972,"x_min":0,"x_max":972,"o":"m 306 375 q 215 338 247 373 q 181 208 181 301 q 192 135 181 160 q 204 118 197 124 q 216 112 211 112 q 224 111 221 112 l 226 111 q 239 113 233 111 q 251 119 246 115 q 306 332 302 153 q 306 347 306 338 l 306 375 m 306 458 l 306 792 l 0 792 l 0 875 l 347 875 l 389 875 l 797 875 l 839 875 l 972 875 l 972 792 l 881 792 l 881 -42 l 797 -42 l 797 375 l 389 375 l 389 347 q 389 331 389 335 q 384 250 388 285 q 372 174 381 215 q 345 100 363 132 q 299 50 326 69 q 260 32 281 38 q 226 28 244 28 q 222 28 223 28 q 209 29 217 29 q 188 33 201 28 q 163 45 175 38 q 137 67 150 51 q 115 103 124 82 q 97 208 97 144 q 113 319 97 272 q 150 392 128 367 q 204 434 173 418 q 260 454 235 449 q 306 458 281 458 m 389 458 l 797 458 l 797 792 l 389 792 l 389 458 m 569 126 q 618 106 597 126 q 638 57 638 85 q 618 7 638 28 q 569 -13 597 -13 l 569 -13 q 520 7 540 -13 q 499 57 499 28 q 520 106 499 85 q 569 126 540 126 l 569 126 z "},"":{"ha":972,"x_min":-1,"x_max":972,"o":"m 306 375 q 215 338 247 373 q 181 208 181 301 q 192 135 181 160 q 204 118 197 124 q 216 112 211 112 q 224 111 221 112 l 226 111 q 239 113 233 111 q 251 119 246 115 q 306 332 302 153 q 306 347 306 338 l 306 375 m 306 458 l 306 792 l 0 792 l 0 875 l 347 875 l 389 875 l 797 875 l 839 875 l 972 875 l 972 792 l 881 792 l 881 -42 l 797 -42 l 797 375 l 389 375 l 389 347 q 389 331 389 335 q 384 250 388 285 q 372 174 381 215 q 345 100 363 132 q 299 50 326 69 q 260 32 281 38 q 226 28 244 28 q 222 28 223 28 q 209 29 217 29 q 188 33 201 28 q 163 45 175 38 q 137 67 150 51 q 115 103 124 82 q 97 208 97 144 q 113 319 97 272 q 150 392 128 367 q 204 434 173 418 q 260 454 235 449 q 306 458 281 458 m 389 458 l 797 458 l 797 792 l 389 792 l 389 458 z "},"":{"ha":833,"x_min":-1,"x_max":833,"o":"m 736 69 q 736 65 736 66 q 736 61 736 65 q 735 52 735 56 q 733 42 735 49 q 730 29 732 35 q 724 16 728 24 q 715 2 720 8 q 703 -11 710 -4 q 686 -23 695 -17 q 665 -32 678 -28 q 639 -39 653 -36 q 600 -42 621 -42 q 167 145 282 -42 q 97 417 97 259 l 97 419 l 97 421 q 102 469 97 446 q 119 516 107 492 q 152 558 132 540 q 204 586 172 575 q 278 597 236 597 l 278 514 q 206 493 231 514 q 181 419 181 473 l 181 418 l 181 417 q 238 188 181 283 q 600 42 328 42 q 625 44 615 42 q 641 48 635 45 q 649 54 647 51 q 652 61 651 57 q 653 68 653 65 q 653 69 653 68 l 653 792 l 0 792 l 0 875 l 833 875 l 833 792 l 736 792 l 736 69 z "},"":{"ha":0,"x_min":-903,"x_max":-763,"o":"m -833 -69 q -784 -89 -805 -69 q -764 -139 -764 -110 q -784 -188 -764 -167 q -833 -208 -805 -208 l -833 -208 q -882 -188 -862 -208 q -903 -139 -903 -167 q -882 -89 -903 -110 q -833 -69 -862 -69 l -833 -69 z "},"":{"ha":417,"x_min":-1,"x_max":417,"o":"m 417 875 l 417 792 l 250 792 l 250 347 l 167 347 l 167 792 l 0 792 l 0 875 l 417 875 z "},"":{"ha":278,"x_min":-1,"x_max":597,"o":"m 278 875 l 278 792 l 181 792 l 181 -42 l 97 -42 l 97 792 l 0 792 l 0 875 l 97 875 l 97 1042 q 170 1218 97 1145 q 347 1292 244 1292 q 524 1218 451 1292 q 597 1042 597 1145 l 597 972 l 514 972 l 514 1042 q 465 1159 514 1110 q 347 1208 416 1208 q 230 1159 278 1208 q 181 1042 181 1110 l 181 875 l 278 875 z "},"":{"ha":278,"x_min":-319,"x_max":278,"o":"m 0 792 l 0 875 l 97 875 l 97 1042 q 97 1044 97 1042 q 97 1046 97 1046 q 48 1159 97 1110 q -69 1208 -1 1208 q -187 1159 -138 1208 q -236 1042 -236 1110 l -236 972 l -319 972 l -319 1042 q -246 1218 -319 1145 q -69 1292 -173 1292 q 107 1218 34 1292 q 149 1164 133 1193 q 172 1110 166 1135 q 179 1072 178 1084 q 181 1048 181 1059 q 181 1045 181 1047 q 181 1042 181 1042 l 181 875 l 278 875 l 278 792 l 181 792 l 181 -42 l 97 -42 l 97 792 l 0 792 z "},"":{"ha":0,"x_min":-650,"x_max":-79,"o":"m -347 -319 l -382 -319 q -384 -319 -383 -319 q -386 -319 -385 -319 q -649 -242 -542 -319 l -601 -174 q -385 -236 -515 -236 q -384 -236 -385 -236 q -382 -236 -383 -236 l -347 -236 q -128 -174 -214 -236 l -80 -242 q -347 -319 -187 -319 z "},"":{"ha":0,"x_min":-650,"x_max":-79,"o":"m -347 -597 l -382 -597 q -384 -597 -383 -597 q -386 -597 -385 -597 q -649 -520 -542 -597 l -601 -452 q -385 -514 -515 -514 q -384 -514 -385 -514 q -382 -514 -383 -514 l -347 -514 q -128 -452 -214 -514 l -80 -520 q -347 -597 -187 -597 m -347 -319 l -382 -319 q -384 -319 -383 -319 q -386 -319 -385 -319 q -649 -242 -542 -319 l -601 -174 q -385 -236 -515 -236 q -384 -236 -385 -236 q -382 -236 -383 -236 l -347 -236 q -128 -174 -214 -236 l -80 -242 q -347 -319 -187 -319 z "},"":{"ha":0,"x_min":-736,"x_max":-97,"o":"m -548 1160 q -556 1160 -556 1160 q -629 1151 -606 1158 q -653 1132 -653 1144 l -736 1132 q -714 1193 -736 1167 q -653 1231 -692 1219 q -556 1243 -619 1242 q -548 1243 -556 1243 q -400 1233 -467 1243 q -287 1207 -333 1223 q -206 1167 -241 1190 q -151 1118 -171 1143 q -118 1064 -131 1094 q -101 1010 -106 1035 q -97 958 -97 985 l -181 958 q -548 1160 -181 1160 z "},"":{"ha":0,"x_min":-736,"x_max":-97,"o":"m -736 1364 q -735 1377 -735 1369 q -730 1397 -735 1385 q -717 1419 -724 1408 q -693 1442 -710 1431 q -652 1460 -676 1453 q -556 1472 -614 1472 q -403 1455 -472 1472 q -276 1398 -333 1437 q -180 1299 -219 1358 q -119 1153 -140 1239 q -97 958 -97 1067 l -181 958 q -202 1039 -181 1004 q -257 1096 -223 1074 q -337 1131 -290 1117 q -431 1150 -384 1145 q -530 1156 -478 1156 q -534 1156 -531 1156 q -543 1156 -538 1156 q -556 1156 -547 1156 q -629 1147 -603 1155 q -653 1128 -653 1140 l -736 1128 q -714 1189 -736 1163 q -653 1227 -692 1215 q -556 1239 -617 1238 q -542 1239 -547 1239 q -533 1239 -537 1239 q -528 1239 -529 1239 q -208 1164 -322 1239 q -261 1269 -228 1225 q -339 1339 -294 1313 q -437 1377 -384 1365 q -556 1389 -491 1389 q -628 1381 -601 1389 q -643 1375 -637 1378 q -650 1369 -649 1372 q -652 1365 -651 1367 q -653 1362 -653 1363 q -653 1361 -653 1362 l -736 1361 q -736 1364 -736 1364 z "},"":{"ha":0,"x_min":-736,"x_max":-97,"o":"m -347 1125 l -486 1125 q -489 1125 -487 1125 q -492 1125 -492 1125 q -561 1130 -528 1125 q -626 1147 -593 1135 q -683 1180 -659 1160 q -721 1232 -706 1199 q -736 1306 -736 1264 l -653 1306 q -646 1270 -653 1285 q -623 1239 -640 1254 q -573 1216 -606 1224 q -491 1208 -540 1208 q -489 1208 -491 1208 q -486 1208 -487 1208 l -347 1208 q -233 1190 -282 1208 q -155 1138 -184 1172 q -111 1059 -126 1103 q -97 958 -97 1014 l -181 958 q -219 1083 -181 1042 q -347 1125 -258 1125 z "},"":{"ha":0,"x_min":-736,"x_max":-99,"o":"m -182 1047 q -182 1065 -182 1059 q -184 1082 -183 1071 q -189 1098 -186 1092 q -199 1111 -192 1103 q -216 1123 -206 1119 q -242 1129 -226 1126 q -278 1132 -258 1132 q -330 1126 -309 1132 q -359 1109 -350 1120 q -372 1085 -369 1097 q -375 1056 -375 1074 q -360 978 -375 1026 l -439 952 q -458 1053 -458 1013 q -448 1119 -458 1090 q -443 1132 -446 1126 l -486 1132 l -489 1132 l -492 1132 q -560 1136 -528 1132 q -626 1154 -593 1141 q -683 1186 -659 1167 q -721 1238 -706 1206 q -736 1313 -736 1271 l -653 1313 q -646 1276 -653 1292 q -623 1246 -640 1260 q -573 1223 -606 1231 q -491 1215 -540 1215 l -489 1215 l -486 1215 l -278 1215 q -202 1206 -234 1215 q -150 1181 -169 1196 q -119 1142 -131 1165 q -103 1095 -107 1119 q -99 1042 -99 1072 q -117 953 -99 1010 l -196 977 q -182 1047 -182 1024 z "},"":{"ha":0,"x_min":-417,"x_max":30,"o":"m -399 -236 q -396 -236 -399 -236 q -392 -236 -393 -236 q -242 -249 -313 -236 q -98 -298 -172 -262 q 29 -387 -25 -333 l -29 -446 q -392 -319 -156 -319 q -396 -319 -393 -319 q -399 -319 -399 -319 l -417 -319 l -417 -236 l -399 -236 z "},"":{"ha":833,"x_min":0,"x_max":833,"o":"m 139 875 l 165 875 l 176 852 q 250 597 244 718 l 653 597 l 653 833 l 653 875 l 694 875 l 833 875 l 833 792 l 736 792 l 736 -42 l 653 -42 l 653 171 q 601 138 628 152 q 422 97 522 97 l 419 97 l 417 97 q 231 156 310 97 q 101 331 151 215 l 92 351 l 104 371 q 167 573 167 464 q 113 792 167 674 l 0 792 l 0 875 l 139 875 m 653 290 l 653 514 l 247 514 q 186 344 235 424 q 417 181 265 181 l 419 181 l 422 181 q 653 290 575 181 m 129 125 q 178 105 158 125 q 199 55 199 84 q 178 6 199 26 q 129 -15 158 -15 l 129 -15 q 80 6 101 -15 q 60 55 60 26 q 80 105 60 84 q 129 125 101 125 l 129 125 z "},"":{"ha":972,"x_min":0,"x_max":972,"o":"m 875 -42 l 792 -42 l 792 792 l 562 792 l 562 69 q 562 65 562 66 q 561 61 562 65 q 561 52 561 56 q 559 42 560 49 q 555 29 557 35 q 549 16 553 24 q 540 2 545 8 q 528 -11 535 -4 q 512 -23 521 -17 q 491 -32 503 -28 q 464 -39 478 -36 q 426 -42 447 -42 q 364 -27 396 -42 q 301 14 332 -12 q 242 72 269 41 q 183 142 214 102 q 96 417 96 256 q 98 450 96 434 q 108 484 101 465 q 127 518 115 503 q 158 549 138 534 q 202 574 177 564 q 265 591 228 585 q 346 597 301 597 l 478 597 l 478 792 l 0 792 l 0 875 l 972 875 l 972 792 l 875 792 l 875 -42 m 478 514 l 346 514 q 217 489 255 514 q 179 417 179 464 l 179 416 q 250 192 179 285 q 357 75 313 108 q 426 42 401 42 q 451 44 440 42 q 467 48 460 45 q 475 54 473 51 q 477 61 476 57 q 478 68 478 65 q 478 69 478 68 l 478 514 m 129 85 q 178 65 158 85 q 199 16 199 44 q 178 -34 199 -13 q 129 -54 158 -54 l 129 -54 q 80 -34 101 -54 q 60 16 60 -13 q 80 65 60 44 q 129 85 101 85 l 129 85 z "},"":{"ha":972,"x_min":0,"x_max":972,"o":"m 594 85 q 643 64 622 85 q 663 15 663 44 q 643 -34 663 -14 q 594 -55 622 -55 l 594 -55 q 545 -34 565 -55 q 524 15 524 -14 q 545 64 524 44 q 594 85 565 85 l 594 85 m 972 875 l 972 792 l 879 792 l 879 -42 l 796 -42 l 796 375 l 389 375 l 389 -42 l 306 -42 l 306 375 l 243 375 q 187 383 212 376 q 105 465 124 403 q 97 521 98 487 q 105 576 97 549 q 185 658 124 638 q 240 667 204 665 l 243 667 l 244 667 l 246 667 q 301 658 276 667 q 381 576 363 638 q 389 521 387 558 l 389 458 l 796 458 l 796 792 l 0 792 l 0 875 l 972 875 m 306 458 l 306 521 q 301 552 304 543 q 275 579 295 572 q 245 583 263 583 l 244 583 l 243 583 l 241 583 q 211 579 220 582 q 185 552 191 572 q 181 521 180 538 q 185 490 181 501 q 212 463 191 469 q 243 458 224 459 l 306 458 z "},"":{"ha":833,"x_min":0,"x_max":833,"o":"m 735 303 q 735 299 735 302 q 736 290 735 295 q 736 278 736 284 q 730 204 736 239 q 701 129 723 169 q 643 60 678 89 q 613 41 630 50 l 666 -81 l 590 -114 l 536 10 q 394 -7 474 -7 l 392 -7 q 298 4 341 -7 q 283 8 290 6 l 322 -81 l 245 -114 l 160 83 q 128 124 141 103 q 101 177 113 149 l 177 209 q 259 109 206 141 q 392 76 312 76 l 394 76 q 594 128 535 76 q 653 278 653 181 q 652 287 653 285 q 652 297 652 289 q 647 334 652 316 q 626 374 642 353 q 586 409 611 394 q 517 434 561 424 q 417 444 474 444 l 278 444 l 278 528 l 417 528 q 514 542 472 528 q 588 587 556 556 q 636 671 619 618 q 653 792 652 722 l 0 792 l 0 875 l 833 875 l 833 792 l 736 792 q 728 696 736 741 q 697 602 719 649 q 640 521 674 555 q 604 493 624 506 q 650 466 629 481 q 691 427 676 447 q 717 385 707 408 q 731 342 727 363 q 735 303 735 322 z "},"":{"ha":1389,"x_min":0,"x_max":0,"o":""},"":{"ha":903,"x_min":0,"x_max":903,"o":"m 806 556 l 806 514 l 764 514 l 278 514 l 276 514 l 275 514 q 273 514 274 514 q 272 514 272 514 q 201 489 221 514 q 181 417 181 463 q 181 392 181 403 q 182 374 181 381 q 183 366 183 368 q 185 323 183 345 q 198 268 188 301 q 224 205 208 235 q 272 145 241 176 q 343 92 302 115 q 375 78 358 84 q 368 139 368 105 q 383 214 368 181 q 419 266 397 247 q 471 297 442 285 q 526 314 500 310 q 578 319 552 319 q 584 319 579 319 q 599 319 589 319 q 608 319 603 319 q 614 319 612 319 q 617 319 617 319 q 657 315 636 319 q 706 300 678 312 q 754 269 733 288 q 790 217 775 251 q 806 140 805 183 q 801 93 806 115 q 782 45 797 70 q 744 1 768 19 q 680 -30 721 -17 q 584 -42 639 -42 l 583 -42 q 433 -27 502 -42 q 315 13 364 -12 q 228 72 267 38 q 166 142 190 106 q 127 218 142 178 q 105 292 111 258 q 99 360 99 327 q 99 369 99 362 q 98 389 99 376 q 97 417 97 401 q 108 491 97 458 q 137 543 119 524 q 178 575 155 563 q 224 592 202 588 q 270 597 247 597 q 272 597 271 597 q 274 597 273 597 l 276 597 l 278 597 l 722 597 l 722 792 l 0 792 l 0 875 l 903 875 l 903 792 l 806 792 l 806 556 m 488 49 q 583 42 533 42 l 585 42 q 653 49 625 42 q 696 69 681 56 q 716 99 710 83 q 722 138 722 116 q 712 187 722 167 q 685 217 702 207 q 651 232 669 227 q 613 236 634 236 q 606 236 608 236 q 599 236 605 236 q 586 236 590 236 q 581 236 583 236 q 535 231 556 235 q 494 217 514 227 q 463 186 474 206 q 451 139 451 167 q 490 53 451 73 l 488 49 m 129 83 q 178 63 158 83 q 199 14 199 42 q 178 -36 199 -15 q 129 -56 158 -56 l 129 -56 q 80 -36 101 -56 q 60 14 60 -15 q 80 63 60 42 q 129 83 101 83 l 129 83 z "},"":{"ha":833,"x_min":97,"x_max":736,"o":"m 138 641 q 249 809 179 747 q 417 875 325 875 q 584 809 508 875 q 696 641 654 747 q 736 417 736 537 q 696 192 736 297 q 584 24 654 86 q 417 -42 508 -42 q 249 24 325 -42 q 138 192 179 86 q 97 417 97 297 q 138 641 97 537 m 215 610 q 181 417 181 522 q 215 223 181 312 q 305 87 249 135 q 417 42 356 42 q 528 87 477 42 q 618 223 584 135 q 653 417 653 312 q 618 610 653 522 q 528 747 584 698 q 417 792 477 792 q 305 747 356 792 q 215 610 249 698 z "},"":{"ha":833,"x_min":97,"x_max":736,"o":"m 542 127 q 568 288 542 194 l 603 422 q 417 375 522 375 q 195 444 288 375 q 97 625 97 518 q 195 806 97 732 q 417 875 288 875 q 638 806 546 875 q 736 625 736 732 q 728 566 736 594 l 648 267 q 626 127 626 183 q 642 60 626 81 q 658 47 648 51 q 689 42 667 43 l 689 -42 q 666 -40 673 -41 q 647 -37 658 -40 q 625 -30 636 -35 q 575 10 594 -17 q 542 127 542 53 m 245 739 q 181 625 181 690 q 245 511 181 560 q 417 458 315 458 q 588 511 518 458 q 653 625 653 560 q 588 739 653 690 q 417 792 518 792 q 245 739 315 792 z "},"":{"ha":833,"x_min":97,"x_max":736,"o":"m 414 875 l 417 875 l 419 875 q 510 868 467 875 q 595 842 552 861 q 668 793 638 823 q 717 716 698 764 q 736 605 736 667 l 736 603 l 736 602 q 718 480 736 535 q 659 378 699 424 q 558 301 619 333 l 551 298 q 613 242 584 272 q 676 155 646 205 q 727 44 706 104 q 735 11 734 26 q 736 0 736 6 l 653 0 q 653 1 653 1 q 649 15 652 7 q 483 244 593 169 q 453 263 469 253 q 410 253 432 257 q 211 236 322 236 q 148 247 173 236 q 110 275 123 256 q 97 319 97 294 l 97 319 l 97 321 q 98 327 97 322 q 99 338 99 333 q 103 350 101 342 q 111 364 106 358 q 123 377 115 370 q 142 389 131 384 q 208 401 168 401 q 293 397 252 401 q 377 381 333 392 q 461 352 422 369 l 462 351 q 509 369 488 360 q 592 430 560 394 q 639 507 624 465 q 653 602 653 549 l 653 603 l 653 605 q 641 682 653 649 q 602 740 628 715 q 529 778 575 765 q 419 792 483 792 l 417 792 l 414 792 q 165 732 238 792 l 113 797 q 414 875 208 875 z "},"":{"ha":833,"x_min":94,"x_max":738,"o":"m 415 875 l 419 875 q 523 868 476 875 q 602 850 569 861 q 659 822 635 838 q 699 788 684 805 q 722 749 713 770 q 734 711 731 728 q 738 675 738 694 l 738 674 q 722 590 738 628 q 681 524 707 551 q 649 496 667 509 l 660 490 q 715 436 696 468 q 733 366 733 405 l 733 365 q 573 151 733 217 q 710 63 640 113 q 721 47 711 61 q 731 28 731 33 q 733 0 733 17 q 658 0 696 0 l 661 -3 l 662 -4 l 656 0 q 650 0 653 0 q 650 3 650 2 q 518 86 582 51 q 456 117 485 103 q 208 97 351 97 l 205 97 q 143 108 163 100 q 106 137 119 118 q 94 180 94 156 l 94 181 l 94 182 q 94 188 94 183 q 96 199 95 194 q 100 211 97 203 q 107 225 103 219 q 120 238 112 231 q 138 250 128 245 q 205 263 165 263 q 210 263 206 263 q 216 263 215 263 q 304 253 256 263 q 413 224 351 244 q 466 203 438 215 q 650 365 650 246 l 650 366 q 623 414 650 393 q 555 447 596 434 q 533 439 544 443 q 434 417 488 426 q 326 404 381 408 q 211 401 272 401 q 148 411 173 401 q 110 441 123 422 q 97 484 97 460 q 151 558 98 540 q 205 567 174 567 l 206 567 l 213 567 q 348 563 285 567 q 471 551 410 559 q 550 535 514 544 q 654 674 654 582 l 654 675 q 642 723 654 702 q 602 760 629 744 q 529 784 576 776 q 418 792 483 792 l 414 792 q 169 733 241 792 l 116 797 q 415 875 211 875 z "},"":{"ha":833,"x_min":97,"x_max":736,"o":"m 181 225 q 245 103 181 151 q 417 42 326 42 q 590 104 497 42 q 653 225 653 146 q 588 356 653 308 q 422 409 519 408 q 419 409 420 409 q 417 409 417 409 q 245 356 315 409 q 181 225 181 308 m 549 875 q 557 874 549 875 q 568 873 564 874 q 580 868 572 872 q 598 860 589 865 q 633 835 613 851 q 729 664 729 753 q 631 482 729 551 q 587 455 608 467 q 638 423 614 441 q 736 225 736 349 q 636 35 736 101 q 417 -42 522 -42 q 195 36 299 -42 q 97 225 97 110 q 195 423 97 349 q 245 454 219 441 q 202 483 224 467 q 104 664 104 556 q 200 834 104 753 q 235 860 219 851 q 284 875 261 875 l 285 792 q 277 788 284 792 q 254 772 267 783 q 188 664 188 714 q 252 549 188 598 q 417 492 328 492 l 419 492 l 420 492 q 582 550 500 492 q 646 664 646 594 q 579 771 646 715 q 557 788 565 783 q 549 792 550 792 l 549 875 z "},"":{"ha":833,"x_min":87,"x_max":736,"o":"m 249 643 q 185 479 249 558 q 414 319 264 319 l 416 319 l 419 319 q 653 433 575 319 l 653 833 l 736 833 l 736 0 l 653 0 l 653 312 q 598 276 627 292 q 419 236 519 236 l 417 236 l 414 236 q 228 295 308 236 q 98 469 148 354 l 87 494 l 106 515 q 166 645 166 578 q 105 809 166 723 l 173 858 q 216 784 199 819 q 240 720 233 749 q 248 676 246 691 q 249 643 249 661 z "},"":{"ha":833,"x_min":97,"x_max":695,"o":"m 597 992 q 622 891 597 928 q 694 842 645 856 l 694 757 l 486 757 q 261 710 328 757 q 193 576 193 663 q 338 424 193 424 q 342 424 338 424 q 347 424 347 424 l 694 424 l 694 340 l 347 340 q 343 340 347 340 q 339 340 340 340 q 261 328 293 340 q 212 295 228 317 q 188 248 195 274 q 181 191 181 223 l 181 190 l 181 190 q 218 79 181 116 q 347 42 256 42 l 694 42 l 694 -42 l 347 -42 q 160 19 224 -42 q 97 190 97 79 l 97 190 l 97 191 q 113 286 97 244 q 151 353 128 328 q 190 385 169 372 q 164 409 176 396 q 125 477 140 434 q 110 576 110 521 q 115 633 110 606 q 134 691 121 660 q 175 748 148 723 q 242 795 203 774 q 344 828 282 817 q 486 840 407 840 l 556 840 q 514 992 513 899 q 523 1052 514 1024 q 553 1103 533 1080 q 609 1140 573 1126 q 694 1153 645 1153 l 694 1069 q 618 1050 639 1069 q 597 992 597 1031 z "},"":{"ha":833,"x_min":124,"x_max":736,"o":"m 186 649 q 223 773 186 710 q 432 875 283 875 l 433 875 q 663 763 556 874 q 736 475 736 686 q 736 471 736 474 q 736 467 736 467 q 685 224 736 334 q 534 38 633 115 q 310 -37 437 -37 q 125 -2 224 -37 l 153 77 q 310 47 238 47 q 483 104 408 47 q 653 467 653 235 q 653 472 653 469 q 653 475 653 474 q 603 704 653 653 q 433 792 520 792 l 432 792 q 295 731 331 792 q 269 649 269 687 q 292 579 269 613 l 224 532 q 186 649 186 587 z "},"":{"ha":1111,"x_min":97,"x_max":972,"o":"m 278 653 l 276 653 l 274 653 q 225 658 249 653 q 178 675 202 663 q 137 707 154 688 q 108 759 119 727 q 97 833 97 792 l 97 835 l 97 838 q 102 886 97 863 q 119 933 107 909 q 152 974 132 957 q 204 1003 172 992 q 278 1014 236 1014 l 280 1014 l 282 1014 q 330 1009 307 1014 q 377 992 353 1004 q 419 959 401 979 q 447 907 436 940 q 458 833 458 875 l 458 736 l 972 736 l 972 653 l 458 653 l 458 417 q 480 239 458 313 q 543 123 501 165 q 638 61 584 80 q 764 42 692 42 l 972 42 l 972 -42 l 764 -42 q 695 -38 728 -42 q 622 -22 663 -34 q 548 11 582 -9 q 482 66 515 31 q 426 148 449 101 q 389 264 403 195 q 375 417 375 333 l 375 653 l 278 653 m 375 736 l 375 833 q 355 906 375 881 q 281 931 334 931 l 279 931 l 278 931 q 206 910 231 931 q 181 836 181 890 l 181 835 l 181 833 q 201 761 181 786 q 275 736 222 736 l 276 736 l 278 736 l 375 736 z "},"":{"ha":1111,"x_min":97,"x_max":973,"o":"m 875 868 l 875 867 l 875 865 q 973 739 875 781 l 972 653 l 458 653 l 458 417 q 480 239 458 313 q 543 123 501 165 q 638 61 584 80 q 764 42 692 42 l 972 42 l 972 -42 l 764 -42 q 695 -38 728 -42 q 622 -22 663 -34 q 548 11 582 -9 q 482 66 515 31 q 426 148 449 101 q 389 264 403 195 q 375 417 375 333 l 375 653 l 278 653 l 276 653 l 274 653 q 225 658 249 653 q 178 675 202 663 q 137 707 154 688 q 108 759 119 727 q 97 833 97 792 l 97 835 l 97 838 q 102 886 97 863 q 119 933 107 909 q 152 974 132 957 q 204 1003 172 992 q 278 1014 236 1014 l 280 1014 l 282 1014 q 330 1009 307 1014 q 377 992 353 1004 q 419 959 401 979 q 447 907 436 940 q 458 833 458 875 l 458 736 l 837 736 q 792 864 792 791 l 792 866 l 792 868 q 804 931 792 903 q 835 973 815 955 q 895 1005 862 997 q 972 1014 928 1013 l 972 931 q 959 930 967 930 q 942 929 952 930 q 924 926 933 928 q 906 920 915 924 q 890 910 897 916 q 880 897 883 905 q 875 868 875 885 m 375 736 l 375 833 q 355 906 375 881 q 281 931 334 931 l 279 931 l 278 931 q 206 910 231 931 q 181 836 181 890 l 181 835 l 181 833 q 201 761 181 786 q 275 736 222 736 l 276 736 l 278 736 l 375 736 z "},"":{"ha":0,"x_min":-597,"x_max":-235,"o":"m -596 1046 q -596 1049 -596 1047 q -596 1075 -597 1065 q -592 1105 -595 1085 q -582 1138 -589 1124 q -562 1167 -576 1151 q -531 1194 -549 1184 q -483 1210 -512 1203 q -417 1217 -453 1217 q -336 1206 -371 1217 q -283 1179 -302 1195 q -253 1140 -265 1163 q -239 1100 -242 1118 q -235 1064 -235 1083 q -256 954 -235 1017 l -335 981 q -319 1064 -319 1030 q -340 1116 -319 1099 q -417 1134 -360 1134 q -452 1132 -437 1134 q -477 1126 -467 1129 q -494 1116 -487 1123 q -505 1103 -501 1109 q -511 1088 -509 1098 q -513 1072 -512 1078 q -513 1052 -513 1065 q -497 981 -513 1029 l -576 954 q -589 1004 -583 976 q -596 1046 -596 1033 z "},"":{"ha":556,"x_min":-1,"x_max":556,"o":"m 556 875 l 556 792 l 0 792 l 0 875 l 556 875 m 456 1087 q 278 1022 382 1022 l 278 1022 l 277 1022 q 99 1087 174 1022 q 22 1250 22 1154 l 106 1250 q 153 1150 106 1192 q 278 1106 204 1106 l 278 1106 q 402 1150 351 1106 q 450 1250 450 1192 l 533 1250 q 456 1087 533 1154 z "},"":{"ha":833,"x_min":0,"x_max":833,"o":"m 736 556 l 736 514 l 694 514 l 458 514 q 456 514 458 514 q 453 514 453 514 q 182 274 265 514 q 261 99 203 156 q 417 42 318 42 q 665 99 606 42 l 724 40 q 417 -42 639 -42 q 319 -28 364 -42 q 244 5 275 -15 q 189 55 214 25 q 149 112 163 85 q 123 172 134 139 q 106 226 111 206 q 98 271 101 247 l 96 281 l 99 291 q 166 432 126 372 q 251 528 205 492 l 252 529 q 169 792 182 647 l 0 792 l 0 875 l 833 875 l 833 792 l 736 792 l 736 556 m 324 572 q 347 581 335 576 q 451 597 397 597 q 455 597 452 597 q 458 597 458 597 l 653 597 l 653 792 l 253 792 q 324 572 265 671 z "},"":{"ha":1111,"x_min":-1,"x_max":1111,"o":"m 1001 703 q 990 624 1001 667 q 897 438 963 501 q 862 411 880 423 q 901 300 901 370 q 886 201 901 257 q 782 20 853 81 q 604 -42 710 -42 q 271 145 393 -42 q 111 690 149 331 q 104 792 106 743 l 0 792 l 0 875 l 105 875 q 118 993 107 938 q 157 1122 132 1067 q 218 1217 182 1176 q 295 1286 254 1259 q 386 1330 337 1313 q 484 1354 435 1347 q 588 1361 533 1361 q 603 1361 598 1361 q 610 1360 609 1360 q 677 1356 644 1360 q 752 1336 710 1351 q 829 1298 793 1322 q 899 1233 865 1274 q 959 1139 934 1192 q 999 1007 983 1085 q 1013 875 1010 946 l 1111 875 l 1111 792 l 978 792 l 981 788 q 997 743 993 763 q 1001 703 1001 724 m 729 458 q 843 503 799 458 q 910 642 888 549 q 917 702 917 676 q 891 769 917 746 q 799 792 865 792 l 188 792 q 194 699 189 747 q 226 490 206 585 l 233 458 l 729 458 m 729 375 l 256 375 q 272 328 263 351 q 328 210 297 262 q 392 127 360 159 q 461 76 424 96 q 533 49 499 56 q 604 42 567 42 q 731 86 682 42 q 806 224 781 131 q 818 300 818 268 q 799 357 818 338 q 729 375 780 375 m 799 875 l 930 875 q 919 978 928 931 q 889 1090 908 1044 q 844 1169 871 1135 q 789 1224 817 1203 q 728 1256 761 1244 q 666 1273 694 1269 q 608 1277 638 1277 q 601 1277 606 1277 q 588 1278 597 1278 q 453 1264 513 1278 q 343 1217 393 1249 q 258 1133 292 1184 q 206 1006 224 1082 q 188 875 191 947 l 799 875 z "},"":{"ha":1800,"x_min":1,"x_max":1773,"o":"m 1766 865 q 1768 843 1766 865 q 1772 767 1770 822 q 1769 649 1774 713 q 1755 617 1768 635 q 1723 589 1741 599 q 1693 582 1705 578 q 1681 601 1681 585 q 1586 1044 1701 928 q 1526 1083 1560 1069 q 1459 1100 1492 1097 q 1385 1097 1425 1103 q 1313 1082 1344 1091 q 1244 1058 1281 1073 q 1186 1034 1207 1044 l 1141 1012 q 1060 953 1097 990 q 883 603 951 844 q 850 559 876 579 q 808 544 825 540 q 631 547 701 574 q 550 500 576 526 q 534 478 540 490 q 528 463 531 472 q 508 375 514 424 q 818 374 564 374 q 903 349 878 374 q 881 191 949 304 q 855 157 870 172 q 835 139 844 147 l 828 135 q 840 124 834 130 q 878 61 866 98 q 887 -24 892 14 q 831 -129 879 -81 q 813 -146 819 -140 q 803 -153 808 -149 q 791 -161 798 -156 q 776 -169 783 -165 q 758 -177 768 -174 q 735 -184 747 -181 q 610 -174 679 -198 q 529 -122 564 -157 q 437 76 463 -56 q 435 81 435 78 q 435 87 435 84 q 419 303 413 207 q 419 306 419 304 q 419 313 419 309 q 444 437 425 381 q 460 471 451 455 q 510 539 479 508 q 653 628 566 594 q 820 642 728 658 q 1021 992 896 867 q 1151 1088 1081 1053 q 1280 1144 1219 1122 q 1386 1177 1340 1167 q 1474 1188 1433 1187 q 1543 1184 1515 1189 q 1597 1168 1572 1178 q 1636 1147 1622 1157 q 1664 1123 1651 1136 q 1689 1094 1678 1110 q 1714 1056 1701 1079 q 1735 1007 1726 1033 q 1753 943 1744 980 q 1766 865 1763 907 m 307 240 q 306 251 308 247 q 299 292 304 282 q 276 323 289 310 q 185 360 241 357 q 125 352 150 363 q 99 336 111 347 q 94 330 97 334 q 90 315 91 326 q 101 256 87 291 q 117 231 106 242 q 178 201 138 210 q 270 211 231 190 q 298 228 288 220 q 304 233 301 230 q 307 240 306 233 m 436 -137 q 450 -153 449 -139 q 438 -185 451 -167 q 408 -215 426 -203 q 376 -224 390 -226 q 369 -222 372 -224 q 351 -211 360 -219 q 308 128 301 -163 q 309 165 308 147 q 263 136 288 150 q 114 115 190 97 q 39 153 66 126 q 16 187 24 168 q 2 269 -2 233 q 42 356 7 314 q 60 375 53 369 q 147 433 103 417 q 240 448 191 451 q 354 401 311 444 q 382 364 370 385 q 396 179 399 332 q 430 -133 390 -92 q 435 -137 433 -136 q 436 -137 436 -137 m 825 271 q 765 287 809 287 q 506 288 589 287 q 520 158 508 227 l 719 169 q 759 176 740 172 q 814 195 797 185 q 825 271 845 251 m 800 -68 q 792 -6 803 -42 q 761 46 782 25 q 694 82 735 72 l 674 81 q 542 69 613 72 q 608 -44 566 -3 q 676 -87 638 -74 q 772 -99 733 -108 q 790 -90 783 -96 q 792 -89 791 -90 q 800 -68 797 -83 z "},"":{"ha":0,"x_min":-25,"x_max":25,"o":"m -25 -191 l -25 1100 l 25 1100 l 25 -191 l -25 -191 z "},"":{"ha":0,"x_min":-152,"x_max":152,"o":"m 118 917 l 25 1011 l 25 -191 l -25 -191 l -25 1011 l -118 917 l -152 951 l -33 1068 l -152 1185 l -118 1219 l 0 1100 l 118 1219 l 152 1185 l 33 1068 l 152 951 l 118 917 z "},"":{"ha":776,"x_min":-1,"x_max":776,"o":"m -1 508 l -1 583 l 776 583 l 776 508 l -1 508 z "},"":{"ha":1263,"x_min":-1,"x_max":1263,"o":"m -1 508 l -1 583 l 1263 583 l 1263 508 l -1 508 z "},"":{"ha":453,"x_min":90,"x_max":253,"o":"m 253 1079 q 219 1055 233 1065 q 194 1033 205 1044 q 177 1008 184 1022 q 166 972 170 993 q 202 966 187 970 q 229 953 218 963 q 245 928 240 944 q 250 889 250 913 q 231 831 250 853 q 178 810 211 810 q 125 826 143 810 q 99 862 106 842 q 90 900 91 882 q 90 924 90 919 q 99 978 90 951 q 126 1031 108 1006 q 167 1080 143 1056 q 219 1124 191 1103 l 253 1079 l 253 1079 z "},"":{"ha":453,"x_min":206,"x_max":369,"o":"m 206 854 q 239 878 225 867 q 264 900 253 888 q 281 926 274 911 q 292 962 288 940 q 230 980 251 963 q 208 1044 208 997 q 228 1102 208 1081 q 281 1124 247 1124 q 319 1116 303 1124 q 345 1097 335 1108 q 360 1072 355 1085 q 367 1045 365 1058 q 369 1022 369 1032 q 369 1009 369 1013 q 359 955 369 982 q 332 902 349 928 q 291 853 315 877 q 239 810 267 830 l 206 854 l 206 854 z "},"":{"ha":1258,"x_min":133,"x_max":1124,"o":"m 273 70 q 267 43 273 56 q 252 20 262 30 q 230 6 243 11 q 203 0 217 0 q 175 6 188 0 q 153 20 163 11 q 138 43 144 30 q 133 70 133 56 q 138 98 133 85 q 153 120 144 110 q 175 135 163 129 q 203 140 188 140 q 230 135 217 140 q 252 120 243 129 q 267 98 262 110 q 273 70 273 85 m 698 70 q 692 43 698 56 q 677 20 687 30 q 655 6 668 11 q 628 0 642 0 q 600 6 613 0 q 578 20 588 11 q 563 43 569 30 q 558 70 558 56 q 563 98 558 85 q 578 120 569 110 q 600 135 588 129 q 628 140 613 140 q 655 135 642 140 q 677 120 668 129 q 692 98 687 110 q 698 70 698 85 m 1124 70 q 1118 43 1124 56 q 1103 20 1113 30 q 1081 6 1094 11 q 1053 0 1068 0 q 1026 6 1039 0 q 1004 20 1013 11 q 989 43 994 30 q 983 70 983 56 q 989 98 983 85 q 1004 120 994 110 q 1026 135 1013 129 q 1053 140 1039 140 q 1081 135 1068 140 q 1103 120 1094 129 q 1118 98 1113 110 q 1124 70 1124 85 z "},"":{"ha":904,"x_min":69,"x_max":780,"o":"m 158 351 l 69 351 l 85 428 l 151 428 l 151 526 l 69 526 l 85 603 l 159 603 q 210 750 172 685 q 306 860 249 815 q 435 929 363 905 q 585 953 506 953 q 639 951 614 953 q 688 945 665 949 q 734 936 712 942 q 780 924 757 931 l 759 855 q 724 870 744 864 q 680 882 703 877 q 631 888 656 886 q 583 890 606 890 q 476 866 526 890 q 389 802 427 842 q 324 711 350 763 q 287 603 297 659 l 715 603 l 697 526 l 277 526 l 277 428 l 681 428 l 663 351 l 287 351 l 287 349 q 324 242 297 294 q 389 150 350 190 q 476 86 427 110 q 583 63 526 63 q 631 65 606 63 q 680 71 656 67 q 724 82 703 76 q 759 98 744 89 l 780 28 q 734 16 757 22 q 688 7 712 11 q 639 2 665 3 q 585 0 614 0 q 435 23 506 0 q 306 90 363 46 q 210 198 249 134 q 159 344 172 262 l 158 351 z "},"":{"ha":894,"x_min":177,"x_max":713,"o":"m 177 349 l 177 430 l 713 430 l 713 349 l 177 349 z "},"":{"ha":906,"x_min":69,"x_max":825,"o":"m 148 428 q 167 356 153 390 l 99 317 q 69 428 76 369 l 148 428 l 148 428 m 825 428 q 814 371 822 399 q 796 317 807 343 l 727 357 q 739 392 734 374 q 747 428 744 410 l 825 428 l 825 428 m 633 231 q 686 284 663 254 l 754 245 q 716 201 737 222 q 673 164 696 181 l 633 231 l 633 231 m 208 283 q 233 255 219 268 q 260 229 246 241 l 222 163 q 140 244 175 197 l 208 283 l 208 283 m 262 708 q 234 684 247 697 q 209 656 221 671 l 141 695 q 179 739 158 719 q 223 776 199 759 l 262 708 l 262 708 m 70 512 q 99 623 76 571 l 167 584 q 148 512 153 550 l 70 512 l 70 512 m 406 769 q 335 750 367 763 l 295 818 q 349 836 322 829 q 406 847 377 844 l 406 769 l 406 769 m 490 170 q 562 190 528 176 l 601 122 q 547 103 574 110 q 490 92 519 96 l 490 170 l 490 170 m 406 92 q 294 122 347 99 l 333 188 q 369 176 351 181 q 406 169 387 172 l 406 92 l 406 92 m 747 512 q 739 548 744 531 q 727 583 734 566 l 794 622 q 825 512 818 569 l 747 512 l 747 512 m 685 655 q 660 682 674 669 q 633 707 647 695 l 672 774 q 715 737 694 757 q 753 694 735 717 l 685 655 l 685 655 m 490 847 q 599 816 548 839 l 560 749 q 526 761 544 756 q 490 769 508 766 l 490 847 l 490 847 z "},"":{"ha":1474,"x_min":65,"x_max":1423,"o":"m 853 1126 q 859 1099 865 1119 q 849 1063 854 1081 q 1072 952 980 1045 q 1095 928 1084 941 q 1194 648 1198 808 q 1051 353 1190 494 l 1047 349 q 853 217 954 256 l 853 214 q 835 168 858 194 q 788 139 812 142 q 778 138 783 138 l 779 -21 l 967 96 q 1074 178 1027 132 q 1245 505 1196 301 q 1089 999 1311 774 l 1088 999 q 1085 1024 1080 1007 q 1108 1057 1091 1040 q 1142 1080 1125 1074 q 1167 1077 1158 1085 l 1182 1063 q 1422 574 1434 810 q 1173 22 1413 385 l 1173 22 q 1159 3 1167 12 q 1143 -9 1151 -3 q 1111 -19 1125 -21 q 1099 -13 1103 -19 q 1008 52 1088 -4 q 968 26 988 38 l 803 -76 q 1008 -215 926 -155 q 1009 -216 1008 -215 q 1011 -218 1010 -217 q 1036 -255 1029 -241 q 1046 -284 1044 -269 q 1013 -358 1050 -322 q 1006 -365 1010 -362 q 975 -387 990 -378 q 944 -399 960 -397 q 920 -392 929 -401 q 923 -288 901 -373 q 816 -210 881 -253 l 780 -187 l 781 -277 q 780 -282 781 -279 q 785 -287 783 -283 l 815 -341 q 817 -352 817 -345 q 809 -395 815 -376 q 793 -428 803 -414 q 774 -450 783 -442 q 754 -467 765 -460 q 740 -476 745 -473 q 726 -480 734 -478 q 706 -484 719 -481 q 668 -471 682 -485 q 649 -406 649 -451 q 657 -352 649 -376 q 676 -318 664 -334 q 692 -298 688 -302 l 692 -147 l 569 -230 q 576 -287 578 -267 q 573 -311 576 -300 q 565 -327 569 -322 q 556 -339 560 -333 q 550 -346 551 -344 q 478 -371 510 -386 q 457 -356 473 -368 q 455 -353 456 -356 q 442 -317 440 -340 q 456 -270 443 -295 q 489 -222 468 -247 q 508 -202 497 -211 l 510 -201 l 511 -200 q 649 -105 570 -157 l 483 -5 q 435 28 458 10 l 367 -20 q 366 -24 367 -22 q 363 -24 363 -26 q 345 -48 357 -37 q 321 -61 333 -58 q 306 -56 310 -63 q 306 -37 301 -49 q 65 497 75 316 q 327 1020 53 746 l 340 1033 l 341 1034 q 375 1056 358 1051 q 399 1053 391 1061 q 402 1028 408 1044 q 380 994 397 1011 q 242 530 179 792 q 433 175 296 312 q 557 78 488 119 l 691 -5 l 690 129 q 692 139 690 133 l 679 140 q 632 170 655 143 q 617 194 621 183 q 417 285 511 213 q 380 317 397 301 q 277 571 283 415 q 410 918 269 778 q 444 950 426 935 q 623 1045 524 1017 q 608 1101 616 1074 q 614 1127 601 1121 l 675 1159 q 734 1174 704 1174 q 792 1158 779 1174 l 853 1126 m 827 969 q 838 287 765 653 q 1007 388 931 311 l 1010 391 q 1106 597 1103 485 q 1015 851 1110 741 q 994 874 1005 863 q 827 969 922 945 m 631 292 q 640 972 702 658 q 469 897 538 955 q 449 879 458 888 q 365 625 359 789 q 458 396 369 485 q 492 366 474 381 q 631 292 559 315 z "}}}
